<svg version="1.1" xmlns="http://www.w3.org/2000/svg" xmlns:xlink="http://www.w3.org/1999/xlink" width="980" height="917.4" viewBox="0,0,980,917.4"><g transform="translate(250,278.7)"><g data-paper-data="{&quot;isPaintingLayer&quot;:true}" fill="#ffffff" fill-rule="nonzero" stroke="none" stroke-linecap="butt" stroke-linejoin="miter" stroke-miterlimit="10" stroke-dasharray="" stroke-dashoffset="0" style="mix-blend-mode: normal"><path d="M730,75.4l-301,212.8l114.5,348.2l-302.1,-216.8l-300.6,218l114.5,-347.4l-305.3,-214.8h376.9l115.7,-354.1h1.2l114.9,354.1zM241.4,322.4l153,111.3l-57.8,-175.9l149.1,-103.8h-184.1l-58.6,-180.5l-59,180.6h-188.5l152.3,105.4l-57,171.9zM-59.6,638.7h-1.2l1.6,-1.2z" stroke-width="1"/><path d="M88.10551,436.65108l58.37934,-176.12361l-156.03386,-108.01623l193.12517,-0.02358l60.48311,-185.03767l60.07344,184.93663l188.61629,0.02216l-152.75481,106.37584l59.19851,180.22254l-156.77278,-114.01542z" data-paper-data="{&quot;noHover&quot;:false,&quot;origItem&quot;:[&quot;Path&quot;,{&quot;applyMatrix&quot;:true,&quot;segments&quot;:[[241.4,322.4],[394.4,433.7],[336.6,257.8],[485.7,154],[301.6,154],[243,-26.5],[184,154.1],[-4.5,154.1],[147.8,259.5],[90.8,431.4]],&quot;closed&quot;:true,&quot;fillColor&quot;:[0,0,0,1]}]}" stroke-width="0.5"/></g></g></svg>