<svg version="1.1" xmlns="http://www.w3.org/2000/svg" xmlns:xlink="http://www.w3.org/1999/xlink" width="440.045" height="315.021" viewBox="0,0,440.045,315.021"><g transform="translate(-20.021,-25.884)"><g data-paper-data="{&quot;isPaintingLayer&quot;:true}" fill-rule="nonzero" stroke="none" stroke-width="1" stroke-linecap="butt" stroke-linejoin="miter" stroke-miterlimit="10" stroke-dasharray="" stroke-dashoffset="0" style="mix-blend-mode: normal"><path d="M29.584,43.837c-1.646,0 -3.141,-0.401 -4.485,-1.203c-1.344,-0.802 -2.401,-1.89 -3.172,-3.265c-0.771,-1.375 -1.156,-2.881 -1.156,-4.516c0,-1.635 0.385,-3.141 1.156,-4.516c0.771,-1.375 1.828,-2.458 3.172,-3.25c1.344,-0.802 2.839,-1.203 4.485,-1.203c1.645,0 3.14,0.401 4.484,1.203c1.344,0.792 2.401,1.875 3.172,3.25c0.771,1.375 1.156,2.881 1.156,4.516c0,1.635 -0.385,3.141 -1.156,4.516c-0.771,1.375 -1.828,2.463 -3.172,3.265c-1.344,0.802 -2.839,1.203 -4.484,1.203zM29.584,41.884c1.229,0 2.359,-0.297 3.39,-0.89c1.031,-0.604 1.844,-1.438 2.438,-2.5c0.604,-1.063 0.906,-2.276 0.906,-3.641c0,-1.354 -0.302,-2.562 -0.906,-3.625c-0.594,-1.073 -1.407,-1.906 -2.438,-2.5c-1.031,-0.604 -2.161,-0.906 -3.39,-0.906c-1.23,0 -2.365,0.302 -3.407,0.906c-1.031,0.594 -1.849,1.427 -2.453,2.5c-0.594,1.063 -0.89,2.271 -0.89,3.625c0,1.365 0.296,2.578 0.89,3.641c0.604,1.062 1.422,1.896 2.453,2.5c1.042,0.593 2.177,0.89 3.407,0.89zM40.864,31.212h1.938v1.797h0.094c0.343,-0.614 0.88,-1.13 1.609,-1.547c0.74,-0.427 1.526,-0.64 2.359,-0.64c1.469,0 2.589,0.427 3.36,1.281c0.781,0.854 1.172,2.021 1.172,3.5v7.844h-2.032v-7.531c0,-1.136 -0.276,-1.959 -0.828,-2.469c-0.541,-0.521 -1.286,-0.781 -2.234,-0.781c-0.656,0 -1.245,0.187 -1.766,0.562c-0.51,0.365 -0.911,0.849 -1.203,1.453c-0.291,0.594 -0.437,1.219 -0.437,1.875v6.891h-2.032zM59.766,43.837c-1.167,0 -2.214,-0.281 -3.141,-0.843c-0.927,-0.563 -1.651,-1.334 -2.172,-2.313c-0.52,-0.989 -0.781,-2.099 -0.781,-3.328c0,-1.167 0.245,-2.25 0.735,-3.25c0.489,-1 1.187,-1.797 2.093,-2.391c0.907,-0.593 1.943,-0.89 3.11,-0.89c1.198,0 2.234,0.271 3.109,0.812c0.885,0.532 1.563,1.271 2.031,2.219c0.469,0.938 0.703,2.016 0.703,3.234c0,0.188 -0.015,0.396 -0.046,0.625h-9.688c0.042,0.928 0.26,1.714 0.656,2.36c0.407,0.635 0.917,1.114 1.532,1.437c0.625,0.313 1.27,0.469 1.937,0.469c1.604,0 2.813,-0.734 3.625,-2.203l1.734,0.844c-0.52,0.968 -1.239,1.75 -2.156,2.343c-0.906,0.584 -2,0.875 -3.281,0.875zM63.297,36.025c-0.031,-0.51 -0.177,-1.021 -0.437,-1.531c-0.25,-0.511 -0.646,-0.943 -1.188,-1.297c-0.541,-0.354 -1.229,-0.531 -2.062,-0.531c-0.959,0 -1.776,0.312 -2.453,0.937c-0.667,0.615 -1.105,1.422 -1.313,2.422z" fill="#ffffff"/><path d="M21.615,55.059h2.5l8.609,13.688h0.094l-0.094,-3.313v-10.375h2.047v17.188h-2.125l-9,-14.328h-0.094l0.094,3.312v11.016h-2.031zM39.404,57.747c-0.407,0 -0.756,-0.141 -1.047,-0.422c-0.282,-0.292 -0.422,-0.635 -0.422,-1.031c0,-0.417 0.14,-0.766 0.422,-1.047c0.291,-0.281 0.64,-0.422 1.047,-0.422c0.416,0 0.76,0.141 1.031,0.422c0.281,0.281 0.422,0.63 0.422,1.047c0,0.396 -0.141,0.739 -0.422,1.031c-0.271,0.281 -0.615,0.422 -1.031,0.422zM38.388,60.012h2.047v12.235h-2.047zM48.879,77.809c-1.437,0 -2.625,-0.338 -3.562,-1.015c-0.938,-0.667 -1.568,-1.469 -1.891,-2.407l1.875,-0.796c0.261,0.708 0.703,1.281 1.328,1.718c0.636,0.438 1.386,0.657 2.25,0.657c1.261,0 2.24,-0.37 2.938,-1.11c0.698,-0.729 1.047,-1.765 1.047,-3.109v-1.375h-0.094c-0.406,0.625 -0.974,1.135 -1.703,1.531c-0.729,0.385 -1.557,0.578 -2.484,0.578c-1.052,0 -2.016,-0.271 -2.891,-0.812c-0.865,-0.542 -1.557,-1.297 -2.078,-2.266c-0.511,-0.979 -0.766,-2.094 -0.766,-3.344c0,-1.239 0.255,-2.349 0.766,-3.328c0.521,-0.979 1.213,-1.739 2.078,-2.281c0.875,-0.552 1.839,-0.828 2.891,-0.828c0.927,0 1.755,0.198 2.484,0.594c0.729,0.385 1.297,0.901 1.703,1.546h0.094v-1.75h1.937v11.75c0,1.969 -0.547,3.469 -1.64,4.5c-1.084,1.032 -2.511,1.547 -4.282,1.547zM48.879,70.637c0.73,0 1.396,-0.182 2,-0.546c0.605,-0.375 1.084,-0.907 1.438,-1.594c0.365,-0.688 0.547,-1.5 0.547,-2.438c0,-0.958 -0.182,-1.781 -0.547,-2.468c-0.354,-0.698 -0.833,-1.224 -1.438,-1.579c-0.604,-0.364 -1.27,-0.546 -2,-0.546c-0.739,0 -1.416,0.187 -2.031,0.562c-0.604,0.365 -1.088,0.891 -1.453,1.578c-0.354,0.688 -0.531,1.505 -0.531,2.453c0,0.938 0.177,1.756 0.531,2.453c0.365,0.698 0.849,1.23 1.453,1.594c0.615,0.354 1.292,0.531 2.031,0.531zM57.832,55.059h2.032v5.063l-0.094,1.687h0.094c0.343,-0.625 0.875,-1.146 1.593,-1.562c0.73,-0.417 1.526,-0.625 2.391,-0.625c1.49,0 2.625,0.437 3.406,1.312c0.792,0.865 1.188,2.021 1.188,3.469v7.844h-2.047v-7.531c0,-1.105 -0.281,-1.922 -0.844,-2.454c-0.552,-0.531 -1.276,-0.796 -2.172,-0.796c-0.646,0 -1.239,0.192 -1.781,0.578c-0.531,0.385 -0.953,0.885 -1.266,1.5c-0.312,0.604 -0.468,1.234 -0.468,1.89v6.813h-2.032zM75.472,72.434c-0.5,0 -0.964,-0.078 -1.391,-0.234c-0.417,-0.156 -0.771,-0.375 -1.063,-0.656c-0.635,-0.604 -0.953,-1.443 -0.953,-2.516v-7.172h-2.14v-1.844h2.14v-3.468h2.032v3.468h3v1.844h-3v6.672c0,0.667 0.13,1.162 0.39,1.484c0.302,0.355 0.74,0.532 1.313,0.532c0.5,0 0.948,-0.136 1.343,-0.407v1.985c-0.239,0.114 -0.484,0.193 -0.734,0.234c-0.24,0.052 -0.552,0.078 -0.937,0.078z" fill="#ffffff"/><path d="M26.584,83.859h2.296l6.532,17.188h-2.235l-1.718,-4.735h-7.454l-1.718,4.735h-2.235zM30.755,94.406l-2.296,-6.203l-0.672,-1.844h-0.11l-0.672,1.844l-2.296,6.203zM41.152,101.234c-0.5,0 -0.964,-0.078 -1.391,-0.234c-0.417,-0.156 -0.771,-0.375 -1.063,-0.656c-0.635,-0.604 -0.953,-1.443 -0.953,-2.516v-7.172h-2.14v-1.844h2.14v-3.468h2.032v3.468h3v1.844h-3v6.672c0,0.667 0.13,1.162 0.39,1.484c0.302,0.355 0.74,0.532 1.313,0.532c0.5,0 0.948,-0.136 1.343,-0.407v1.985c-0.239,0.114 -0.484,0.193 -0.734,0.234c-0.239,0.052 -0.552,0.078 -0.937,0.078z" fill="#ffffff"/><path d="M26.412,130.237c-0.865,0 -1.703,-0.182 -2.516,-0.546c-0.802,-0.365 -1.516,-0.891 -2.141,-1.579c-0.625,-0.697 -1.073,-1.541 -1.343,-2.531l1.937,-0.797c0.281,1.021 0.787,1.86 1.516,2.516c0.739,0.656 1.604,0.984 2.594,0.984c0.989,0 1.828,-0.265 2.515,-0.797c0.688,-0.541 1.031,-1.276 1.031,-2.203c0,-0.802 -0.291,-1.458 -0.875,-1.968c-0.583,-0.521 -1.536,-1.006 -2.859,-1.454l-1.078,-0.39c-1.219,-0.438 -2.214,-1.005 -2.984,-1.703c-0.761,-0.709 -1.141,-1.688 -1.141,-2.938c0,-0.812 0.224,-1.562 0.672,-2.25c0.448,-0.698 1.067,-1.255 1.859,-1.672c0.802,-0.416 1.698,-0.625 2.688,-0.625c1,0 1.864,0.183 2.593,0.547c0.74,0.365 1.329,0.813 1.766,1.344c0.438,0.531 0.745,1.052 0.922,1.562l-1.891,0.813c-0.177,-0.594 -0.552,-1.13 -1.125,-1.609c-0.562,-0.48 -1.307,-0.719 -2.234,-0.719c-0.886,0 -1.641,0.25 -2.266,0.75c-0.614,0.489 -0.922,1.109 -0.922,1.859c0,0.677 0.261,1.229 0.782,1.656c0.531,0.417 1.333,0.813 2.406,1.188l1.125,0.375c1.458,0.531 2.594,1.193 3.406,1.984c0.823,0.792 1.235,1.87 1.235,3.235c0,1.104 -0.287,2.031 -0.86,2.781c-0.562,0.75 -1.276,1.302 -2.14,1.656c-0.865,0.354 -1.756,0.531 -2.672,0.531zM40.243,130.237c-1.187,0 -2.255,-0.281 -3.203,-0.843c-0.937,-0.573 -1.672,-1.349 -2.203,-2.328c-0.531,-0.99 -0.797,-2.105 -0.797,-3.344c0,-1.229 0.266,-2.339 0.797,-3.328c0.531,-0.99 1.266,-1.766 2.203,-2.328c0.948,-0.563 2.016,-0.844 3.203,-0.844c1.323,0 2.438,0.307 3.344,0.922c0.906,0.614 1.552,1.437 1.938,2.468l-1.86,0.766c-0.302,-0.75 -0.755,-1.323 -1.359,-1.719c-0.594,-0.395 -1.318,-0.593 -2.172,-0.593c-0.719,0 -1.391,0.198 -2.016,0.593c-0.614,0.396 -1.114,0.948 -1.5,1.657c-0.375,0.698 -0.562,1.5 -0.562,2.406c0,0.917 0.187,1.729 0.562,2.437c0.386,0.698 0.886,1.245 1.5,1.641c0.625,0.385 1.297,0.578 2.016,0.578c0.865,0 1.609,-0.198 2.234,-0.594c0.625,-0.395 1.089,-0.963 1.391,-1.703l1.828,0.766c-0.417,1.01 -1.083,1.828 -2,2.453c-0.917,0.625 -2.031,0.937 -3.344,0.937zM47.68,117.612h1.938v1.969h0.094c0.239,-0.677 0.703,-1.234 1.39,-1.672c0.688,-0.437 1.412,-0.656 2.172,-0.656c0.552,0 1.031,0.078 1.438,0.234v2.204c-0.511,-0.25 -1.089,-0.375 -1.735,-0.375c-0.593,0 -1.14,0.166 -1.64,0.5c-0.49,0.333 -0.886,0.786 -1.188,1.359c-0.291,0.562 -0.437,1.172 -0.437,1.828v6.844h-2.032zM60.107,130.237c-0.896,0 -1.698,-0.177 -2.407,-0.531c-0.697,-0.354 -1.239,-0.838 -1.625,-1.453c-0.385,-0.614 -0.578,-1.318 -0.578,-2.109c0,-1.292 0.49,-2.302 1.469,-3.032c0.979,-0.729 2.208,-1.093 3.688,-1.093c0.739,0 1.421,0.083 2.046,0.25c0.636,0.156 1.125,0.338 1.469,0.547v-0.75c0,-0.907 -0.323,-1.636 -0.969,-2.188c-0.635,-0.552 -1.442,-0.828 -2.421,-0.828c-0.667,0 -1.292,0.151 -1.875,0.453c-0.584,0.292 -1.047,0.698 -1.391,1.219l-1.531,-1.141c0.479,-0.739 1.14,-1.317 1.984,-1.734c0.854,-0.417 1.792,-0.625 2.813,-0.625c1.666,0 2.968,0.437 3.906,1.312c0.948,0.865 1.422,2.052 1.422,3.563v7.75h-1.938v-1.75h-0.094c-0.354,0.594 -0.885,1.099 -1.593,1.515c-0.698,0.417 -1.49,0.625 -2.375,0.625zM60.294,128.425c0.688,0 1.328,-0.172 1.922,-0.516c0.594,-0.354 1.068,-0.828 1.422,-1.422c0.354,-0.593 0.531,-1.239 0.531,-1.937c-0.385,-0.26 -0.859,-0.469 -1.422,-0.625c-0.562,-0.167 -1.156,-0.25 -1.781,-0.25c-1.115,0 -1.958,0.234 -2.531,0.703c-0.563,0.458 -0.844,1.057 -0.844,1.797c0,0.677 0.255,1.224 0.766,1.641c0.51,0.406 1.156,0.609 1.937,0.609zM73.408,130.034c-0.5,0 -0.964,-0.078 -1.391,-0.234c-0.417,-0.156 -0.771,-0.375 -1.063,-0.656c-0.635,-0.604 -0.953,-1.443 -0.953,-2.516v-7.172h-2.14v-1.844h2.14v-3.468h2.032v3.468h3v1.844h-3v6.672c0,0.667 0.13,1.162 0.39,1.484c0.302,0.355 0.74,0.532 1.313,0.532c0.5,0 0.948,-0.136 1.343,-0.407v1.985c-0.239,0.114 -0.484,0.193 -0.734,0.234c-0.24,0.052 -0.552,0.078 -0.937,0.078zM82.507,130.237c-1.187,0 -2.255,-0.281 -3.203,-0.843c-0.937,-0.573 -1.672,-1.349 -2.203,-2.328c-0.531,-0.99 -0.797,-2.105 -0.797,-3.344c0,-1.229 0.266,-2.339 0.797,-3.328c0.531,-0.99 1.266,-1.766 2.203,-2.328c0.948,-0.563 2.016,-0.844 3.203,-0.844c1.323,0 2.438,0.307 3.344,0.922c0.906,0.614 1.552,1.437 1.937,2.468l-1.859,0.766c-0.302,-0.75 -0.755,-1.323 -1.359,-1.719c-0.594,-0.395 -1.318,-0.593 -2.172,-0.593c-0.719,0 -1.391,0.198 -2.016,0.593c-0.614,0.396 -1.114,0.948 -1.5,1.657c-0.375,0.698 -0.562,1.5 -0.562,2.406c0,0.917 0.187,1.729 0.562,2.437c0.386,0.698 0.886,1.245 1.5,1.641c0.625,0.385 1.297,0.578 2.016,0.578c0.864,0 1.609,-0.198 2.234,-0.594c0.625,-0.395 1.089,-0.963 1.391,-1.703l1.828,0.766c-0.417,1.01 -1.083,1.828 -2,2.453c-0.917,0.625 -2.031,0.937 -3.344,0.937zM90.064,112.659h2.032v5.063l-0.094,1.687h0.094c0.343,-0.625 0.875,-1.145 1.593,-1.562c0.729,-0.417 1.526,-0.625 2.391,-0.625c1.49,0 2.625,0.437 3.406,1.312c0.792,0.865 1.188,2.021 1.188,3.469v7.844h-2.047v-7.531c0,-1.105 -0.281,-1.922 -0.844,-2.454c-0.552,-0.531 -1.276,-0.796 -2.172,-0.796c-0.646,0 -1.239,0.192 -1.781,0.578c-0.531,0.385 -0.953,0.885 -1.266,1.5c-0.312,0.604 -0.468,1.234 -0.468,1.89v6.813h-2.032zM102.73,116.987l1.281,-1.796c-0.344,-0.073 -0.63,-0.23 -0.859,-0.469c-0.23,-0.24 -0.344,-0.542 -0.344,-0.906c0,-0.438 0.146,-0.802 0.437,-1.094c0.302,-0.292 0.662,-0.438 1.078,-0.438c0.428,0 0.787,0.146 1.079,0.438c0.302,0.292 0.453,0.656 0.453,1.094c0,0.26 -0.052,0.51 -0.157,0.75c-0.104,0.239 -0.27,0.526 -0.5,0.859l-1.5,2.187zM111.562,130.237c-1.313,0 -2.412,-0.307 -3.297,-0.921c-0.875,-0.625 -1.495,-1.417 -1.859,-2.375l1.828,-0.813c0.302,0.74 0.75,1.307 1.344,1.703c0.604,0.396 1.265,0.594 1.984,0.594c0.771,0 1.427,-0.156 1.969,-0.469c0.541,-0.312 0.812,-0.755 0.812,-1.328c0,-0.51 -0.219,-0.922 -0.656,-1.234c-0.427,-0.313 -1.104,-0.578 -2.031,-0.797l-1.485,-0.391c-0.979,-0.239 -1.781,-0.646 -2.406,-1.219c-0.615,-0.583 -0.922,-1.328 -0.922,-2.234c0,-0.708 0.209,-1.328 0.625,-1.859c0.427,-0.542 0.99,-0.953 1.688,-1.235c0.708,-0.291 1.468,-0.437 2.281,-0.437c1.073,0 2.031,0.234 2.875,0.703c0.844,0.458 1.437,1.104 1.781,1.937l-1.765,0.813c-0.542,-1.083 -1.511,-1.625 -2.907,-1.625c-0.677,0 -1.265,0.156 -1.765,0.469c-0.5,0.312 -0.75,0.708 -0.75,1.187c0,0.448 0.172,0.813 0.515,1.094c0.354,0.281 0.886,0.505 1.594,0.672l1.781,0.469c1.198,0.302 2.099,0.755 2.703,1.359c0.605,0.594 0.907,1.323 0.907,2.187c0,0.75 -0.214,1.412 -0.641,1.985c-0.427,0.562 -1.01,1 -1.75,1.312c-0.74,0.302 -1.557,0.453 -2.453,0.453z" fill="#ffffff"/><path d="M20.646,141.446c-0.177,-0.25 -0.328,-0.547 -0.453,-0.891c-0.115,-0.354 -0.172,-0.74 -0.172,-1.156c0,-0.542 0.13,-1.063 0.391,-1.563c0.26,-0.5 0.609,-0.922 1.047,-1.265l0.25,0.234c-0.396,0.375 -0.704,0.781 -0.922,1.219c-0.209,0.427 -0.313,0.911 -0.313,1.453c0,0.625 0.167,1.203 0.5,1.734zM22.414,140.805c-0.156,0 -0.302,-0.036 -0.438,-0.109c-0.135,-0.073 -0.244,-0.172 -0.328,-0.297c-0.083,-0.125 -0.125,-0.266 -0.125,-0.422c0,-0.302 0.11,-0.542 0.328,-0.719c0.23,-0.177 0.537,-0.266 0.922,-0.266c0.146,0 0.287,0.016 0.422,0.047c0.136,0.032 0.255,0.078 0.36,0.141l0.031,-0.156c0.01,-0.063 0.015,-0.115 0.015,-0.157c0,-0.166 -0.062,-0.296 -0.187,-0.39c-0.125,-0.094 -0.281,-0.141 -0.469,-0.141c-0.302,0 -0.547,0.12 -0.734,0.36l-0.36,-0.25c0.136,-0.167 0.297,-0.292 0.485,-0.375c0.198,-0.094 0.416,-0.141 0.656,-0.141c0.323,0 0.578,0.078 0.766,0.234c0.187,0.157 0.281,0.37 0.281,0.641c0,0.073 -0.01,0.161 -0.031,0.266l-0.297,1.656h-0.438l0.078,-0.391h-0.031c-0.094,0.146 -0.219,0.261 -0.375,0.344c-0.156,0.083 -0.333,0.125 -0.531,0.125zM22.523,140.414c0.24,0 0.448,-0.078 0.625,-0.234c0.188,-0.167 0.302,-0.375 0.344,-0.625c-0.115,-0.063 -0.229,-0.109 -0.344,-0.141c-0.104,-0.041 -0.239,-0.062 -0.406,-0.062c-0.219,0 -0.401,0.052 -0.547,0.156c-0.135,0.104 -0.203,0.25 -0.203,0.438c0,0.145 0.047,0.26 0.141,0.343c0.104,0.084 0.234,0.125 0.39,0.125zM24.243,140.727zM26.577,140.774c-0.187,0 -0.343,-0.052 -0.468,-0.157c-0.115,-0.114 -0.172,-0.26 -0.172,-0.437c0,-0.083 0.01,-0.172 0.031,-0.266l0.266,-1.5h-0.485l0.078,-0.406h0.469l0.141,-0.766h0.453l-0.141,0.766h0.672l-0.078,0.406h-0.672l-0.25,1.453c-0.01,0.084 -0.016,0.152 -0.016,0.204c0,0.093 0.026,0.166 0.079,0.218c0.052,0.042 0.125,0.063 0.218,0.063c0.115,0 0.224,-0.031 0.328,-0.094l-0.078,0.438c-0.114,0.052 -0.239,0.078 -0.375,0.078zM28.676,140.805c-0.229,0 -0.438,-0.052 -0.625,-0.156c-0.188,-0.115 -0.334,-0.271 -0.438,-0.469c-0.104,-0.198 -0.156,-0.417 -0.156,-0.656c0,-0.302 0.062,-0.573 0.187,-0.813c0.136,-0.239 0.323,-0.427 0.563,-0.562c0.24,-0.146 0.516,-0.219 0.828,-0.219c0.24,0 0.453,0.057 0.641,0.172c0.187,0.104 0.328,0.255 0.422,0.453c0.104,0.198 0.156,0.417 0.156,0.656c0,0.302 -0.068,0.578 -0.203,0.828c-0.125,0.24 -0.308,0.427 -0.547,0.563c-0.24,0.135 -0.516,0.203 -0.828,0.203zM28.738,140.399c0.209,0 0.391,-0.052 0.547,-0.157c0.167,-0.104 0.292,-0.244 0.375,-0.421c0.094,-0.177 0.141,-0.37 0.141,-0.579c0,-0.26 -0.078,-0.473 -0.235,-0.64c-0.145,-0.177 -0.343,-0.266 -0.593,-0.266c-0.209,0 -0.396,0.052 -0.563,0.156c-0.156,0.105 -0.281,0.245 -0.375,0.422c-0.083,0.177 -0.125,0.37 -0.125,0.578c0,0.261 0.073,0.48 0.219,0.657c0.156,0.166 0.359,0.25 0.609,0.25zM31.5,140.774c-0.187,0 -0.343,-0.052 -0.468,-0.157c-0.115,-0.114 -0.172,-0.26 -0.172,-0.437c0,-0.083 0.01,-0.172 0.031,-0.266l0.266,-1.5h-0.485l0.078,-0.406h0.469l0.141,-0.766h0.453l-0.141,0.766h0.672l-0.078,0.406h-0.672l-0.25,1.453c-0.01,0.084 -0.015,0.152 -0.015,0.204c0,0.093 0.026,0.166 0.078,0.218c0.052,0.042 0.125,0.063 0.218,0.063c0.115,0 0.224,-0.031 0.329,-0.094l-0.079,0.438c-0.114,0.052 -0.239,0.078 -0.375,0.078zM33.257,140.805c-0.157,0 -0.303,-0.036 -0.438,-0.109c-0.135,-0.073 -0.245,-0.172 -0.328,-0.297c-0.083,-0.125 -0.125,-0.266 -0.125,-0.422c0,-0.302 0.109,-0.542 0.328,-0.719c0.229,-0.177 0.537,-0.266 0.922,-0.266c0.146,0 0.286,0.016 0.422,0.047c0.135,0.032 0.255,0.078 0.359,0.141l0.031,-0.156c0.011,-0.063 0.016,-0.115 0.016,-0.157c0,-0.166 -0.062,-0.296 -0.187,-0.39c-0.125,-0.094 -0.282,-0.141 -0.469,-0.141c-0.302,0 -0.547,0.12 -0.735,0.36l-0.359,-0.25c0.135,-0.167 0.297,-0.292 0.484,-0.375c0.198,-0.094 0.417,-0.141 0.657,-0.141c0.323,0 0.578,0.078 0.765,0.234c0.188,0.157 0.282,0.37 0.282,0.641c0,0.073 -0.011,0.161 -0.032,0.266l-0.297,1.656h-0.437l0.078,-0.391h-0.031c-0.094,0.146 -0.219,0.261 -0.375,0.344c-0.156,0.083 -0.334,0.125 -0.531,0.125zM33.366,140.414c0.24,0 0.448,-0.078 0.625,-0.234c0.187,-0.167 0.302,-0.375 0.344,-0.625c-0.115,-0.063 -0.229,-0.109 -0.344,-0.141c-0.104,-0.041 -0.24,-0.062 -0.406,-0.062c-0.219,0 -0.401,0.052 -0.547,0.156c-0.136,0.104 -0.203,0.25 -0.203,0.438c0,0.145 0.047,0.26 0.14,0.343c0.104,0.084 0.235,0.125 0.391,0.125zM35.851,136.914h0.454l-0.672,3.813h-0.453zM36.215,140.727zM37.69,138.008h0.453l0.25,2.156h0.016l1.062,-2.156h0.485l0.312,2.141v0l1.016,-2.141h0.469l-1.344,2.719h-0.484l-0.297,-2.172l-1.094,2.172h-0.453zM42.501,140.805c-0.156,0 -0.302,-0.036 -0.438,-0.109c-0.135,-0.073 -0.244,-0.172 -0.328,-0.297c-0.083,-0.125 -0.125,-0.266 -0.125,-0.422c0,-0.302 0.11,-0.542 0.328,-0.719c0.23,-0.177 0.537,-0.266 0.922,-0.266c0.146,0 0.287,0.016 0.422,0.047c0.136,0.032 0.255,0.078 0.36,0.141l0.031,-0.156c0.01,-0.063 0.015,-0.115 0.015,-0.157c0,-0.166 -0.062,-0.296 -0.187,-0.39c-0.125,-0.094 -0.281,-0.141 -0.469,-0.141c-0.302,0 -0.547,0.12 -0.734,0.36l-0.36,-0.25c0.136,-0.167 0.297,-0.292 0.485,-0.375c0.198,-0.094 0.416,-0.141 0.656,-0.141c0.323,0 0.578,0.078 0.766,0.234c0.187,0.157 0.281,0.37 0.281,0.641c0,0.073 -0.011,0.161 -0.031,0.266l-0.297,1.656h-0.438l0.078,-0.391h-0.031c-0.094,0.146 -0.219,0.261 -0.375,0.344c-0.156,0.083 -0.333,0.125 -0.531,0.125zM42.61,140.414c0.24,0 0.448,-0.078 0.625,-0.234c0.188,-0.167 0.302,-0.375 0.344,-0.625c-0.115,-0.063 -0.229,-0.109 -0.344,-0.141c-0.104,-0.041 -0.239,-0.062 -0.406,-0.062c-0.219,0 -0.401,0.052 -0.547,0.156c-0.135,0.104 -0.203,0.25 -0.203,0.438c0,0.145 0.047,0.26 0.141,0.343c0.104,0.084 0.234,0.125 0.39,0.125zM45.413,140.805c-0.281,0 -0.516,-0.068 -0.703,-0.203c-0.188,-0.136 -0.313,-0.313 -0.375,-0.531l0.422,-0.172c0.041,0.156 0.125,0.281 0.25,0.375c0.135,0.093 0.286,0.14 0.453,0.14c0.177,0 0.317,-0.041 0.422,-0.125c0.114,-0.083 0.171,-0.187 0.171,-0.312c0,-0.104 -0.036,-0.193 -0.109,-0.266c-0.073,-0.073 -0.187,-0.13 -0.344,-0.172l-0.281,-0.062c-0.208,-0.063 -0.38,-0.151 -0.516,-0.266c-0.125,-0.125 -0.187,-0.281 -0.187,-0.469c0,-0.156 0.047,-0.296 0.141,-0.421c0.093,-0.125 0.218,-0.219 0.375,-0.282c0.166,-0.073 0.354,-0.109 0.562,-0.109c0.24,0 0.448,0.057 0.625,0.172c0.188,0.104 0.313,0.25 0.375,0.437l-0.437,0.172c-0.042,-0.114 -0.115,-0.203 -0.219,-0.265c-0.104,-0.073 -0.229,-0.11 -0.375,-0.11c-0.167,0 -0.307,0.037 -0.422,0.11c-0.104,0.062 -0.156,0.151 -0.156,0.265c0,0.084 0.031,0.162 0.093,0.235c0.073,0.062 0.178,0.109 0.313,0.14l0.344,0.078c0.218,0.063 0.385,0.162 0.5,0.297c0.125,0.125 0.187,0.281 0.187,0.469c0,0.26 -0.099,0.474 -0.297,0.641c-0.198,0.156 -0.468,0.234 -0.812,0.234zM47.911,140.774c-0.187,0 -0.344,-0.052 -0.469,-0.157c-0.114,-0.114 -0.172,-0.26 -0.172,-0.437c0,-0.083 0.011,-0.172 0.032,-0.266l0.265,-1.5h-0.484l0.078,-0.406h0.469l0.14,-0.766h0.454l-0.141,0.766h0.672l-0.078,0.406h-0.672l-0.25,1.453c-0.011,0.084 -0.016,0.152 -0.016,0.204c0,0.093 0.026,0.166 0.078,0.218c0.052,0.042 0.125,0.063 0.219,0.063c0.115,0 0.224,-0.031 0.328,-0.094l-0.078,0.438c-0.115,0.052 -0.24,0.078 -0.375,0.078zM49.994,140.805c-0.25,0 -0.469,-0.052 -0.656,-0.156c-0.178,-0.115 -0.318,-0.266 -0.422,-0.453c-0.094,-0.198 -0.141,-0.407 -0.141,-0.625c0,-0.292 0.063,-0.563 0.188,-0.813c0.135,-0.25 0.317,-0.448 0.546,-0.594c0.24,-0.156 0.511,-0.234 0.813,-0.234c0.229,0 0.427,0.052 0.594,0.156c0.177,0.094 0.307,0.229 0.39,0.406c0.094,0.178 0.141,0.37 0.141,0.579c0,0.156 -0.016,0.286 -0.047,0.39h-2.156c0,0.063 0,0.115 0,0.156c0,0.157 0.036,0.297 0.109,0.422c0.073,0.115 0.167,0.203 0.281,0.266c0.115,0.062 0.24,0.094 0.375,0.094c0.209,0 0.386,-0.042 0.532,-0.125c0.156,-0.094 0.281,-0.219 0.375,-0.375l0.359,0.187c-0.135,0.24 -0.312,0.422 -0.531,0.547c-0.219,0.115 -0.469,0.172 -0.75,0.172zM50.994,139.086v-0.078c0,-0.114 -0.031,-0.224 -0.094,-0.328c-0.052,-0.104 -0.135,-0.188 -0.25,-0.25c-0.104,-0.063 -0.234,-0.094 -0.391,-0.094c-0.218,0 -0.416,0.073 -0.593,0.219c-0.167,0.135 -0.282,0.312 -0.344,0.531zM51.608,140.727zM54.208,140.805c-0.229,0 -0.437,-0.052 -0.625,-0.156c-0.187,-0.115 -0.333,-0.271 -0.437,-0.469c-0.105,-0.198 -0.157,-0.417 -0.157,-0.656c0,-0.302 0.063,-0.573 0.188,-0.813c0.135,-0.239 0.323,-0.427 0.562,-0.562c0.24,-0.146 0.516,-0.219 0.828,-0.219c0.24,0 0.454,0.057 0.641,0.172c0.188,0.104 0.328,0.255 0.422,0.453c0.104,0.198 0.156,0.417 0.156,0.656c0,0.302 -0.068,0.578 -0.203,0.828c-0.125,0.24 -0.307,0.427 -0.547,0.563c-0.239,0.135 -0.515,0.203 -0.828,0.203zM54.271,140.399c0.208,0 0.39,-0.052 0.546,-0.157c0.167,-0.104 0.292,-0.244 0.375,-0.421c0.094,-0.177 0.141,-0.37 0.141,-0.579c0,-0.26 -0.078,-0.473 -0.234,-0.64c-0.146,-0.177 -0.344,-0.266 -0.594,-0.266c-0.208,0 -0.396,0.052 -0.563,0.156c-0.156,0.105 -0.281,0.245 -0.375,0.422c-0.083,0.177 -0.125,0.37 -0.125,0.578c0,0.261 0.073,0.48 0.219,0.657c0.156,0.166 0.36,0.25 0.61,0.25zM56.72,138.414h-0.515l0.078,-0.406h0.5l0.047,-0.297c0.052,-0.26 0.171,-0.463 0.359,-0.609c0.187,-0.156 0.406,-0.235 0.656,-0.235c0.156,0 0.292,0.021 0.406,0.063l-0.078,0.453c-0.114,-0.062 -0.239,-0.094 -0.375,-0.094c-0.125,0 -0.239,0.042 -0.343,0.125c-0.094,0.084 -0.151,0.198 -0.172,0.344l-0.047,0.25h0.703l-0.078,0.406h-0.703l-0.407,2.313h-0.437zM57.917,140.727zM60.063,140.555l-0.671,-2.547h0.468l0.5,2.016h0.016l1.187,-2.016h0.5l-2.359,3.875h-0.484zM63.159,140.805c-0.229,0 -0.437,-0.052 -0.625,-0.156c-0.187,-0.115 -0.333,-0.271 -0.437,-0.469c-0.104,-0.198 -0.157,-0.417 -0.157,-0.656c0,-0.302 0.063,-0.573 0.188,-0.813c0.135,-0.239 0.323,-0.427 0.562,-0.562c0.24,-0.146 0.516,-0.219 0.829,-0.219c0.239,0 0.453,0.057 0.64,0.172c0.188,0.104 0.328,0.255 0.422,0.453c0.104,0.198 0.156,0.417 0.156,0.656c0,0.302 -0.067,0.578 -0.203,0.828c-0.125,0.24 -0.307,0.427 -0.547,0.563c-0.239,0.135 -0.515,0.203 -0.828,0.203zM63.222,140.399c0.208,0 0.39,-0.052 0.547,-0.157c0.166,-0.104 0.291,-0.244 0.375,-0.421c0.093,-0.177 0.14,-0.37 0.14,-0.579c0,-0.26 -0.078,-0.473 -0.234,-0.64c-0.146,-0.177 -0.344,-0.266 -0.594,-0.266c-0.208,0 -0.396,0.052 -0.562,0.156c-0.157,0.105 -0.282,0.245 -0.375,0.422c-0.084,0.177 -0.125,0.37 -0.125,0.578c0,0.261 0.072,0.48 0.218,0.657c0.157,0.166 0.36,0.25 0.61,0.25zM66.928,140.336c-0.094,0.146 -0.224,0.261 -0.391,0.344c-0.156,0.083 -0.333,0.125 -0.531,0.125c-0.271,0 -0.484,-0.073 -0.641,-0.219c-0.156,-0.146 -0.234,-0.338 -0.234,-0.578c0,-0.114 0.01,-0.239 0.031,-0.375l0.281,-1.625h0.454l-0.282,1.625c-0.021,0.094 -0.031,0.182 -0.031,0.266c0,0.156 0.052,0.281 0.156,0.375c0.104,0.083 0.24,0.125 0.407,0.125c0.229,0 0.427,-0.078 0.593,-0.235c0.167,-0.166 0.276,-0.375 0.328,-0.625l0.266,-1.531h0.453l-0.484,2.719h-0.422l0.078,-0.391zM68.464,138.008h0.422l-0.063,0.406h0.016c0.073,-0.145 0.192,-0.26 0.359,-0.343c0.167,-0.094 0.339,-0.141 0.516,-0.141c0.135,0 0.239,0.016 0.312,0.047l-0.078,0.5c-0.094,-0.063 -0.219,-0.094 -0.375,-0.094c-0.125,0 -0.25,0.042 -0.375,0.125c-0.125,0.073 -0.234,0.172 -0.328,0.297c-0.083,0.125 -0.135,0.26 -0.156,0.406l-0.281,1.516h-0.454zM69.884,140.727zM72.218,140.774c-0.188,0 -0.344,-0.052 -0.469,-0.157c-0.114,-0.114 -0.172,-0.26 -0.172,-0.437c0,-0.083 0.011,-0.172 0.031,-0.266l0.266,-1.5h-0.484l0.078,-0.406h0.469l0.14,-0.766h0.453l-0.14,0.766h0.672l-0.079,0.406h-0.671l-0.25,1.453c-0.011,0.084 -0.016,0.152 -0.016,0.204c0,0.093 0.026,0.166 0.078,0.218c0.052,0.042 0.125,0.063 0.219,0.063c0.114,0 0.224,-0.031 0.328,-0.094l-0.078,0.438c-0.115,0.052 -0.24,0.078 -0.375,0.078zM74.038,137.508c-0.083,0 -0.156,-0.031 -0.218,-0.094c-0.063,-0.062 -0.094,-0.14 -0.094,-0.234c0,-0.094 0.031,-0.172 0.094,-0.234c0.062,-0.063 0.135,-0.094 0.218,-0.094c0.094,0 0.172,0.031 0.235,0.094c0.062,0.062 0.094,0.14 0.094,0.234c0,0.094 -0.032,0.172 -0.094,0.234c-0.063,0.063 -0.141,0.094 -0.235,0.094zM73.663,138.008h0.454l-0.469,2.719h-0.453zM75.258,138.008l-0.062,0.406h0.015c0.104,-0.156 0.229,-0.276 0.375,-0.359c0.157,-0.083 0.334,-0.125 0.532,-0.125c0.197,0 0.359,0.047 0.484,0.141c0.135,0.083 0.229,0.208 0.281,0.375c0.094,-0.157 0.229,-0.282 0.406,-0.375c0.178,-0.094 0.375,-0.141 0.594,-0.141c0.261,0 0.464,0.068 0.61,0.203c0.145,0.136 0.218,0.313 0.218,0.531c0,0.105 -0.015,0.245 -0.047,0.422l-0.296,1.641h-0.438l0.281,-1.672c0.021,-0.104 0.032,-0.193 0.032,-0.266c0,-0.145 -0.047,-0.255 -0.141,-0.328c-0.083,-0.083 -0.208,-0.125 -0.375,-0.125c-0.219,0 -0.406,0.089 -0.563,0.266c-0.156,0.167 -0.26,0.38 -0.312,0.64l-0.266,1.485h-0.453l0.297,-1.672c0.021,-0.104 0.031,-0.188 0.031,-0.25c0,-0.146 -0.047,-0.26 -0.14,-0.344c-0.094,-0.083 -0.219,-0.125 -0.375,-0.125c-0.219,0 -0.412,0.089 -0.578,0.266c-0.157,0.177 -0.256,0.39 -0.297,0.64l-0.266,1.485h-0.453l0.484,-2.719zM80.316,140.805c-0.25,0 -0.468,-0.052 -0.656,-0.156c-0.177,-0.115 -0.318,-0.266 -0.422,-0.453c-0.094,-0.198 -0.14,-0.407 -0.14,-0.625c0,-0.292 0.062,-0.563 0.187,-0.813c0.135,-0.25 0.318,-0.448 0.547,-0.594c0.24,-0.156 0.51,-0.234 0.812,-0.234c0.23,0 0.428,0.052 0.594,0.156c0.177,0.094 0.307,0.229 0.391,0.406c0.094,0.178 0.14,0.37 0.14,0.579c0,0.156 -0.015,0.286 -0.046,0.39h-2.157c0,0.063 0,0.115 0,0.156c0,0.157 0.037,0.297 0.11,0.422c0.073,0.115 0.166,0.203 0.281,0.266c0.115,0.062 0.24,0.094 0.375,0.094c0.208,0 0.385,-0.042 0.531,-0.125c0.156,-0.094 0.281,-0.219 0.375,-0.375l0.36,0.187c-0.136,0.24 -0.313,0.422 -0.532,0.547c-0.218,0.115 -0.468,0.172 -0.75,0.172zM81.316,139.086v-0.078c0,-0.114 -0.031,-0.224 -0.093,-0.328c-0.053,-0.104 -0.136,-0.188 -0.25,-0.25c-0.105,-0.063 -0.235,-0.094 -0.391,-0.094c-0.219,0 -0.417,0.073 -0.594,0.219c-0.166,0.135 -0.281,0.312 -0.344,0.531zM82.54,138.211l0.235,-1.297h0.437l-0.219,1.297l-0.297,1.391h-0.359zM82.384,140.758c-0.104,0 -0.188,-0.031 -0.25,-0.094c-0.063,-0.073 -0.094,-0.156 -0.094,-0.25c0,-0.093 0.031,-0.172 0.094,-0.234c0.062,-0.063 0.146,-0.094 0.25,-0.094c0.094,0 0.172,0.031 0.234,0.094c0.063,0.062 0.094,0.141 0.094,0.234c0,0.094 -0.031,0.177 -0.094,0.25c-0.062,0.063 -0.14,0.094 -0.234,0.094zM82.996,141.211c0.406,-0.364 0.713,-0.765 0.922,-1.203c0.208,-0.437 0.312,-0.922 0.312,-1.453c0,-0.635 -0.167,-1.219 -0.5,-1.75l0.328,-0.234c0.177,0.25 0.323,0.552 0.438,0.906c0.125,0.354 0.187,0.739 0.187,1.156c0,0.542 -0.13,1.063 -0.39,1.563c-0.261,0.5 -0.605,0.916 -1.032,1.25z" fill="#b7b7b7"/><path d="M388.206,330.171h1.375l2.594,7.609l0.359,1.047h0.062l0.36,-1.047l2.719,-7.609h1.375l-3.844,10.5h-1.281zM400.621,340.905c-0.709,0 -1.349,-0.171 -1.922,-0.515c-0.563,-0.344 -1.005,-0.813 -1.328,-1.406c-0.313,-0.605 -0.469,-1.282 -0.469,-2.032c0,-0.718 0.146,-1.38 0.437,-1.984c0.303,-0.615 0.73,-1.099 1.282,-1.453c0.552,-0.365 1.182,-0.547 1.89,-0.547c0.74,0 1.375,0.161 1.907,0.484c0.541,0.323 0.953,0.776 1.234,1.36c0.292,0.573 0.437,1.229 0.437,1.968c0,0.125 -0.01,0.256 -0.031,0.391h-5.922c0.032,0.563 0.167,1.042 0.407,1.438c0.25,0.385 0.562,0.677 0.937,0.875c0.375,0.197 0.771,0.296 1.188,0.296c0.979,0 1.713,-0.453 2.203,-1.359l1.062,0.516c-0.312,0.604 -0.75,1.083 -1.312,1.437c-0.552,0.354 -1.219,0.531 -2,0.531zM402.777,336.14c-0.021,-0.313 -0.109,-0.625 -0.266,-0.938c-0.156,-0.312 -0.401,-0.573 -0.734,-0.781c-0.333,-0.219 -0.755,-0.328 -1.266,-0.328c-0.583,0 -1.083,0.187 -1.5,0.562c-0.406,0.375 -0.672,0.87 -0.797,1.485zM405.544,333.202h1.188v1.203h0.062c0.146,-0.416 0.427,-0.755 0.844,-1.015c0.427,-0.271 0.87,-0.406 1.328,-0.406c0.333,0 0.625,0.046 0.875,0.14v1.344c-0.313,-0.156 -0.667,-0.234 -1.063,-0.234c-0.354,0 -0.682,0.104 -0.984,0.312c-0.302,0.208 -0.547,0.484 -0.734,0.828c-0.177,0.344 -0.266,0.719 -0.266,1.125v4.172h-1.25zM413.356,340.905c-0.802,0 -1.474,-0.187 -2.015,-0.562c-0.532,-0.375 -0.912,-0.854 -1.141,-1.438l1.125,-0.5c0.177,0.448 0.448,0.797 0.813,1.047c0.375,0.24 0.781,0.36 1.218,0.36c0.469,0 0.87,-0.094 1.203,-0.282c0.334,-0.197 0.5,-0.474 0.5,-0.828c0,-0.312 -0.135,-0.562 -0.406,-0.75c-0.26,-0.187 -0.672,-0.349 -1.234,-0.484l-0.906,-0.234c-0.605,-0.157 -1.099,-0.407 -1.485,-0.75c-0.375,-0.355 -0.562,-0.813 -0.562,-1.375c0,-0.428 0.13,-0.803 0.39,-1.125c0.261,-0.334 0.604,-0.584 1.032,-0.75c0.437,-0.178 0.901,-0.266 1.39,-0.266c0.656,0 1.24,0.141 1.75,0.422c0.521,0.281 0.886,0.677 1.094,1.187l-1.078,0.5c-0.334,-0.666 -0.927,-1 -1.781,-1c-0.407,0 -0.766,0.094 -1.079,0.282c-0.302,0.187 -0.453,0.432 -0.453,0.734c0,0.271 0.104,0.495 0.313,0.672c0.219,0.166 0.541,0.302 0.969,0.406l1.093,0.281c0.729,0.188 1.282,0.464 1.657,0.828c0.375,0.365 0.562,0.813 0.562,1.344c0,0.459 -0.135,0.86 -0.406,1.203c-0.261,0.344 -0.615,0.61 -1.063,0.797c-0.448,0.188 -0.948,0.281 -1.5,0.281zM418.34,331.812c-0.239,0 -0.448,-0.084 -0.625,-0.25c-0.177,-0.177 -0.265,-0.391 -0.265,-0.641c0,-0.25 0.088,-0.458 0.265,-0.625c0.177,-0.177 0.386,-0.266 0.625,-0.266c0.25,0 0.459,0.089 0.625,0.266c0.177,0.167 0.266,0.375 0.266,0.625c0,0.25 -0.089,0.464 -0.266,0.641c-0.166,0.166 -0.375,0.25 -0.625,0.25zM417.731,333.202h1.234v7.469h-1.234zM424.298,340.905c-0.739,0 -1.401,-0.177 -1.984,-0.531c-0.584,-0.354 -1.042,-0.833 -1.375,-1.437c-0.323,-0.604 -0.485,-1.271 -0.485,-2c0,-0.74 0.162,-1.412 0.485,-2.016c0.333,-0.604 0.791,-1.078 1.375,-1.422c0.583,-0.354 1.245,-0.531 1.984,-0.531c0.729,0 1.386,0.177 1.969,0.531c0.583,0.344 1.036,0.818 1.359,1.422c0.334,0.604 0.5,1.276 0.5,2.016c0,0.729 -0.166,1.396 -0.5,2c-0.323,0.604 -0.776,1.083 -1.359,1.437c-0.583,0.354 -1.24,0.531 -1.969,0.531zM424.298,339.78c0.458,0 0.886,-0.114 1.281,-0.343c0.396,-0.229 0.714,-0.558 0.953,-0.985c0.24,-0.437 0.36,-0.942 0.36,-1.515c0,-0.584 -0.12,-1.089 -0.36,-1.516c-0.239,-0.427 -0.557,-0.755 -0.953,-0.984c-0.395,-0.229 -0.823,-0.344 -1.281,-0.344c-0.469,0 -0.901,0.115 -1.297,0.344c-0.396,0.229 -0.713,0.557 -0.953,0.984c-0.239,0.427 -0.359,0.932 -0.359,1.516c0,0.573 0.12,1.078 0.359,1.515c0.24,0.427 0.557,0.756 0.953,0.985c0.396,0.229 0.828,0.343 1.297,0.343zM429.433,333.202h1.188v1.094h0.062c0.209,-0.375 0.537,-0.687 0.985,-0.937c0.448,-0.261 0.927,-0.391 1.437,-0.391c0.896,0 1.578,0.26 2.047,0.781c0.479,0.521 0.719,1.229 0.719,2.125v4.797h-1.25v-4.609c0,-0.688 -0.167,-1.188 -0.5,-1.5c-0.333,-0.313 -0.786,-0.469 -1.359,-0.469c-0.396,0 -0.756,0.115 -1.079,0.344c-0.312,0.218 -0.557,0.51 -0.734,0.875c-0.177,0.364 -0.266,0.75 -0.266,1.156v4.203h-1.25zM436.734,340.671zM440.79,339.421c1.917,-1.927 3.146,-3.182 3.688,-3.766c0.489,-0.531 0.823,-0.947 1,-1.25c0.177,-0.312 0.265,-0.682 0.265,-1.109c0,-0.281 -0.073,-0.552 -0.218,-0.812c-0.146,-0.271 -0.365,-0.485 -0.657,-0.641c-0.281,-0.167 -0.625,-0.25 -1.031,-0.25c-0.521,0 -0.943,0.156 -1.265,0.469c-0.323,0.302 -0.537,0.635 -0.641,1l-1.125,-0.453c0.094,-0.313 0.266,-0.636 0.516,-0.969c0.25,-0.344 0.588,-0.636 1.015,-0.875c0.438,-0.24 0.948,-0.36 1.531,-0.36c0.615,0 1.157,0.136 1.625,0.407c0.48,0.26 0.849,0.609 1.11,1.047c0.271,0.437 0.406,0.911 0.406,1.421c0,1.032 -0.536,2.094 -1.609,3.188l-3.016,3.016h4.734v1.187h-6.328zM449.593,340.765c-0.271,0 -0.495,-0.089 -0.672,-0.266c-0.177,-0.187 -0.265,-0.411 -0.265,-0.672c0,-0.26 0.088,-0.479 0.265,-0.656c0.177,-0.177 0.401,-0.266 0.672,-0.266c0.261,0 0.479,0.089 0.657,0.266c0.187,0.177 0.281,0.396 0.281,0.656c0,0.261 -0.094,0.485 -0.281,0.672c-0.178,0.177 -0.396,0.266 -0.657,0.266zM456.05,340.905c-0.791,0 -1.495,-0.229 -2.109,-0.687c-0.604,-0.469 -1.073,-1.099 -1.406,-1.891c-0.323,-0.802 -0.485,-1.692 -0.485,-2.672c0,-0.979 0.162,-1.864 0.485,-2.656c0.333,-0.791 0.802,-1.422 1.406,-1.89c0.604,-0.469 1.307,-0.704 2.109,-0.704c0.802,0 1.505,0.235 2.11,0.704c0.604,0.468 1.072,1.099 1.406,1.89c0.333,0.792 0.5,1.677 0.5,2.656c0,0.98 -0.167,1.87 -0.5,2.672c-0.334,0.792 -0.807,1.422 -1.422,1.891c-0.604,0.458 -1.302,0.687 -2.094,0.687zM456.05,339.718c0.563,0 1.047,-0.177 1.453,-0.531c0.407,-0.354 0.719,-0.839 0.938,-1.453c0.229,-0.625 0.344,-1.318 0.344,-2.079c0,-0.76 -0.115,-1.447 -0.344,-2.062c-0.219,-0.615 -0.531,-1.099 -0.938,-1.453c-0.406,-0.365 -0.89,-0.547 -1.453,-0.547c-0.552,0 -1.036,0.182 -1.453,0.547c-0.406,0.354 -0.719,0.838 -0.937,1.453c-0.219,0.615 -0.329,1.302 -0.329,2.062c0,0.761 0.11,1.454 0.329,2.079c0.218,0.614 0.531,1.099 0.937,1.453c0.417,0.354 0.901,0.531 1.453,0.531z" fill="#ffffff"/></g></g></svg>