<svg version="1.1" xmlns="http://www.w3.org/2000/svg" xmlns:xlink="http://www.w3.org/1999/xlink" width="299.40523" height="54.43132" viewBox="0,0,299.40523,54.43132"><g transform="translate(-91.04371,-288.88667)"><g data-paper-data="{&quot;isPaintingLayer&quot;:true}" fill="#ffffff" fill-rule="nonzero" stroke="none" stroke-width="1" stroke-linecap="square" stroke-linejoin="miter" stroke-miterlimit="10" stroke-dasharray="" stroke-dashoffset="0" style="mix-blend-mode: normal"><path d="M98.63653,343.29182c-1.3702,0.11466 -2.42171,-0.1475 -3.15454,-0.7865c-0.72331,-0.65027 -1.12875,-1.49961 -1.21634,-2.54803c-0.04336,-0.51904 -0.02269,-1.02252 0.06198,-1.51044c0.13654,-0.74316 0.34873,-1.5815 0.6366,-2.51501c0.28701,-0.94389 0.63412,-1.91895 1.04135,-2.92517c-0.93984,2.26335 -1.80449,4.17546 -2.59396,5.73633c-0.77909,1.56002 -1.38874,2.58319 -1.82895,3.06952c-0.08563,0.10124 -0.18035,0.15621 -0.28415,0.16492c-0.1557,0.01302 -0.24005,-0.05833 -0.25305,-0.21405c-0.01042,-0.12455 0.02545,-0.25822 0.1076,-0.401c0.60016,-0.94918 1.27117,-2.23879 2.01303,-3.86884c0.7514,-1.64132 1.53952,-3.46863 2.36435,-5.48193c0.82485,-2.01335 1.66353,-4.04873 2.51605,-6.10614c0.86289,-2.05831 1.70376,-4.00503 2.52258,-5.84015c0.8292,-1.83598 1.59272,-3.39467 2.29056,-4.67609c0.49894,-0.90938 0.98756,-1.56702 1.46585,-1.9729c0.48779,-0.41711 1.00159,-0.64827 1.54138,-0.69348l0.23355,-0.01953c0.29065,-0.02433 0.62197,0.0002 0.99396,0.07361c0.37111,0.06303 0.71497,0.04993 1.03156,-0.03931c-0.37793,0.48112 -0.94523,1.32304 -1.7019,2.52576c-0.7463,1.20186 -1.57515,2.604 -2.48657,4.20642c-0.90106,1.60156 -1.8008,3.28141 -2.69922,5.03955c-0.89844,1.75818 -1.68052,3.47001 -2.34625,5.1355c-0.63031,1.58936 -1.16846,3.28076 -1.61444,5.07422c-0.44688,1.78304 -0.61568,3.32853 -0.50641,4.63647c0.06417,0.76819 0.24207,1.39618 0.53369,1.88397c0.30198,0.4869 0.75921,0.76744 1.37167,0.84161c1.04675,0.14237 2.34628,-0.88104 3.89859,-3.07025c0.59757,-0.8549 1.18257,-1.86031 1.75497,-3.01624c0.5828,-1.15682 1.02636,-2.2288 1.33066,-3.21594c0.43313,-1.32198 0.6059,-2.50718 0.51831,-3.5556c-0.06677,-0.79932 -0.32252,-1.42078 -0.76724,-1.86438c-0.43435,-0.4445 -1.10954,-0.58138 -2.02557,-0.41064l-0.18686,0.01569c-0.57092,0.04777 -0.86939,-0.08405 -0.89542,-0.39545c-0.01127,-0.13497 0.06613,-0.27212 0.23221,-0.41144c0.16606,-0.13936 0.40479,-0.22207 0.71619,-0.24811c0.1038,-0.00871 0.20848,-0.00702 0.31403,0.00507c0.11505,0.00081 0.23616,0.01158 0.36331,0.03229c1.46108,0.09725 2.5373,0.59255 3.22867,1.4859c0.70172,0.8925 1.10288,1.94082 1.20349,3.14496c0.02167,0.25952 0.0295,0.5411 0.0235,0.84473c-0.00598,0.30363 -0.02537,0.63452 -0.05817,0.99268c-0.15025,1.32967 -0.53708,2.70528 -1.16049,4.12683c-0.61389,1.41028 -1.41251,2.67399 -2.39584,3.79114c-0.98419,1.10677 -2.11595,1.88619 -3.39526,2.33826c-0.5285,0.18009 -1.02371,0.32084 -1.48563,0.42224c-0.45154,0.1005 -0.86934,0.16683 -1.25342,0.19897zM115.19955,342.04665c-1.18337,0.09904 -2.27901,-0.1908 -3.28693,-0.86951c-0.99841,-0.68998 -1.56309,-1.81868 -1.69403,-3.38611c-0.11967,-1.43254 0.09974,-2.99797 0.65823,-4.69629c0.56885,-1.69922 1.34621,-3.21726 2.33209,-4.55414c0.8328,-1.16728 1.79108,-2.14644 2.87482,-2.9375c1.09324,-0.80233 2.14851,-1.24605 3.1658,-1.33118c0.70585,-0.05908 1.32914,0.08211 1.86987,0.42358c0.57446,0.37008 0.89378,0.93919 0.95795,1.70734c0.06677,0.79928 -0.16098,1.70162 -0.68326,2.70703c-0.52228,1.00541 -1.30928,1.97026 -2.36099,2.89453c-0.44802,0.3929 -1.02709,0.78109 -1.73721,1.16455c-0.7006,0.37223 -1.41074,0.69299 -2.1304,0.96228c-0.71967,0.26933 -1.31825,0.42397 -1.79575,0.46393c-0.12362,0.39709 -0.23121,0.92352 -0.32278,1.57928c-0.09243,0.64539 -0.11089,1.30025 -0.05539,1.9646c0.06677,0.79932 0.28793,1.5073 0.66348,2.12396c0.37469,0.60624 0.99283,0.87331 1.8544,0.80121c1.04842,-0.08773 1.97827,-0.46869 2.78955,-1.14288c0.8104,-0.68457 1.51006,-1.50621 2.09897,-2.4649c0.59841,-0.96997 1.08739,-1.93599 1.46695,-2.89807c0.38993,-0.96297 0.70335,-1.77842 0.94025,-2.44635c0.14956,-0.462 0.38522,-0.70646 0.707,-0.7334c0.15572,-0.01302 0.24052,0.06352 0.25439,0.22961c0.0104,0.12455 -0.02332,0.28416 -0.10114,0.47882c-0.3657,1.00277 -0.75821,2.06002 -1.17752,3.17175c-0.42021,1.1014 -0.94379,2.15395 -1.57074,3.15765c-0.61656,1.00285 -1.38887,1.83057 -2.31693,2.48315c-0.92808,0.65259 -2.06165,1.03493 -3.4007,1.14703zM113.64077,333.7101c0.44635,-0.03735 1.17986,-0.26599 2.20053,-0.68591c1.03017,-0.43119 1.94526,-1.05135 2.74527,-1.86047c0.75934,-0.79529 1.32576,-1.64758 1.69928,-2.55688c0.37266,-0.91972 0.53341,-1.68579 0.48224,-2.29822c-0.05811,-0.69552 -0.34147,-1.02199 -0.8501,-0.97943c-0.38407,0.03215 -0.89223,0.33079 -1.52448,0.89594c-0.62185,0.56425 -1.37511,1.49489 -2.2598,2.79193c-0.53788,0.81856 -1.04462,1.69722 -1.5202,2.63599c-0.46521,0.93791 -0.78946,1.6236 -0.97275,2.05707zM126.00323,340.95424c-0.8927,0.07471 -1.718,-0.16982 -2.47589,-0.73358c-0.75789,-0.56372 -1.19277,-1.51514 -1.30463,-2.85425c-0.08759,-1.04842 0.00124,-2.36249 0.26648,-3.9422c0.27563,-1.58057 0.63949,-3.23124 1.09155,-4.95203c0.45119,-1.7312 0.90502,-3.30581 1.36148,-4.72382l-2.53799,0.21246c-0.218,0.01823 -0.34043,-0.13354 -0.36731,-0.45532c-0.013,-0.15572 0.01163,-0.29891 0.07388,-0.42957c0.07176,-0.14189 0.19068,-0.21979 0.35678,-0.2337l2.86499,-0.23975c0.43919,-1.24935 0.91212,-2.47013 1.41879,-3.66235c0.51617,-1.20353 1.01679,-2.34302 1.50186,-3.41846c0.63035,-1.3385 1.3343,-2.35911 2.11185,-3.06183c0.77753,-0.70272 1.46732,-1.07926 2.06937,-1.12964c0.4775,-0.03996 0.88714,0.10868 1.22891,0.44592c0.35213,0.33639 0.55898,0.87309 0.62054,1.61011c0.03729,0.44637 -0.00496,1.06663 -0.12677,1.86078c-0.12181,0.79419 -0.35433,1.63945 -0.69757,2.53577c-0.19108,0.46549 -0.45436,1.13041 -0.78983,1.99475c-0.32507,0.86344 -0.6532,1.62785 -0.98437,2.29321l2.30444,-0.19287c0.21798,-0.01827 0.3404,0.1335 0.36728,0.45532c0.01129,0.13493 -0.00814,0.27767 -0.05829,0.42822c-0.05101,0.14014 -0.13879,0.21543 -0.26337,0.22589l-2.81827,0.23584c-0.68481,1.43713 -1.48642,2.85268 -2.40482,4.24664c-0.90802,1.39311 -2.00808,2.80227 -3.30017,4.22748c-0.06913,0.2985 -0.15382,0.72371 -0.25406,1.27563c-0.10024,0.55196 -0.18403,1.113 -0.25137,1.68311c-0.05699,0.56921 -0.11096,1.04934 -0.16193,1.44037c-0.05182,0.38066 -0.07773,0.57098 -0.07773,0.57098c-0.05874,0.42305 -0.07336,0.81106 -0.04388,1.164c0.05638,0.67472 0.25284,1.14958 0.58939,1.42456c0.34694,0.27409 0.72803,0.39376 1.14325,0.35901c0.2595,-0.02173 0.51078,-0.07935 0.75385,-0.17285c0.25256,-0.10478 0.5302,-0.28481 0.83292,-0.5401c1.04393,-0.89229 1.92907,-2.05874 2.65543,-3.49933c0.73671,-1.44145 1.37354,-2.82751 1.91046,-4.1582c0.15476,-0.3997 0.33076,-0.60781 0.52798,-0.62433c0.12457,-0.01042 0.19509,0.08299 0.21155,0.28021c0.00781,0.09342 -0.02415,0.2738 -0.09589,0.54114c-0.5836,1.52271 -1.07686,2.75041 -1.4798,3.68311c-0.40291,0.9327 -0.80284,1.71356 -1.19977,2.34259c-0.39693,0.62907 -0.87777,1.2547 -1.4425,1.87689c-0.40908,0.48372 -0.88954,0.86367 -1.44138,1.13983c-0.55271,0.26575 -1.11453,0.42253 -1.68546,0.47034zM128.24426,322.35878l2.44458,-0.20465c0.37785,-0.85742 0.73061,-1.70229 1.05829,-2.53461c0.33807,-0.83317 0.62943,-1.66243 0.87405,-2.48779c0.18587,-0.52775 0.33022,-1.11475 0.43304,-1.76099c0.11233,-0.65751 0.15374,-1.16274 0.12424,-1.51569c-0.03988,-0.4775 -0.174,-0.70669 -0.40237,-0.68756c-0.1557,0.01302 -0.37755,0.17271 -0.66556,0.47906c-0.27848,0.29508 -0.61445,0.77791 -1.0079,1.44849c-0.50415,0.84709 -0.98404,1.9221 -1.43967,3.22504c-0.44523,1.30208 -0.91813,2.64832 -1.4187,4.0387zM125.77398,330.13881c0.84408,-1.03235 1.62585,-2.12219 2.34534,-3.26953c0.71861,-1.15771 1.38272,-2.34224 1.99234,-3.55359l-2.24216,0.18768c-0.42017,1.22681 -0.8066,2.41945 -1.1593,3.57794c-0.35358,1.14807 -0.66565,2.16724 -0.93622,3.0575zM135.61767,340.14949c-0.89272,0.07471 -1.71803,-0.1698 -2.47592,-0.73352c-0.75789,-0.56376 -1.19277,-1.51518 -1.30463,-2.85425c-0.08759,-1.04846 0.00125,-2.36255 0.26651,-3.94226c0.27561,-1.58057 0.63946,-3.23124 1.09152,-4.95203c0.45121,-1.73116 0.90504,-3.30575 1.36148,-4.72375l-2.53799,0.2124c-0.21798,0.01827 -0.34041,-0.1335 -0.36731,-0.45532c-0.013,-0.15568 0.01163,-0.29885 0.07388,-0.4295c0.07178,-0.14193 0.1907,-0.21983 0.35678,-0.2337l2.86499,-0.23981c0.43919,-1.24931 0.91212,-2.47009 1.41879,-3.66235c0.51619,-1.20349 1.01683,-2.34296 1.50189,-3.4184c0.63035,-1.3385 1.33429,-2.35911 2.11182,-3.06183c0.77753,-0.70272 1.46733,-1.07928 2.0694,-1.1297c0.4775,-0.03996 0.88713,0.1087 1.22888,0.44598c0.35213,0.33639 0.55899,0.87307 0.62057,1.61005c0.03727,0.44637 -0.00499,1.06665 -0.1268,1.86084c-0.12181,0.79419 -0.35433,1.63945 -0.69757,2.53577c-0.19108,0.46549 -0.45436,1.13039 -0.78983,1.99469c-0.32507,0.86344 -0.6532,1.62785 -0.98437,2.29321l2.30444,-0.19287c0.218,-0.01823 0.34043,0.13354 0.36731,0.45532c0.01127,0.13497 -0.00817,0.27771 -0.05832,0.42822c-0.05101,0.14018 -0.13878,0.21547 -0.26334,0.22589l-2.8183,0.2359c-0.68481,1.43713 -1.48642,2.85268 -2.40482,4.24664c-0.90802,1.39307 -2.00807,2.80223 -3.30014,4.22748c-0.06915,0.29846 -0.15385,0.72367 -0.25409,1.27563c-0.10022,0.55196 -0.18401,1.11298 -0.25137,1.68304c-0.05699,0.56925 -0.11095,1.0494 -0.1619,1.44043c-0.05184,0.38066 -0.07776,0.57098 -0.07776,0.57098c-0.05874,0.42301 -0.07335,0.81099 -0.04385,1.16394c0.05636,0.67472 0.25282,1.14958 0.58939,1.42456c0.34692,0.27409 0.728,0.39376 1.14322,0.35901c0.2595,-0.02173 0.51078,-0.07935 0.75385,-0.17285c0.25258,-0.10474 0.53023,-0.28477 0.83295,-0.5401c1.04393,-0.89225 1.92906,-2.05868 2.6554,-3.49927c0.73674,-1.44149 1.37356,-2.82758 1.91046,-4.15826c0.15476,-0.3997 0.33076,-0.60781 0.52798,-0.62433c0.12457,-0.01042 0.1951,0.08299 0.21158,0.28021c0.00779,0.09342 -0.02418,0.2738 -0.09592,0.54114c-0.5836,1.52275 -1.07685,2.75047 -1.47977,3.68317c-0.40293,0.93266 -0.80286,1.71352 -1.19977,2.34259c-0.39693,0.62903 -0.87778,1.25464 -1.44254,1.87683c-0.40906,0.48372 -0.88951,0.86367 -1.44135,1.13983c-0.55271,0.26579 -1.11453,0.42257 -1.68546,0.47034zM137.85867,321.55403l2.44458,-0.20459c0.37785,-0.85742 0.73062,-1.70229 1.05832,-2.53461c0.33805,-0.83317 0.6294,-1.66246 0.87405,-2.48785c0.18587,-0.52775 0.33021,-1.11475 0.43301,-1.76099c0.11233,-0.65747 0.15375,-1.16268 0.12427,-1.51562c-0.0399,-0.4775 -0.17403,-0.70671 -0.4024,-0.68762c-0.1557,0.01306 -0.37754,0.17275 -0.66553,0.47906c-0.2785,0.29508 -0.61448,0.77791 -1.00793,1.44849c-0.50415,0.84709 -0.98403,1.92212 -1.43964,3.2251c-0.44523,1.30208 -0.91814,2.6483 -1.41873,4.03864zM135.38839,329.33406c0.84408,-1.03235 1.62585,-2.12219 2.34534,-3.26953c0.71863,-1.15771 1.38274,-2.34222 1.99234,-3.55353l-2.24216,0.18768c-0.42017,1.22681 -0.8066,2.41943 -1.1593,3.57788c-0.35358,1.14807 -0.66565,2.16724 -0.93622,3.0575zM146.29089,339.44429c-1.18335,0.09908 -2.27898,-0.19073 -3.2869,-0.86945c-0.99841,-0.68998 -1.56309,-1.81871 -1.69403,-3.38617c-0.11967,-1.4325 0.09973,-2.9979 0.6582,-4.69623c0.56887,-1.69922 1.34624,-3.21726 2.33212,-4.55414c0.83278,-1.16728 1.79105,-2.14646 2.87479,-2.93756c1.09326,-0.80229 2.14853,-1.24601 3.1658,-1.33118c0.70587,-0.05908 1.32917,0.08213 1.8699,0.42365c0.57446,0.37004 0.89378,0.93915 0.95795,1.70734c0.06677,0.79928 -0.16099,1.70162 -0.68329,2.70703c-0.52228,1.00537 -1.30927,1.97019 -2.36096,2.89447c-0.44802,0.3929 -1.02709,0.78111 -1.73721,1.16461c-0.70062,0.37223 -1.41077,0.69299 -2.13043,0.96228c-0.71965,0.26929 -1.31822,0.42393 -1.79572,0.46393c-0.12364,0.39709 -0.23123,0.92352 -0.32278,1.57928c-0.09243,0.64539 -0.11089,1.30025 -0.05539,1.9646c0.06677,0.79928 0.28793,1.50724 0.66348,2.1239c0.37469,0.60628 0.99283,0.87337 1.8544,0.80127c1.0484,-0.08777 1.97824,-0.46873 2.78952,-1.14288c0.8104,-0.68457 1.51006,-1.50621 2.09897,-2.4649c0.59841,-0.96997 1.08739,-1.93601 1.46695,-2.89813c0.38995,-0.96293 0.70337,-1.77836 0.94025,-2.44629c0.14956,-0.462 0.38523,-0.70646 0.70703,-0.7334c0.1557,-0.01302 0.24049,0.0635 0.25436,0.22955c0.01042,0.12459 -0.02328,0.28422 -0.1011,0.47888c-0.3657,1.00273 -0.75822,2.05998 -1.17755,3.17175c-0.42019,1.1014 -0.94376,2.15395 -1.57071,3.15765c-0.61658,1.00285 -1.3889,1.83057 -2.31696,2.48315c-0.92806,0.65259 -2.06163,1.03491 -3.4007,1.14697zM144.73211,331.1078c0.44635,-0.03735 1.17986,-0.26601 2.20053,-0.68597c1.03019,-0.43115 1.94529,-1.05129 2.7453,-1.86041c0.75934,-0.79529 1.32576,-1.64758 1.69928,-2.55688c0.37264,-0.91972 0.53339,-1.68581 0.48224,-2.29828c-0.05811,-0.69548 -0.34148,-1.02193 -0.85013,-0.97937c-0.38407,0.03215 -0.89222,0.33077 -1.52444,0.89587c-0.62185,0.56429 -1.37511,1.49495 -2.2598,2.79199c-0.5379,0.81856 -1.04464,1.69722 -1.5202,2.63599c-0.46521,0.93791 -0.78947,1.6236 -0.97278,2.05707zM160.44616,338.11842c-0.61243,0.05127 -1.24524,-0.14142 -1.89844,-0.57806c-0.6437,-0.44788 -1.01237,-1.23236 -1.10602,-2.35345c-0.07198,-0.86157 0.05324,-1.86509 0.37567,-3.01056c0.29303,-1.12211 0.72404,-2.21918 1.29303,-3.2912c0.56897,-1.07202 0.9719,-1.942 1.2088,-2.60992c0.07261,-0.25696 0.10068,-0.48405 0.0842,-0.68127c-0.04769,-0.57092 -0.44006,-0.95097 -1.17712,-1.14014c-0.73794,-0.19958 -1.68432,-0.26672 -2.83914,-0.20142l-0.44473,1.62085c-0.25669,1.05636 -0.63922,2.29572 -1.14758,3.71808c-0.50836,1.42236 -1.08809,2.80365 -1.7392,4.14386c-0.6416,1.32898 -1.32477,2.41056 -2.0495,3.24475c-0.06746,0.06836 -0.14791,0.10647 -0.24133,0.11432c-0.12455,0.01042 -0.21409,-0.06051 -0.26862,-0.21277c-0.06492,-0.15133 -0.0135,-0.349 0.15427,-0.59302c1.10691,-1.76514 2.06889,-3.70109 2.88593,-5.80786c0.81704,-2.10673 1.48052,-4.23718 1.99045,-6.39136c0.51947,-2.16549 0.86033,-4.15397 1.02258,-5.96545c0.06132,-0.51733 0.20656,-0.9058 0.43573,-1.16541c0.23871,-0.27087 0.4982,-0.41803 0.77847,-0.44147c0.4152,-0.03479 0.81618,0.13548 1.20294,0.5108c0.38588,0.36491 0.60961,0.91587 0.67117,1.65289c0.01042,0.12455 0.01218,0.27075 0.00528,0.4386c0.00262,0.15658 -0.00513,0.31403 -0.02325,0.47235c-0.07857,0.68599 -0.40456,1.35091 -0.97797,1.99475c-0.56388,0.63257 -1.02572,1.11025 -1.3855,1.43304c0.31401,0.00509 0.64835,0.00323 1.00302,-0.00555c0.3538,-0.01917 0.7383,-0.04612 1.1535,-0.08087c1.49477,-0.12512 2.97136,-0.34279 4.42978,-0.65302c0.07788,0.18164 0.12073,0.31917 0.12854,0.4126c0.03469,0.41524 -0.04047,0.95465 -0.22546,1.61823c-0.18585,0.6532 -0.38728,1.24497 -0.60428,1.77533c-0.1003,0.30107 -0.31127,0.84137 -0.6329,1.62091c-0.32163,0.77954 -0.66618,1.66032 -1.03363,2.64233c-0.36743,0.98197 -0.66351,1.9423 -0.88824,2.88098c-0.22559,0.9283 -0.31193,1.70907 -0.25903,2.34229c0.06938,0.83044 0.42066,1.21916 1.05386,1.16614c0.4775,-0.03996 0.9757,-0.39524 1.4946,-1.06586c0.52926,-0.67151 1.03125,-1.48183 1.50598,-2.43097c0.48423,-0.96041 0.91829,-1.89571 1.30219,-2.80591c0.39341,-0.92143 0.69862,-1.64732 0.91562,-2.17767c0.0977,-0.33223 0.26073,-0.50791 0.48911,-0.52704c0.12455,-0.01042 0.19637,0.09857 0.21545,0.32697c0.0104,0.12455 -0.02027,0.3205 -0.09201,0.58783c-0.29224,0.75618 -0.63808,1.62138 -1.03754,2.59558c-0.40031,0.96383 -0.85902,1.91687 -1.37613,2.85913c-0.51711,0.94222 -1.0909,1.769 -1.72137,2.48035c-0.63047,0.7113 -1.33754,1.19383 -2.12122,1.44757c-0.09082,0.03894 -0.2608,0.06885 -0.50995,0.08972zM182.07394,336.4023c-1.33907,0.11206 -2.28246,-0.16962 -2.83017,-0.84503c-0.53733,-0.67631 -0.84719,-1.50753 -0.92957,-2.49365c-0.08586,-1.02767 -0.02854,-2.09347 0.17194,-3.19739c0.20046,-1.10388 0.3789,-2.03345 0.53531,-2.7887c0.3595,-1.82804 0.84396,-3.78674 1.4534,-5.8761c0.61981,-2.09021 1.31488,-4.15538 2.0852,-6.1955c0.78072,-2.04097 1.56755,-3.88385 2.36047,-5.52863c0.63381,-1.297 1.3451,-2.29209 2.13388,-2.98529c0.79915,-0.69409 1.51534,-1.06763 2.14856,-1.12061c0.50863,-0.04256 0.92863,0.1052 1.26001,0.4433c0.34176,0.33728 0.54343,0.87443 0.60501,1.61145c0.04248,0.50863 0.00497,1.12327 -0.11252,1.84393c-0.11837,0.71025 -0.34787,1.52911 -0.68851,2.4566c-0.91296,2.58516 -2.03873,5.18813 -3.37729,7.8089c-1.33942,2.61039 -3.09668,5.09896 -5.27179,7.4657c-0.08988,0.42566 -0.21522,0.92745 -0.37601,1.50537c-0.16077,0.57792 -0.29516,1.15885 -0.40317,1.7428c-0.12526,0.87809 -0.16275,1.61818 -0.11246,2.22028c0.08238,0.98612 0.34161,1.71181 0.77771,2.17706c0.44645,0.4644 0.95514,0.67271 1.52606,0.62494c0.50863,-0.0426 1.03322,-0.26945 1.57379,-0.68054c0.55009,-0.42236 1.04997,-1.00777 1.49963,-1.75623c0.67537,-1.17501 1.27591,-2.36987 1.80161,-3.58459c0.5257,-1.21476 0.91737,-2.15696 1.17502,-2.8266c0.16774,-0.36947 0.36062,-0.56331 0.57861,-0.58154c0.16608,-0.01392 0.25735,0.07774 0.27383,0.27496c0.013,0.15572 -0.02416,0.33655 -0.11148,0.54248c-0.22738,0.65666 -0.53256,1.508 -0.91556,2.55402c-0.37264,1.04513 -0.85945,2.09981 -1.46042,3.16406c-0.60187,1.05387 -1.34649,1.96289 -2.23386,2.72705c-0.88739,0.7642 -1.93315,1.1967 -3.13727,1.29749zM181.87966,325.44276c1.04299,-1.27893 2.03966,-2.73692 2.99002,-4.37396c0.96073,-1.63794 1.83841,-3.33162 2.63303,-5.08105c0.80499,-1.75033 1.46641,-3.40501 1.98425,-4.96405c0.1781,-0.49577 0.31597,-1.0352 0.4136,-1.61829c0.09764,-0.58309 0.13041,-1.06667 0.09833,-1.45074c-0.03729,-0.44637 -0.16494,-0.66044 -0.38293,-0.64221c-0.13493,0.01131 -0.32217,0.1472 -0.56174,0.40765c-0.22919,0.2596 -0.52755,0.69226 -0.89508,1.29797c-0.53528,0.84969 -1.10381,1.98962 -1.7056,3.4198c-0.60179,1.43018 -1.20571,2.95982 -1.81177,4.58893c-0.60693,1.61877 -1.15073,3.17999 -1.63138,4.68366c-0.48067,1.50366 -0.85758,2.74776 -1.13074,3.7323zM191.37869,335.48237c-0.34255,0.02865 -0.76946,-0.01402 -1.28073,-0.12799c-0.51213,-0.12439 -0.96762,-0.38418 -1.36649,-0.77936c-0.39974,-0.4056 -0.6356,-1.03918 -0.70758,-1.90076c-0.0685,-0.82007 0.06196,-1.63588 0.39139,-2.44745c0.32855,-0.8219 0.63851,-1.61613 0.92987,-2.38269c-0.09342,0.00781 -0.19983,-0.01465 -0.31921,-0.06738c-0.10901,-0.05359 -0.16872,-0.14266 -0.17914,-0.26721c-0.01127,-0.13497 0.00903,-0.26733 0.06091,-0.39709c0.10376,-0.25956 0.22134,-0.5412 0.35275,-0.84491c0.14181,-0.30452 0.26198,-0.61772 0.36053,-0.93958c0.39427,-1.0365 0.79242,-2.02629 1.19446,-2.96936c0.40118,-0.95345 0.7492,-1.79268 1.04404,-2.5177c0.29397,-0.73543 0.87173,-1.1392 1.73331,-1.2113l2.9584,-0.24762c-0.50509,0.46041 -0.9548,0.95799 -1.34915,1.49274c-0.38485,0.52352 -0.83924,1.46574 -1.36319,2.82666c0,0 -0.09554,0.23275 -0.28662,0.69824c-0.1807,0.4646 -0.41372,1.05379 -0.69904,1.76758c-0.27492,0.71289 -0.54899,1.43618 -0.8222,2.16986c-0.27407,0.72331 -0.50491,1.33846 -0.69254,1.84546c-0.34064,0.92749 -0.55113,1.66115 -0.63147,2.20099c-0.0812,0.52942 -0.10315,1.01731 -0.06586,1.46368c0.08759,1.04842 0.47912,1.54354 1.17459,1.48535c0.76815,-0.06429 1.6404,-0.75926 2.61676,-2.0849c0.80426,-1.13354 1.57605,-2.4682 2.31537,-4.00397c0.7393,-1.53577 1.43274,-3.11995 2.08032,-4.75256c0.65796,-1.63346 1.23638,-3.09304 1.73526,-4.37872c0.29397,-0.73543 0.8873,-1.1405 1.78,-1.21521l2.63144,-0.22028c-0.44541,0.42407 -0.81514,0.81565 -1.10919,1.17474c-0.29405,0.35913 -0.56817,0.83156 -0.82236,1.4173c-0.25421,0.58573 -0.59314,1.40853 -1.01678,2.46838c-0.34324,0.89636 -0.70767,1.85197 -1.09329,2.86682c-0.37522,1.014 -0.70331,1.96655 -0.98425,2.85767c-0.28097,0.89111 -0.44561,1.61047 -0.49393,2.15808c-0.00513,0.31405 -0.01633,0.55542 -0.0336,0.72412c-0.01813,0.15828 -0.01896,0.33606 -0.0025,0.53333c0.05029,0.60205 0.19008,1.02415 0.41937,1.2663c0.22843,0.23173 0.48278,0.33588 0.76303,0.31244c0.76815,-0.06429 1.5055,-0.55981 2.21207,-1.48657c0.71694,-0.92761 1.38194,-2.03904 1.995,-3.33429c0.61218,-1.30558 1.12576,-2.5402 1.54074,-3.70386c0.15737,-0.36861 0.31909,-0.55986 0.48517,-0.57373c0.18685,-0.01567 0.28982,0.0907 0.3089,0.31909c0.013,0.15572 -0.03324,0.35297 -0.13873,0.59174c-0.28963,0.78731 -0.64714,1.70052 -1.07251,2.73962c-0.42627,1.02873 -0.92131,2.04753 -1.48511,3.0564c-0.55343,1.00802 -1.1882,1.85559 -1.90433,2.54272c-0.70573,0.68624 -1.50495,1.06671 -2.39767,1.14142c-0.79928,0.06694 -1.48313,-0.17373 -2.05157,-0.72198c-0.55809,-0.54911 -0.88221,-1.36346 -0.97238,-2.44305c-0.07198,-0.86157 0.01174,-1.79891 0.25116,-2.81201c-0.46,1.0002 -1.00305,2.00734 -1.62915,3.02142c-0.6157,1.01322 -1.29718,1.86471 -2.04443,2.55444c-0.74725,0.68974 -1.52053,1.06805 -2.31982,1.13495zM211.01086,334.0273c-1.81657,0.15206 -3.12978,-0.17704 -3.93964,-0.9873c-0.80033,-0.82153 -1.25382,-1.87071 -1.36047,-3.14752c-0.11707,-1.40137 0.08504,-2.92352 0.60632,-4.56647c0.52043,-1.65332 1.17756,-3.10903 1.97141,-4.36713c0.82068,-1.31262 1.75775,-2.35797 2.81122,-3.13605c1.06384,-0.77893 2.16669,-1.21619 3.30853,-1.31177c1.2145,-0.10164 2.13235,0.12467 2.75357,0.67896c0.63159,0.55339 0.92284,1.34957 0.87375,2.38855c-0.0094,0.63843 -0.25797,1.29165 -0.7457,1.95966c-0.48775,0.66801 -1.00153,1.0246 -1.54132,1.06976c-0.2595,0.02173 -0.4961,-0.05776 -0.70981,-0.23846c0.2335,-0.33317 0.47174,-0.73466 0.71472,-1.20447c0.25336,-0.47066 0.43017,-0.91927 0.53043,-1.34583c0.09249,-0.39449 0.12269,-0.78377 0.09061,-1.16785c-0.06677,-0.79932 -0.48423,-1.16683 -1.25238,-1.10254c-0.86157,0.07214 -1.72781,0.58891 -2.59872,1.55029c-0.86139,0.95015 -1.60253,1.96342 -2.22342,3.0398c-0.24819,0.40755 -0.54045,1.03829 -0.87677,1.89221c-0.3268,0.84269 -0.61035,1.7654 -0.85065,2.76813c-0.23075,0.99146 -0.30755,1.94912 -0.23038,2.87299c0.08065,0.96537 0.36499,1.80396 0.85303,2.51575c0.48802,0.71175 1.24586,1.02462 2.27353,0.9386c1.40135,-0.11727 2.56905,-0.65403 3.50311,-1.61029c0.93319,-0.96659 1.73441,-2.13645 2.40366,-3.50958c0.66927,-1.37309 1.26848,-2.70896 1.79764,-4.00763c0.16514,-0.40059 0.34114,-0.6087 0.52798,-0.62433c0.16608,-0.01392 0.25996,0.10889 0.28165,0.36841c0.0104,0.12455 -0.02807,0.28979 -0.11539,0.49573c-0.61989,1.71391 -1.27182,3.29462 -1.95578,4.74213c-0.68481,1.43713 -1.55957,2.6027 -2.62427,3.4967c-1.06555,0.88363 -2.49104,1.40015 -4.27646,1.54956zM228.195,332.7458c-0.87026,-0.0317 -1.67786,-0.37699 -2.42279,-1.03589c-0.74493,-0.65889 -1.29788,-1.58476 -1.65884,-2.77759c-0.04936,-0.21537 -0.09179,-0.41042 -0.12729,-0.58514c-0.02513,-0.17562 -0.04679,-0.37242 -0.065,-0.59039c-0.10665,-1.27681 0.09297,-2.32837 0.59885,-3.15466c0.5154,-0.83761 1.01055,-1.29195 1.48544,-1.36304c0.51123,-0.01143 1.11889,-0.18252 1.82297,-0.51324c0.71446,-0.33158 1.32682,-0.75913 1.8371,-1.28265c0.86228,-0.81437 1.26134,-1.60563 1.19717,-2.37378c-0.0659,-0.7889 -0.56078,-1.14469 -1.48465,-1.06738c-0.50863,0.04256 -1.14265,0.27334 -1.90207,0.69232c-0.74992,0.40771 -1.59753,1.08494 -2.54285,2.03168c-1.18573,1.19682 -2.38782,2.76086 -3.60626,4.69214c-0.16256,0.43172 -0.33976,1.06327 -0.53162,1.89465c-0.1815,0.83057 -0.32449,1.68402 -0.42899,2.56036c-0.10449,0.87634 -0.13115,1.62075 -0.07999,2.23322c0.03988,0.4775 0.14936,0.78715 0.32846,0.92896l-3.02069,0.25281c-0.35293,0.02954 -0.54153,-0.10101 -0.56583,-0.39166c-0.00779,-0.09342 0.00128,-0.17259 0.02722,-0.23749c0.03632,-0.06576 0.06181,-0.19855 0.07648,-0.39838c0.30847,-1.68787 0.76488,-3.29403 1.36923,-4.81848c0.61387,-1.53573 1.22124,-3.14931 1.82211,-4.84076c-0.94765,2.16996 -1.81231,4.08209 -2.59396,5.73639c-0.7713,1.6534 -1.37705,2.72327 -1.81726,3.20959c-0.05707,0.0675 -0.1375,0.10561 -0.2413,0.11432c-0.12457,0.01042 -0.21412,-0.06049 -0.26865,-0.21271c-0.06492,-0.15137 -0.04203,-0.31531 0.06866,-0.49182c0.60016,-0.94922 1.27117,-2.23885 2.01303,-3.8689c0.7514,-1.64132 1.53952,-3.46863 2.36435,-5.48193c0.82485,-2.01331 1.66353,-4.04869 2.51605,-6.10614c0.86289,-2.05831 1.70376,-4.00503 2.52258,-5.84015c0.8292,-1.83598 1.59272,-3.39467 2.29056,-4.67609c0.49894,-0.90934 0.98756,-1.56698 1.46585,-1.9729c0.48779,-0.41711 1.00158,-0.64825 1.54135,-0.69342l0.23358,-0.01959c0.29065,-0.02433 0.62197,0.0002 0.99396,0.07361c0.37111,0.06303 0.71497,0.04993 1.03156,-0.03931c-0.56217,0.52791 -1.22853,1.3729 -1.99905,2.53497c-0.77138,1.15169 -1.57213,2.51489 -2.40225,4.0896c-0.83012,1.57471 -1.66238,3.24892 -2.4968,5.02264c-0.83441,1.77368 -1.61303,3.52702 -2.33585,5.26001c-0.25852,0.65926 -0.50363,1.354 -0.73532,2.08423c-0.23254,0.71981 -0.4439,1.44307 -0.63406,2.1698c0.59497,-0.88603 1.28596,-1.81146 2.07297,-2.77631c0.78699,-0.96484 1.61638,-1.86007 2.48819,-2.68567c0.88216,-0.82646 1.77043,-1.45481 2.6648,-1.88507c1.02671,-0.4727 1.88782,-0.73814 2.58331,-0.79633c0.737,-0.06169 1.28633,0.07003 1.64798,0.39514c0.37205,0.32426 0.58062,0.75629 0.6257,1.29608c0.05029,0.60205 -0.13294,1.3491 -0.54971,2.24115c-0.40725,0.88078 -0.99575,1.65653 -1.7655,2.32727c-0.66597,0.53658 -1.3683,1.01349 -2.10696,1.43073c-0.72829,0.41634 -1.61793,0.71554 -2.66891,0.89758c-0.14956,0.462 -0.24635,0.93003 -0.29037,1.40411c-0.0449,0.4637 -0.04871,0.91874 -0.01141,1.36511c0.10406,1.24565 0.48101,2.31689 1.13083,3.21375c0.65936,0.88558 1.45097,1.28971 2.37482,1.2124c0.44635,-0.03739 0.91863,-0.20237 1.41684,-0.49493c0.50771,-0.30383 1.02707,-0.78111 1.55807,-1.43182c0.57945,-0.69657 1.14716,-1.65873 1.70313,-2.88647c0.55511,-1.23812 1.1115,-2.5861 1.66916,-4.04395c0.10288,-0.26994 0.23218,-0.41142 0.38788,-0.42444c0.19722,-0.01652 0.30668,0.10498 0.32837,0.3645c0.0104,0.12455 -0.02807,0.28979 -0.11539,0.49573c-0.74609,2.20532 -1.48664,3.97638 -2.22165,5.31317c-0.73588,1.32642 -1.47226,2.33407 -2.20914,3.02295c-0.7265,0.68799 -1.45175,1.14069 -2.17575,1.35809c-0.71275,0.22689 -1.44023,0.34003 -2.18243,0.33942zM244.84271,331.39949c0.95711,-2.43209 1.87531,-4.82953 2.75458,-7.19232c0.8784,-2.37321 1.78623,-4.64435 2.72351,-6.81342c0.5482,-1.19572 1.01601,-2.03975 1.40344,-2.5321c0.39697,-0.50362 0.95877,-0.78585 1.68539,-0.84668c0.2595,-0.02173 0.53286,-0.00279 0.82007,0.05682c0.29671,0.04834 0.59039,0.06034 0.88104,0.03601c0.18685,-0.01567 0.32568,-0.04297 0.4165,-0.08191c-0.42466,0.29688 -0.94788,0.97831 -1.56964,2.04431c-0.61222,1.05473 -1.23221,2.26691 -1.85995,3.63654c-0.61737,1.36877 -1.16339,2.65316 -1.63806,3.85315c0.54049,-0.78739 1.10737,-1.57178 1.70065,-2.35315c0.59239,-0.79175 1.26004,-1.55843 2.00296,-2.30005c0.70227,-0.72778 1.55807,-1.49455 2.56741,-2.30029c1.00848,-0.81612 2.00141,-1.50551 2.97879,-2.06818c0.98777,-0.56352 1.78269,-0.87046 2.38477,-0.92084c0.22837,-0.01912 0.39056,-0.01703 0.48657,0.00629c0,0 -0.15045,0.32619 -0.45135,0.97858c-0.3009,0.65234 -0.67399,1.50413 -1.11926,2.55536c-0.43492,1.05033 -0.875,2.16384 -1.32025,3.34052c-0.44525,1.17664 -0.84251,2.30223 -1.19177,3.37677c-0.33974,1.06331 -0.54761,1.95355 -0.6236,2.67072c-0.05874,0.42305 -0.07336,0.81104 -0.04388,1.16394c0.0425,0.50867 0.16411,0.83822 0.36484,0.98865c0.21023,0.1392 0.42433,0.19969 0.6423,0.18146c0.61245,-0.05127 1.22353,-0.43168 1.83325,-1.14124c0.6201,-0.71045 1.20166,-1.56925 1.74469,-2.57642c0.54218,-1.0175 1.01948,-1.99823 1.43192,-2.9422c0.42196,-0.95516 0.72198,-1.68062 0.90009,-2.17639c0.11414,-0.26042 0.20017,-0.41919 0.25812,-0.47632c0.05794,-0.05709 0.14919,-0.09086 0.27374,-0.10132c0.19722,-0.01648 0.30668,0.10502 0.32837,0.3645c0.01302,0.15572 -0.02413,0.33655 -0.11145,0.54248c-0.31299,0.75789 -0.69126,1.67283 -1.13483,2.74481c-0.44442,1.0616 -0.96324,2.10854 -1.55646,3.14081c-0.5837,1.02096 -1.24787,1.89189 -1.99252,2.61279c-0.73427,0.71997 -1.56853,1.11906 -2.50278,1.19727c-0.6332,0.05302 -1.31099,-0.11499 -2.03339,-0.50403c-0.72239,-0.38904 -1.13388,-1.18561 -1.23447,-2.38971c-0.02948,-0.35295 -0.02956,-0.72927 -0.00024,-1.12897c0.02846,-0.41003 0.10579,-0.86076 0.23199,-1.35217c0.19537,-0.66443 0.43918,-1.37474 0.73141,-2.13092c0.29136,-0.76656 0.78336,-1.8217 1.47598,-3.16541c0.1885,-0.37118 0.29571,-0.65192 0.32162,-0.84222c0.0363,-0.1912 0.04881,-0.35427 0.03754,-0.4892c-0.03208,-0.38411 -0.2246,-0.5614 -0.57755,-0.53186c-0.28027,0.02348 -0.68724,0.21956 -1.22089,0.58826c-0.53365,0.36873 -1.18231,0.98751 -1.94598,1.85632c-0.72561,0.82381 -1.5796,1.98763 -2.56198,3.49145c-0.98326,1.49345 -2.08185,3.6708 -3.29578,6.53204c-0.18331,0.43347 -0.40861,0.67706 -0.6759,0.73077c-0.26729,0.05375 -0.63839,0.11617 -1.11328,0.18726c-0.31917,0.05806 -0.61847,0.10402 -0.89789,0.13788c-0.2889,0.04508 -0.52503,0.15894 -0.7084,0.34155zM268.83865,329.18721c-1.18335,0.09904 -2.27899,-0.1908 -3.28693,-0.86951c-0.99841,-0.68998 -1.56309,-1.81871 -1.69403,-3.38617c-0.11967,-1.4325 0.09973,-2.9979 0.6582,-4.69623c0.56889,-1.69922 1.34627,-3.21726 2.33215,-4.55414c0.8328,-1.16728 1.79108,-2.14644 2.87482,-2.9375c1.09322,-0.80233 2.14848,-1.24605 3.16577,-1.33118c0.70585,-0.05908 1.32914,0.08211 1.86987,0.42358c0.57446,0.37008 0.89378,0.93919 0.95795,1.70734c0.06677,0.79928 -0.16097,1.70162 -0.68323,2.70703c-0.5223,1.00541 -1.30931,1.97026 -2.36102,2.89453c-0.448,0.3929 -1.02706,0.78109 -1.73718,1.16455c-0.7006,0.37223 -1.41075,0.69299 -2.13043,0.96228c-0.71965,0.26933 -1.31822,0.42397 -1.79572,0.46393c-0.12362,0.39709 -0.23122,0.92352 -0.32281,1.57928c-0.09241,0.64539 -0.11086,1.30025 -0.05536,1.9646c0.06677,0.79932 0.28792,1.5073 0.66345,2.12396c0.37472,0.60624 0.99286,0.87331 1.85443,0.80121c1.04842,-0.08773 1.97825,-0.46869 2.78949,-1.14288c0.81042,-0.68457 1.51009,-1.50621 2.099,-2.4649c0.59843,-0.96997 1.08742,-1.93599 1.46698,-2.89807c0.38993,-0.96297 0.70333,-1.77842 0.94019,-2.44635c0.14958,-0.462 0.38525,-0.70646 0.70703,-0.7334c0.15572,-0.01302 0.24052,0.06352 0.25439,0.22961c0.01042,0.12455 -0.0233,0.28416 -0.10114,0.47882c-0.36568,1.00277 -0.7582,2.06002 -1.17755,3.17175c-0.42017,1.1014 -0.94373,2.15395 -1.57068,3.15765c-0.61658,1.00285 -1.3889,1.83057 -2.31696,2.48315c-0.92806,0.65259 -2.06163,1.03493 -3.4007,1.14703zM267.27987,320.85066c0.44637,-0.03735 1.17989,-0.26599 2.20056,-0.68591c1.03015,-0.43119 1.94523,-1.05135 2.74524,-1.86047c0.75936,-0.79529 1.32579,-1.64758 1.69928,-2.55688c0.37268,-0.91972 0.53343,-1.68579 0.48224,-2.29822c-0.05811,-0.69552 -0.34147,-1.02199 -0.8501,-0.97943c-0.38407,0.03215 -0.89223,0.33079 -1.52448,0.89594c-0.62183,0.56425 -1.37508,1.49489 -2.25977,2.79193c-0.53788,0.81856 -1.04462,1.69722 -1.5202,2.63599c-0.46521,0.93791 -0.78947,1.6236 -0.97278,2.05707zM274.9819,330.11555c-0.69548,0.05819 -1.28503,-0.11721 -1.76868,-0.52618c-0.10124,-0.08561 -0.15576,-0.17513 -0.16357,-0.26855c-0.01558,-0.18685 0.08474,-0.36249 0.30096,-0.52692c0.20585,-0.16357 0.39313,-0.17403 0.56183,-0.03137c0.27079,0.23865 0.63456,0.33887 1.09131,0.30066c0.40483,-0.03389 0.88704,-0.20492 1.44666,-0.51306c0.60722,-0.36442 1.28355,-1.09003 2.02899,-2.17682c0.74459,-1.09721 1.43679,-2.38338 2.0766,-3.85852c0.64933,-1.48645 1.13562,-2.98537 1.45886,-4.49676c0.08203,-0.64449 0.13684,-1.23966 0.16443,-1.78552c0.03707,-0.55713 0.03436,-1.09003 -0.00812,-1.59869c-0.03988,-0.4775 -0.1403,-0.86629 -0.30127,-1.16638c-0.15145,-0.3114 -0.39846,-0.45276 -0.74103,-0.42407c-0.25948,0.02173 -0.57821,0.21043 -0.95618,0.5661c-0.36845,0.34444 -0.74506,0.90385 -1.12982,1.67822c-0.10636,0.22839 -0.3208,0.72717 -0.64331,1.49634c-0.32251,0.76917 -0.65367,1.55996 -0.99347,2.37238c-0.32939,0.81156 -0.6013,1.43538 -0.81573,1.87146c-0.17297,0.30717 -0.32174,0.46596 -0.44629,0.47638c-0.12455,0.01042 -0.19637,-0.09855 -0.21545,-0.3269c-0.01823,-0.21802 0.02411,-0.462 0.12701,-0.73193c0.16512,-0.40055 0.38603,-0.94692 0.66272,-1.6391c0.2758,-0.70251 0.57971,-1.44399 0.91174,-2.22443c0.34241,-0.78129 0.68481,-1.49986 1.02722,-2.1557c0.35282,-0.6567 0.67279,-1.14341 0.9599,-1.46014c0.30098,-0.27604 0.66555,-0.54175 1.09369,-0.79712c0.42729,-0.26571 0.8641,-0.41726 1.31042,-0.45465c0.92387,-0.07731 1.59045,0.20662 1.99976,0.85181c0.40845,0.63485 0.65125,1.41418 0.72839,2.33801c0.07198,0.86161 0.04795,1.76259 -0.07208,2.70294c0.49109,-1.12821 1.04189,-2.23008 1.6524,-3.3056c0.62004,-1.08675 1.24398,-2.00134 1.87183,-2.74377c0.62789,-0.74247 1.15981,-1.19466 1.59576,-1.35657c0.08997,-0.04936 0.18164,-0.07794 0.27502,-0.08575c0.10384,-0.00871 0.20247,-0.01697 0.2959,-0.02478c0.38407,-0.03215 0.71842,0.02873 1.00305,0.18262c0.28463,0.15389 0.44297,0.42287 0.47504,0.80695c0.04248,0.50863 -0.12783,0.97237 -0.51093,1.39124c-0.38314,0.41882 -0.81346,0.64821 -1.29095,0.68817c-0.70585,0.05908 -1.12935,-0.19293 -1.27051,-0.75604c-0.90894,1.00639 -1.78538,2.33934 -2.62933,3.99884c-0.83358,1.65865 -1.46171,3.27397 -1.8844,4.84595c-0.04224,0.62028 -0.03951,1.21588 0.00818,1.7868c0.07979,0.955 0.27026,1.73348 0.57141,2.33545c0.31152,0.60111 0.69568,0.94529 1.15247,1.03253c0.13753,0.01982 0.31529,0.02061 0.53326,0.00238c0.8927,-0.07471 1.69407,-0.55469 2.40411,-1.43994c0.71952,-0.89644 1.38495,-2.00267 1.99628,-3.31866c0.61047,-1.32638 1.18028,-2.6389 1.70941,-3.93756c0.10807,-0.33309 0.2711,-0.50875 0.48907,-0.52698c0.09342,-0.00781 0.17216,0.05876 0.23621,0.19971c0.06405,0.14099 0.05196,0.30927 -0.03625,0.50482c-0.3173,0.83142 -0.68215,1.78182 -1.09454,2.8512c-0.40291,1.05815 -0.89146,2.09208 -1.46564,3.10181c-0.57418,1.00977 -1.27643,1.86298 -2.10675,2.55963c-0.81991,0.6958 -1.80078,1.09149 -2.94263,1.18707c-0.76815,0.06429 -1.42562,-0.11064 -1.97241,-0.52478c-0.54765,-0.42456 -0.99023,-0.96767 -1.32776,-1.62933c-0.32711,-0.66252 -0.51884,-1.33114 -0.5752,-2.00586l-0.09888,-1.18341c-0.65881,1.62313 -1.42322,3.10872 -2.29321,4.45679c-0.87081,1.33773 -1.74949,2.26843 -2.63605,2.79211c-0.60722,0.36442 -1.21704,0.57227 -1.82947,0.62354zM295.66635,326.75361c-0.8927,0.07471 -1.718,-0.16982 -2.47589,-0.73358c-0.75789,-0.56376 -1.19277,-1.51518 -1.30463,-2.85425c-0.08761,-1.04842 0.00122,-2.36249 0.26648,-3.9422c0.27563,-1.58061 0.63949,-3.2313 1.09155,-4.95209c0.45121,-1.73116 0.90505,-3.30575 1.36151,-4.72375l-2.53802,0.21246c-0.21798,0.01823 -0.34041,-0.13354 -0.36731,-0.45532c-0.01302,-0.15572 0.01162,-0.29891 0.07391,-0.42957c0.07174,-0.14189 0.19065,-0.21979 0.35675,-0.2337l2.86499,-0.23981c0.43917,-1.24931 0.91209,-2.47009 1.41876,-3.66235c0.51619,-1.20349 1.01683,-2.34296 1.50189,-3.4184c0.63037,-1.3385 1.33431,-2.35911 2.11182,-3.06183c0.77755,-0.70272 1.46735,-1.07926 2.0694,-1.12964c0.4775,-0.03996 0.88713,0.10868 1.22888,0.44592c0.35217,0.33639 0.55904,0.87309 0.62061,1.61011c0.03727,0.44637 -0.00498,1.06663 -0.12677,1.86078c-0.12183,0.79419 -0.35437,1.63945 -0.69763,2.53577c-0.19108,0.46549 -0.45435,1.13039 -0.78979,1.99469c-0.32507,0.86348 -0.6532,1.62791 -0.98437,2.29327l2.30444,-0.19293c0.21798,-0.01823 0.34041,0.13357 0.36731,0.45538c0.01127,0.13493 -0.00816,0.27767 -0.05829,0.42822c-0.05103,0.14014 -0.13881,0.21541 -0.26337,0.22583l-2.8183,0.2359c-0.68481,1.43713 -1.48643,2.85268 -2.40485,4.24664c-0.908,1.39311 -2.00804,2.80227 -3.30011,4.22748c-0.06913,0.29846 -0.15383,0.72367 -0.25409,1.27563c-0.10022,0.55196 -0.18402,1.113 -0.2514,1.68311c-0.05697,0.56921 -0.11092,1.04934 -0.16187,1.44037c-0.05184,0.38066 -0.07776,0.57098 -0.07776,0.57098c-0.05872,0.42305 -0.07334,0.81104 -0.04388,1.16394c0.05636,0.67476 0.25283,1.14962 0.58942,1.42456c0.34692,0.27413 0.72799,0.39382 1.14319,0.35907c0.25952,-0.02173 0.51082,-0.07935 0.75391,-0.17285c0.25256,-0.10478 0.53019,-0.28483 0.83289,-0.54016c1.04395,-0.89225 1.9291,-2.05868 2.65546,-3.49927c0.73669,-1.44149 1.37351,-2.82756 1.91046,-4.1582c0.15474,-0.39974 0.33073,-0.60785 0.52795,-0.62433c0.12455,-0.01046 0.19507,0.08295 0.21155,0.28021c0.00781,0.09342 -0.02415,0.2738 -0.09589,0.54114c-0.58358,1.52271 -1.07684,2.75041 -1.4798,3.68311c-0.40291,0.9327 -0.80284,1.71356 -1.19977,2.34259c-0.39693,0.62907 -0.87777,1.2547 -1.4425,1.87689c-0.40906,0.48372 -0.88951,0.86365 -1.44135,1.13977c-0.55273,0.26579 -1.11456,0.42259 -1.68549,0.4704zM297.90737,308.15809l2.44458,-0.20459c0.37785,-0.85742 0.73061,-1.70229 1.05829,-2.53461c0.33805,-0.83317 0.62941,-1.66243 0.87408,-2.48779c0.18587,-0.52775 0.33022,-1.11477 0.43304,-1.76105c0.1123,-0.65747 0.15371,-1.16268 0.12421,-1.51562c-0.03988,-0.4775 -0.17399,-0.70669 -0.40234,-0.68756c-0.15572,0.01302 -0.37758,0.17271 -0.66559,0.47906c-0.27848,0.29508 -0.61444,0.77791 -1.00787,1.44849c-0.50415,0.84709 -0.98405,1.9221 -1.4397,3.22504c-0.44523,1.30208 -0.91813,2.6483 -1.4187,4.03864zM295.4371,315.93812c0.84408,-1.03231 1.62585,-2.12213 2.34534,-3.26947c0.71863,-1.15771 1.38275,-2.34224 1.99237,-3.55359l-2.24219,0.18768c-0.42017,1.22681 -0.8066,2.41943 -1.1593,3.57788c-0.35356,1.14811 -0.66563,2.16728 -0.93622,3.0575zM317.71731,324.90797c-0.8927,0.07471 -1.718,-0.16982 -2.47589,-0.73358c-0.75789,-0.56376 -1.19277,-1.51518 -1.30463,-2.85425c-0.08761,-1.04842 0.00122,-2.36249 0.26648,-3.9422c0.27563,-1.58061 0.63949,-3.2313 1.09155,-4.95209c0.45121,-1.73116 0.90503,-3.30575 1.36145,-4.72375l-2.53796,0.21246c-0.21798,0.01823 -0.34041,-0.13354 -0.36731,-0.45532c-0.01302,-0.15572 0.0116,-0.29891 0.07385,-0.42957c0.07178,-0.14189 0.19071,-0.21979 0.35681,-0.2337l2.86499,-0.23981c0.43917,-1.24931 0.91209,-2.47009 1.41876,-3.66235c0.51619,-1.20349 1.01683,-2.34296 1.50189,-3.4184c0.63033,-1.3385 1.33427,-2.35911 2.11182,-3.06183c0.77755,-0.70272 1.46735,-1.07926 2.0694,-1.12964c0.4775,-0.03996 0.88713,0.10868 1.22888,0.44592c0.35213,0.33639 0.559,0.87309 0.62061,1.61011c0.03727,0.44637 -0.005,1.06663 -0.12683,1.86078c-0.12179,0.79419 -0.35431,1.63945 -0.69757,2.53577c-0.19108,0.46549 -0.45435,1.13039 -0.78979,1.99469c-0.32507,0.86348 -0.6532,1.62791 -0.98437,2.29327l2.30444,-0.19293c0.21798,-0.01823 0.34041,0.13357 0.36731,0.45538c0.01127,0.13493 -0.00818,0.27767 -0.05835,0.42822c-0.05098,0.14014 -0.13877,0.21541 -0.26337,0.22583l-2.81824,0.2359c-0.68481,1.43713 -1.48643,2.85268 -2.40485,4.24664c-0.908,1.39311 -2.00806,2.80227 -3.30017,4.22748c-0.06913,0.29846 -0.15381,0.72367 -0.25403,1.27563c-0.10022,0.55196 -0.18402,1.113 -0.2514,1.68311c-0.05697,0.56921 -0.11092,1.04934 -0.16187,1.44037c-0.05184,0.38066 -0.07776,0.57098 -0.07776,0.57098c-0.05876,0.42305 -0.07338,0.81104 -0.04388,1.16394c0.05636,0.67476 0.25281,1.14962 0.58936,1.42456c0.34696,0.27413 0.72805,0.39382 1.14325,0.35907c0.25952,-0.02173 0.5108,-0.07935 0.75385,-0.17285c0.25256,-0.10478 0.53021,-0.28483 0.83295,-0.54016c1.04395,-0.89225 1.92908,-2.05868 2.6554,-3.49927c0.73674,-1.44149 1.37356,-2.82756 1.91046,-4.1582c0.15479,-0.39974 0.33079,-0.60785 0.52802,-0.62433c0.12455,-0.01046 0.19507,0.08295 0.21155,0.28021c0.00781,0.09342 -0.02415,0.2738 -0.09589,0.54114c-0.58362,1.52271 -1.07688,2.75041 -1.4798,3.68311c-0.40291,0.9327 -0.80284,1.71356 -1.19977,2.34259c-0.39693,0.62907 -0.87777,1.2547 -1.4425,1.87689c-0.40906,0.48372 -0.88953,0.86365 -1.44141,1.13977c-0.55269,0.26579 -1.1145,0.42259 -1.68542,0.4704zM319.95834,306.31245l2.44458,-0.20459c0.37785,-0.85742 0.73061,-1.70229 1.05829,-2.53461c0.33805,-0.83317 0.62939,-1.66243 0.87402,-2.48779c0.18591,-0.52775 0.33026,-1.11477 0.43304,-1.76105c0.11235,-0.65747 0.15377,-1.16268 0.12427,-1.51562c-0.03988,-0.4775 -0.17401,-0.70669 -0.4024,-0.68756c-0.15568,0.01302 -0.37752,0.17271 -0.66553,0.47906c-0.27848,0.29508 -0.61446,0.77791 -1.00793,1.44849c-0.50415,0.84709 -0.98403,1.9221 -1.43964,3.22504c-0.44523,1.30208 -0.91813,2.6483 -1.4187,4.03864zM317.48806,314.09248c0.84408,-1.03231 1.62585,-2.12213 2.34534,-3.26947c0.71859,-1.15771 1.38269,-2.34224 1.99231,-3.55359l-2.24213,0.18768c-0.42017,1.22681 -0.8066,2.41943 -1.1593,3.57788c-0.3536,1.14811 -0.66567,2.16728 -0.93622,3.0575zM328.71481,304.43495c-0.4775,0.03996 -0.88064,-0.09355 -1.20941,-0.40051c-0.32963,-0.31734 -0.5144,-0.71478 -0.55432,-1.19232c-0.05029,-0.60205 0.14467,-1.14624 0.5849,-1.63257c0.44019,-0.48633 0.94574,-0.75338 1.51666,-0.80115c0.50867,-0.0426 0.93734,0.08354 1.28601,0.37842c0.34778,0.28446 0.54032,0.64988 0.57764,1.09625c0.05115,0.61247 -0.14209,1.17743 -0.57971,1.69489c-0.43758,0.51746 -0.97817,0.80312 -1.62177,0.85699zM326.45974,324.17622c-1.17297,0.09819 -2.03202,-0.17487 -2.57715,-0.81915c-0.53471,-0.64514 -0.83936,-1.41408 -0.91394,-2.30682c-0.03988,-0.4775 -0.02311,-0.96497 0.05029,-1.4624c0.07259,-0.50781 0.16939,-0.97585 0.29041,-1.40411l2.52332,-8.45868c0.07263,-0.25696 0.10071,-0.48405 0.08423,-0.68127c-0.026,-0.31144 -0.12683,-0.58002 -0.30249,-0.80573c-0.17566,-0.22571 -0.30416,-0.38743 -0.3855,-0.48517l2.62366,-0.31366c0.48527,-0.07198 0.83258,-0.04356 1.04193,0.08527c0.21977,0.12793 0.33744,0.28532 0.35303,0.47217c0.01648,0.19727 -0.06303,0.55933 -0.23853,1.08618l-3.19135,9.65924c0,0 -0.07133,0.2098 -0.21399,0.62939c-0.14351,0.40926 -0.22563,0.67747 -0.24634,0.80463c-0.05355,0.48531 -0.09025,0.79675 -0.11011,0.93433c-0.02075,0.12716 -0.02983,0.2063 -0.02722,0.23743c0.0026,0.03117 0.01302,0.15574 0.03125,0.37372c0.03467,0.41524 0.16795,0.7595 0.39984,1.03278c0.23104,0.2629 0.60087,0.37305 1.1095,0.33044c0.32178,-0.02694 0.67729,-0.15076 1.06653,-0.37146c0.39958,-0.2216 0.68976,-0.43927 0.87054,-0.65302c0.7299,-0.89734 1.42775,-2.05332 2.09357,-3.46796c0.66492,-1.42501 1.27881,-2.83529 1.84167,-4.23083c0.0977,-0.33223 0.23995,-0.50616 0.42676,-0.52179c0.1661,-0.01392 0.25869,0.0933 0.27777,0.32166c0.01042,0.12459 -0.02024,0.32056 -0.09198,0.58789c-0.26632,0.69128 -0.5966,1.55518 -0.99084,2.59167c-0.3951,1.02608 -0.87889,2.05438 -1.45136,3.0849c-0.57332,1.02014 -1.21716,1.88416 -1.93152,2.59204c-0.71525,0.69747 -1.51925,1.08358 -2.41199,1.15833zM328.91873,324.20558c0.99434,-2.36198 1.92076,-4.72351 2.77924,-7.08459c0.86804,-2.37236 1.75643,-4.62618 2.66516,-6.76147c0.54818,-1.19572 1.01599,-2.03977 1.40344,-2.53217c0.39697,-0.50362 0.95876,-0.78583 1.68536,-0.84662c0.25952,-0.02173 0.53288,-0.00281 0.82007,0.05676c0.29671,0.04834 0.59039,0.06034 0.88104,0.03601c0.18685,-0.01562 0.32568,-0.04291 0.4165,-0.08185c-0.42464,0.29688 -0.94786,0.97829 -1.56964,2.04425c-0.61222,1.05477 -1.2322,2.26697 -1.85992,3.6366c-0.61739,1.36873 -1.16341,2.65312 -1.63806,3.85315c0.54049,-0.78739 1.10736,-1.57178 1.70062,-2.35315c0.59241,-0.79175 1.26007,-1.55845 2.00299,-2.30011c0.64518,-0.66028 1.32713,-1.38112 2.04584,-2.16254c0.72819,-0.79268 1.44993,-1.47506 2.16522,-2.04712c0.72563,-0.57292 1.37909,-0.88371 1.96039,-0.93237c0.21802,-0.01823 0.35946,-0.01438 0.42432,0.01154c0.63411,0.20825 0.97504,0.59784 1.02277,1.16876c0.01648,0.19722 -0.04272,0.48964 -0.17761,0.87726c-0.32418,1.12472 -0.76599,2.28017 -1.32544,3.46637c-0.55941,1.1862 -1.07646,2.37931 -1.55115,3.57935c0.42896,-0.62126 0.96731,-1.37191 1.61505,-2.25195c0.64685,-0.89038 1.31191,-1.68821 1.99518,-2.39349c0.65295,-0.69226 1.48973,-1.43652 2.51031,-2.23279c1.02059,-0.79622 2.03385,-1.49253 3.0398,-2.08893c1.01628,-0.59725 1.84621,-0.92281 2.48981,-0.97668c0.21798,-0.01827 0.37498,-0.01573 0.47101,0.00763c0,0 -0.15045,0.32617 -0.45135,0.97852c-0.29053,0.65153 -0.65843,1.50289 -1.1037,2.55408c-0.44527,1.05123 -0.89054,2.16518 -1.33582,3.34186c-0.44527,1.17664 -0.84253,2.30223 -1.19177,3.37677c-0.33976,1.06327 -0.54244,1.95306 -0.60803,2.66937c-0.05872,0.42305 -0.07334,0.81106 -0.04388,1.164c0.04252,0.50863 0.16412,0.83818 0.36481,0.98865c0.19987,0.14006 0.41398,0.20052 0.64233,0.1814c0.63322,-0.05298 1.25425,-0.43945 1.8631,-1.15942c0.61837,-0.7312 1.1995,-1.59517 1.74341,-2.59192c0.5439,-0.99679 1.01689,-1.96672 1.41895,-2.90979c0.4012,-0.95345 0.69604,-1.67847 0.88452,-2.17505c0.15735,-0.36861 0.33464,-0.56116 0.53186,-0.57764c0.18685,-0.01567 0.29112,0.10626 0.31281,0.36578c0.01298,0.15572 -0.019,0.3361 -0.09595,0.54114c-0.32336,0.75879 -0.70681,1.67417 -1.15033,2.74615c-0.43404,1.06071 -0.94767,2.1072 -1.54089,3.13947c-0.5837,1.021 -1.25826,1.8928 -2.02368,2.61542c-0.75505,0.72172 -1.59448,1.12124 -2.51831,1.19855c-0.67472,0.05648 -1.37329,-0.10978 -2.0957,-0.49878c-0.72237,-0.38904 -1.13387,-1.18563 -1.2345,-2.38977c-0.05636,-0.67472 0.02091,-1.50175 0.23181,-2.48108c0.16423,-0.66182 0.44564,-1.42232 0.84424,-2.28149c0.39775,-0.86955 0.88326,-1.8771 1.45654,-3.02264c0.27669,-0.56673 0.40161,-1.01099 0.37476,-1.33276c-0.0321,-0.38407 -0.24019,-0.56004 -0.62427,-0.52789c-0.32178,0.02694 -0.74951,0.22475 -1.2832,0.59344c-0.52327,0.36784 -1.16673,0.98617 -1.93036,1.85498c-0.46875,0.52006 -1.01013,1.23437 -1.62415,2.14294c-0.61487,0.89815 -1.23405,1.86985 -1.85754,2.9151c-0.62345,1.04521 -1.14962,2.06661 -1.57849,3.06421c-0.42887,0.99756 -0.69037,1.87136 -0.78448,2.6214c-0.4775,0.04 -0.87805,-0.12508 -1.20166,-0.49524c-0.32446,-0.38049 -0.50924,-0.84064 -0.55432,-1.38043c-0.00781,-0.09342 -0.01562,-0.18685 -0.02344,-0.28027c-0.00867,-0.1038 -0.00262,-0.2193 0.01813,-0.3465c0.0837,-1.00004 0.26082,-1.94519 0.53137,-2.83545c0.28097,-0.89111 0.60604,-1.81728 0.97522,-2.7785c0.29659,-0.70426 0.58883,-1.46043 0.87671,-2.26849c0.28788,-0.80811 0.41449,-1.41976 0.37982,-1.83496c-0.02169,-0.25952 -0.13114,-0.38102 -0.32837,-0.3645c-0.21798,0.01823 -0.57216,0.22034 -1.06256,0.60632c-0.48092,0.37476 -1.13304,1.01471 -1.95636,1.91986c-0.72563,0.82381 -1.59389,2.00452 -2.6048,3.54211c-1.0118,1.52722 -2.07666,3.67039 -3.19458,6.4295c-0.16777,0.36943 -0.37793,0.60653 -0.63049,0.7113c-0.24308,0.09351 -0.6345,0.16284 -1.17426,0.20801c-0.35295,0.02954 -0.64836,0.05951 -0.88623,0.0899c-0.23702,0.04073 -0.48008,0.13424 -0.72919,0.28052zM361.15603,321.46034c-1.18335,0.09904 -2.27899,-0.1908 -3.28693,-0.86951c-0.99837,-0.68998 -1.56303,-1.81871 -1.69397,-3.38617c-0.11967,-1.4325 0.09973,-2.9979 0.6582,-4.69623c0.56885,-1.69922 1.34621,-3.21726 2.33209,-4.55414c0.8328,-1.16728 1.79108,-2.14644 2.87482,-2.9375c1.09326,-0.80233 2.14852,-1.24607 3.16577,-1.33124c0.70589,-0.05908 1.32918,0.08213 1.86987,0.42365c0.57446,0.37004 0.89378,0.93915 0.95795,1.70734c0.06677,0.79928 -0.16097,1.70162 -0.68323,2.70703c-0.5223,1.00541 -1.30931,1.97026 -2.36102,2.89453c-0.448,0.3929 -1.02706,0.78109 -1.73718,1.16455c-0.7006,0.37223 -1.41075,0.69299 -2.13043,0.96228c-0.71965,0.26933 -1.31822,0.42397 -1.79572,0.46393c-0.12362,0.39709 -0.2312,0.92352 -0.32275,1.57928c-0.09245,0.64539 -0.11092,1.30025 -0.05542,1.9646c0.06677,0.79928 0.28794,1.50724 0.66351,2.1239c0.37467,0.60628 0.9928,0.87337 1.85437,0.80127c1.04842,-0.08777 1.97827,-0.46873 2.78955,-1.14288c0.81038,-0.68457 1.51003,-1.50621 2.09894,-2.4649c0.59843,-0.96997 1.08742,-1.93599 1.46698,-2.89807c0.38993,-0.96297 0.70335,-1.77842 0.94025,-2.44635c0.14954,-0.462 0.38521,-0.70646 0.70703,-0.7334c0.15568,-0.01302 0.24046,0.06352 0.25433,0.22961c0.01042,0.12455 -0.02327,0.28416 -0.10107,0.47882c-0.36572,1.00277 -0.75824,2.06002 -1.17755,3.17175c-0.42021,1.1014 -0.94379,2.15395 -1.57074,3.15765c-0.61658,1.00285 -1.3889,1.83057 -2.31696,2.48315c-0.92806,0.65259 -2.06163,1.03493 -3.4007,1.14703zM359.59725,313.12379c0.44637,-0.03735 1.17989,-0.26599 2.20056,-0.68591c1.03015,-0.43119 1.94523,-1.05135 2.74524,-1.86047c0.75936,-0.79529 1.32581,-1.64758 1.69934,-2.55688c0.37264,-0.91972 0.53337,-1.68579 0.48218,-2.29822c-0.05806,-0.69552 -0.34143,-1.02199 -0.8501,-0.97943c-0.38407,0.03215 -0.89221,0.33079 -1.52441,0.89594c-0.62187,0.56425 -1.37514,1.49489 -2.25983,2.79193c-0.53788,0.81856 -1.04462,1.69722 -1.5202,2.63599c-0.46521,0.93791 -0.78947,1.6236 -0.97278,2.05707zM376.35867,314.84114l-0.49054,-0.05304l0.02332,-0.28418l10.30817,-24.31952c0.18066,-0.4646 0.49028,-0.76229 0.92883,-0.89307c0.4377,-0.14119 0.91087,-0.23307 1.41949,-0.27563l1.5415,-0.12903l0.24524,0.12061l0.11426,0.24133c-0.04407,0.22319 -0.30953,0.79942 -0.79639,1.7287c-0.48767,0.91886 -1.11719,2.07957 -1.88855,3.48212c-0.7618,1.39132 -1.60101,2.91976 -2.51764,4.58533c-0.91659,1.66561 -1.85394,3.33295 -2.81207,5.00201c-0.94775,1.66817 -1.84017,3.24811 -2.67725,4.73981c-0.83793,1.48128 -1.56215,2.75968 -2.17267,3.8352c-0.6001,1.07463 -1.00867,1.81441 -1.22571,2.21936zM374.40182,320.88478c-0.60205,0.05037 -1.05536,-0.12075 -1.35992,-0.51337c-0.30457,-0.39262 -0.44826,-0.86143 -0.43109,-1.40643c0.01461,-0.57617 0.24591,-1.06069 0.69391,-1.45355c0.448,-0.3929 0.92633,-0.61066 1.435,-0.65326c0.50863,-0.04256 0.9364,0.0732 1.28333,0.34729c0.34696,0.27413 0.54081,0.65513 0.58154,1.14301c0.05029,0.60205 -0.15373,1.16268 -0.61206,1.68188c-0.448,0.51835 -0.97823,0.80316 -1.5907,0.85443z"/></g></g></svg>