<svg xmlns="http://www.w3.org/2000/svg" xmlns:xlink="http://www.w3.org/1999/xlink" version="1.1" width="195.7239990234375" height="61.99199676513672" viewBox="0.1380000114440918 0.003999948501586914 195.7239990234375 61.99199676513672">
  <!-- Exported by Scratch - http://scratch.mit.edu/ -->
  <path id="ID0.7080915062688291" fill="#ff0000" d="M 1.638 1.504 L 194.362 1.504 L 194.362 60.496 L 1.638 60.496 Z " stroke-width="1"/>
  <path id="ID0.05472018662840128" fill="#FF0000" stroke="#000000" stroke-width="3" stroke-linecap="butt" stroke-linejoin="round" d="M 1.638 1.504 L 194.362 1.504 L 194.362 60.496 L 1.638 60.496 Z "/>
  <path id="ID0.21256365533918142" fill="#000000" d="M 24.543 26.64 L 23.449 26.64 L 21.48 19.749 L 19.543 26.64 L 18.449 26.64 L 17.418 17.624 L 17.152 17.624 C 16.986 17.624 16.866 17.593 16.793 17.531 C 16.73 17.468 16.699 17.385 16.699 17.281 C 16.699 17.176 16.73 17.093 16.793 17.031 C 16.866 16.958 16.986 16.921 17.152 16.921 L 19.746 16.921 C 19.923 16.921 20.043 16.958 20.105 17.031 C 20.178 17.093 20.215 17.176 20.215 17.281 C 20.215 17.385 20.178 17.468 20.105 17.531 C 20.043 17.593 19.923 17.624 19.746 17.624 L 18.121 17.624 L 19.043 25.843 L 20.934 19.077 L 21.996 19.077 L 23.934 25.843 L 24.84 17.624 L 23.199 17.624 C 23.033 17.624 22.913 17.593 22.84 17.531 C 22.767 17.468 22.73 17.385 22.73 17.281 C 22.73 17.176 22.767 17.093 22.84 17.031 C 22.913 16.958 23.033 16.921 23.199 16.921 L 25.777 16.921 C 25.944 16.921 26.064 16.958 26.137 17.031 C 26.21 17.093 26.246 17.176 26.246 17.281 C 26.246 17.385 26.21 17.468 26.137 17.531 C 26.064 17.593 25.944 17.624 25.777 17.624 L 25.512 17.624 L 24.543 26.64 Z M 33.698 26.64 L 33.698 25.64 C 32.687 26.494 31.604 26.921 30.448 26.921 C 29.614 26.921 28.963 26.708 28.495 26.281 C 28.026 25.854 27.792 25.333 27.792 24.718 C 27.792 24.041 28.099 23.452 28.713 22.952 C 29.338 22.452 30.245 22.202 31.432 22.202 C 31.755 22.202 32.104 22.223 32.479 22.265 C 32.854 22.307 33.26 22.369 33.698 22.452 L 33.698 21.327 C 33.698 20.942 33.521 20.609 33.167 20.327 C 32.812 20.046 32.281 19.906 31.573 19.906 C 31.031 19.906 30.271 20.062 29.292 20.374 C 29.114 20.437 29 20.468 28.948 20.468 C 28.854 20.468 28.776 20.437 28.713 20.374 C 28.651 20.301 28.62 20.213 28.62 20.109 C 28.62 20.015 28.646 19.942 28.698 19.89 C 28.781 19.807 29.099 19.692 29.651 19.546 C 30.505 19.317 31.156 19.202 31.604 19.202 C 32.479 19.202 33.161 19.421 33.651 19.859 C 34.151 20.286 34.401 20.775 34.401 21.327 L 34.401 25.937 L 35.323 25.937 C 35.5 25.937 35.625 25.973 35.698 26.046 C 35.771 26.109 35.807 26.192 35.807 26.296 C 35.807 26.39 35.771 26.473 35.698 26.546 C 35.625 26.609 35.5 26.64 35.323 26.64 L 33.698 26.64 Z M 33.698 23.171 C 33.364 23.077 33.015 23.01 32.651 22.968 C 32.286 22.916 31.906 22.89 31.51 22.89 C 30.489 22.89 29.698 23.109 29.135 23.546 C 28.698 23.88 28.479 24.27 28.479 24.718 C 28.479 25.145 28.64 25.505 28.963 25.796 C 29.297 26.077 29.781 26.218 30.417 26.218 C 31.021 26.218 31.578 26.098 32.088 25.859 C 32.609 25.619 33.146 25.234 33.698 24.702 L 33.698 23.171 Z M 44.196 19.906 C 44.196 19.749 44.228 19.635 44.29 19.562 C 44.363 19.489 44.446 19.452 44.54 19.452 C 44.644 19.452 44.728 19.489 44.79 19.562 C 44.863 19.635 44.899 19.755 44.899 19.921 L 44.899 21.124 C 44.899 21.291 44.863 21.411 44.79 21.484 C 44.728 21.546 44.644 21.577 44.54 21.577 C 44.446 21.577 44.368 21.551 44.306 21.499 C 44.243 21.437 44.207 21.333 44.196 21.187 C 44.165 20.864 43.993 20.593 43.681 20.374 C 43.222 20.062 42.623 19.906 41.884 19.906 C 41.103 19.906 40.493 20.062 40.056 20.374 C 39.733 20.614 39.571 20.88 39.571 21.171 C 39.571 21.505 39.764 21.786 40.149 22.015 C 40.42 22.161 40.925 22.275 41.665 22.359 C 42.634 22.463 43.306 22.583 43.681 22.718 C 44.212 22.916 44.608 23.187 44.868 23.531 C 45.139 23.874 45.274 24.244 45.274 24.64 C 45.274 25.234 44.988 25.765 44.415 26.234 C 43.853 26.692 43.019 26.921 41.915 26.921 C 40.811 26.921 39.91 26.64 39.212 26.077 C 39.212 26.265 39.196 26.39 39.165 26.452 C 39.144 26.505 39.103 26.551 39.04 26.593 C 38.988 26.624 38.925 26.64 38.853 26.64 C 38.759 26.64 38.675 26.604 38.603 26.531 C 38.54 26.458 38.509 26.338 38.509 26.171 L 38.509 24.734 C 38.509 24.567 38.54 24.452 38.603 24.39 C 38.665 24.317 38.748 24.281 38.853 24.281 C 38.957 24.281 39.04 24.317 39.103 24.39 C 39.175 24.452 39.212 24.541 39.212 24.656 C 39.212 24.906 39.274 25.119 39.399 25.296 C 39.597 25.557 39.905 25.775 40.321 25.952 C 40.748 26.13 41.269 26.218 41.884 26.218 C 42.79 26.218 43.462 26.051 43.899 25.718 C 44.347 25.374 44.571 25.015 44.571 24.64 C 44.571 24.213 44.347 23.869 43.899 23.609 C 43.451 23.348 42.79 23.176 41.915 23.093 C 41.05 22.999 40.431 22.88 40.056 22.734 C 39.681 22.588 39.389 22.374 39.181 22.093 C 38.972 21.801 38.868 21.489 38.868 21.156 C 38.868 20.551 39.16 20.077 39.743 19.734 C 40.326 19.38 41.03 19.202 41.853 19.202 C 42.811 19.202 43.592 19.437 44.196 19.906 Z M 50.664 19.452 L 54.445 19.452 C 54.611 19.452 54.731 19.489 54.804 19.562 C 54.877 19.624 54.914 19.708 54.914 19.812 C 54.914 19.906 54.877 19.989 54.804 20.062 C 54.731 20.124 54.611 20.156 54.445 20.156 L 50.664 20.156 L 50.664 24.796 C 50.664 25.202 50.825 25.541 51.148 25.812 C 51.471 26.083 51.945 26.218 52.57 26.218 C 53.039 26.218 53.544 26.15 54.085 26.015 C 54.638 25.869 55.07 25.708 55.382 25.531 C 55.486 25.458 55.575 25.421 55.648 25.421 C 55.742 25.421 55.82 25.458 55.882 25.531 C 55.945 25.593 55.976 25.671 55.976 25.765 C 55.976 25.848 55.94 25.926 55.867 25.999 C 55.69 26.187 55.257 26.39 54.57 26.609 C 53.893 26.817 53.242 26.921 52.617 26.921 C 51.804 26.921 51.158 26.729 50.679 26.343 C 50.2 25.958 49.96 25.442 49.96 24.796 L 49.96 20.156 L 48.664 20.156 C 48.497 20.156 48.377 20.124 48.304 20.062 C 48.242 19.989 48.21 19.9 48.21 19.796 C 48.21 19.702 48.242 19.624 48.304 19.562 C 48.377 19.489 48.497 19.452 48.664 19.452 L 49.96 19.452 L 49.96 17.39 C 49.96 17.223 49.992 17.104 50.054 17.031 C 50.117 16.958 50.2 16.921 50.304 16.921 C 50.408 16.921 50.492 16.958 50.554 17.031 C 50.627 17.104 50.664 17.223 50.664 17.39 L 50.664 19.452 Z M 66.068 23.218 L 58.959 23.218 C 59.084 24.114 59.464 24.838 60.1 25.39 C 60.735 25.942 61.516 26.218 62.443 26.218 C 62.964 26.218 63.511 26.135 64.084 25.968 C 64.657 25.791 65.12 25.562 65.475 25.281 C 65.579 25.197 65.673 25.156 65.756 25.156 C 65.839 25.156 65.912 25.192 65.975 25.265 C 66.048 25.327 66.084 25.406 66.084 25.499 C 66.084 25.593 66.037 25.687 65.943 25.781 C 65.683 26.051 65.214 26.312 64.537 26.562 C 63.86 26.801 63.162 26.921 62.443 26.921 C 61.256 26.921 60.261 26.531 59.459 25.749 C 58.657 24.958 58.256 24.005 58.256 22.89 C 58.256 21.88 58.631 21.015 59.381 20.296 C 60.131 19.567 61.058 19.202 62.162 19.202 C 63.308 19.202 64.245 19.577 64.975 20.327 C 65.714 21.067 66.079 22.031 66.068 23.218 Z M 65.365 22.499 C 65.219 21.739 64.85 21.119 64.256 20.64 C 63.673 20.15 62.975 19.906 62.162 19.906 C 61.35 19.906 60.652 20.145 60.068 20.624 C 59.485 21.104 59.12 21.729 58.975 22.499 L 65.365 22.499 Z M 83.05 16.077 L 83.05 25.937 L 85.44 25.937 C 85.597 25.937 85.711 25.973 85.784 26.046 C 85.857 26.109 85.894 26.192 85.894 26.296 C 85.894 26.39 85.857 26.473 85.784 26.546 C 85.711 26.609 85.597 26.64 85.44 26.64 L 79.956 26.64 C 79.789 26.64 79.67 26.609 79.597 26.546 C 79.524 26.473 79.487 26.39 79.487 26.296 C 79.487 26.192 79.524 26.109 79.597 26.046 C 79.67 25.973 79.789 25.937 79.956 25.937 L 82.347 25.937 L 82.347 17.046 L 80.065 17.765 C 79.961 17.796 79.883 17.812 79.831 17.812 C 79.748 17.812 79.67 17.775 79.597 17.702 C 79.534 17.63 79.503 17.546 79.503 17.452 C 79.503 17.369 79.529 17.296 79.581 17.234 C 79.623 17.182 79.716 17.135 79.862 17.093 L 83.05 16.077 Z M 90.97 16.921 L 90.97 20.343 C 91.387 20.166 91.783 20.036 92.158 19.952 C 92.533 19.869 92.887 19.827 93.22 19.827 C 94.095 19.827 94.83 20.135 95.423 20.749 C 96.017 21.364 96.314 22.171 96.314 23.171 C 96.314 24.275 95.981 25.171 95.314 25.859 C 94.647 26.546 93.814 26.89 92.814 26.89 C 92.158 26.89 91.528 26.744 90.923 26.452 C 90.486 26.244 90.09 25.989 89.736 25.687 C 89.528 25.499 89.423 25.348 89.423 25.234 C 89.423 25.13 89.455 25.046 89.517 24.984 C 89.59 24.911 89.668 24.874 89.751 24.874 C 89.845 24.874 89.949 24.921 90.064 25.015 C 90.897 25.796 91.804 26.187 92.783 26.187 C 93.595 26.187 94.267 25.911 94.798 25.359 C 95.33 24.807 95.595 24.067 95.595 23.14 C 95.595 22.348 95.366 21.713 94.908 21.234 C 94.449 20.755 93.866 20.515 93.158 20.515 C 92.439 20.515 91.715 20.708 90.986 21.093 C 90.809 21.187 90.684 21.234 90.611 21.234 C 90.517 21.234 90.439 21.202 90.376 21.14 C 90.314 21.067 90.283 20.968 90.283 20.843 L 90.283 16.218 L 95.142 16.218 C 95.309 16.218 95.429 16.255 95.501 16.327 C 95.574 16.39 95.611 16.473 95.611 16.577 C 95.611 16.682 95.574 16.765 95.501 16.827 C 95.429 16.89 95.309 16.921 95.142 16.921 L 90.97 16.921 Z M 110.124 19.452 L 110.124 20.156 C 110.717 19.52 111.311 19.202 111.905 19.202 C 112.269 19.202 112.587 19.301 112.858 19.499 C 113.129 19.687 113.358 19.973 113.545 20.359 C 113.847 19.973 114.155 19.687 114.467 19.499 C 114.79 19.301 115.113 19.202 115.436 19.202 C 115.946 19.202 116.347 19.364 116.639 19.687 C 117.035 20.114 117.233 20.577 117.233 21.077 L 117.233 25.937 L 117.827 25.937 C 117.993 25.937 118.108 25.973 118.17 26.046 C 118.243 26.109 118.28 26.192 118.28 26.296 C 118.28 26.39 118.243 26.473 118.17 26.546 C 118.108 26.609 117.993 26.64 117.827 26.64 L 116.53 26.64 L 116.53 21.14 C 116.53 20.786 116.42 20.494 116.202 20.265 C 115.993 20.025 115.749 19.906 115.467 19.906 C 115.207 19.906 114.936 20.005 114.655 20.202 C 114.374 20.39 114.056 20.76 113.702 21.312 L 113.702 25.937 L 114.28 25.937 C 114.446 25.937 114.566 25.973 114.639 26.046 C 114.712 26.109 114.749 26.192 114.749 26.296 C 114.749 26.39 114.712 26.473 114.639 26.546 C 114.566 26.609 114.446 26.64 114.28 26.64 L 112.999 26.64 L 112.999 21.187 C 112.999 20.812 112.889 20.505 112.67 20.265 C 112.452 20.025 112.207 19.906 111.936 19.906 C 111.686 19.906 111.436 19.989 111.186 20.156 C 110.853 20.374 110.499 20.76 110.124 21.312 L 110.124 25.937 L 110.717 25.937 C 110.884 25.937 111.004 25.973 111.077 26.046 C 111.15 26.109 111.186 26.192 111.186 26.296 C 111.186 26.39 111.15 26.473 111.077 26.546 C 111.004 26.609 110.884 26.64 110.717 26.64 L 108.842 26.64 C 108.676 26.64 108.556 26.609 108.483 26.546 C 108.41 26.473 108.374 26.39 108.374 26.296 C 108.374 26.192 108.41 26.109 108.483 26.046 C 108.556 25.973 108.676 25.937 108.842 25.937 L 109.436 25.937 L 109.436 20.156 L 108.842 20.156 C 108.676 20.156 108.556 20.124 108.483 20.062 C 108.41 19.989 108.374 19.9 108.374 19.796 C 108.374 19.702 108.41 19.624 108.483 19.562 C 108.556 19.489 108.676 19.452 108.842 19.452 L 110.124 19.452 Z M 123.856 15.874 L 123.856 17.671 L 122.825 17.671 L 122.825 15.874 L 123.856 15.874 Z M 123.872 19.452 L 123.872 25.937 L 126.606 25.937 C 126.784 25.937 126.909 25.973 126.981 26.046 C 127.054 26.109 127.091 26.192 127.091 26.296 C 127.091 26.39 127.054 26.473 126.981 26.546 C 126.909 26.609 126.784 26.64 126.606 26.64 L 120.435 26.64 C 120.268 26.64 120.148 26.609 120.075 26.546 C 120.002 26.473 119.966 26.39 119.966 26.296 C 119.966 26.192 120.002 26.109 120.075 26.046 C 120.148 25.973 120.268 25.937 120.435 25.937 L 123.169 25.937 L 123.169 20.156 L 121.138 20.156 C 120.971 20.156 120.851 20.124 120.778 20.062 C 120.705 19.989 120.669 19.906 120.669 19.812 C 120.669 19.708 120.705 19.624 120.778 19.562 C 120.851 19.489 120.971 19.452 121.138 19.452 L 123.872 19.452 Z M 131.449 19.452 L 131.449 20.499 C 131.938 20.01 132.376 19.671 132.761 19.484 C 133.157 19.296 133.605 19.202 134.105 19.202 C 134.636 19.202 135.121 19.317 135.558 19.546 C 135.86 19.713 136.136 19.989 136.386 20.374 C 136.647 20.76 136.777 21.15 136.777 21.546 L 136.777 25.937 L 137.355 25.937 C 137.522 25.937 137.641 25.973 137.714 26.046 C 137.787 26.109 137.824 26.192 137.824 26.296 C 137.824 26.39 137.787 26.473 137.714 26.546 C 137.641 26.609 137.522 26.64 137.355 26.64 L 135.496 26.64 C 135.319 26.64 135.194 26.609 135.121 26.546 C 135.058 26.473 135.027 26.39 135.027 26.296 C 135.027 26.192 135.058 26.109 135.121 26.046 C 135.194 25.973 135.319 25.937 135.496 25.937 L 136.074 25.937 L 136.074 21.671 C 136.074 21.171 135.891 20.755 135.527 20.421 C 135.173 20.077 134.694 19.906 134.089 19.906 C 133.631 19.906 133.23 19.999 132.886 20.187 C 132.553 20.374 132.074 20.833 131.449 21.562 L 131.449 25.937 L 132.246 25.937 C 132.412 25.937 132.527 25.973 132.589 26.046 C 132.662 26.109 132.699 26.192 132.699 26.296 C 132.699 26.39 132.662 26.473 132.589 26.546 C 132.527 26.609 132.412 26.64 132.246 26.64 L 129.964 26.64 C 129.798 26.64 129.678 26.609 129.605 26.546 C 129.532 26.473 129.496 26.39 129.496 26.296 C 129.496 26.192 129.532 26.109 129.605 26.046 C 129.678 25.973 129.798 25.937 129.964 25.937 L 130.761 25.937 L 130.761 20.156 L 130.167 20.156 C 130.001 20.156 129.881 20.124 129.808 20.062 C 129.735 19.989 129.699 19.9 129.699 19.796 C 129.699 19.702 129.735 19.624 129.808 19.562 C 129.881 19.489 130.001 19.452 130.167 19.452 L 131.449 19.452 Z M 146.291 26.64 L 146.291 25.624 C 145.343 26.489 144.317 26.921 143.213 26.921 C 142.525 26.921 142.005 26.734 141.65 26.359 C 141.192 25.869 140.963 25.301 140.963 24.656 L 140.963 20.156 L 140.025 20.156 C 139.859 20.156 139.739 20.124 139.666 20.062 C 139.593 19.989 139.557 19.9 139.557 19.796 C 139.557 19.702 139.593 19.624 139.666 19.562 C 139.739 19.489 139.859 19.452 140.025 19.452 L 141.666 19.452 L 141.666 24.656 C 141.666 25.114 141.807 25.489 142.088 25.781 C 142.38 26.072 142.739 26.218 143.166 26.218 C 144.301 26.218 145.343 25.697 146.291 24.656 L 146.291 20.156 L 145.01 20.156 C 144.843 20.156 144.723 20.124 144.65 20.062 C 144.577 19.989 144.541 19.9 144.541 19.796 C 144.541 19.702 144.577 19.624 144.65 19.562 C 144.723 19.489 144.843 19.452 145.01 19.452 L 146.994 19.452 L 146.994 25.937 L 147.588 25.937 C 147.744 25.937 147.859 25.973 147.932 26.046 C 148.005 26.109 148.041 26.192 148.041 26.296 C 148.041 26.39 148.005 26.473 147.932 26.546 C 147.859 26.609 147.744 26.64 147.588 26.64 L 146.291 26.64 Z M 152.68 19.452 L 156.461 19.452 C 156.628 19.452 156.748 19.489 156.821 19.562 C 156.894 19.624 156.93 19.708 156.93 19.812 C 156.93 19.906 156.894 19.989 156.821 20.062 C 156.748 20.124 156.628 20.156 156.461 20.156 L 152.68 20.156 L 152.68 24.796 C 152.68 25.202 152.842 25.541 153.165 25.812 C 153.487 26.083 153.961 26.218 154.586 26.218 C 155.055 26.218 155.56 26.15 156.102 26.015 C 156.654 25.869 157.086 25.708 157.399 25.531 C 157.503 25.458 157.592 25.421 157.665 25.421 C 157.758 25.421 157.836 25.458 157.899 25.531 C 157.961 25.593 157.993 25.671 157.993 25.765 C 157.993 25.848 157.956 25.926 157.883 25.999 C 157.706 26.187 157.274 26.39 156.586 26.609 C 155.909 26.817 155.258 26.921 154.633 26.921 C 153.821 26.921 153.175 26.729 152.696 26.343 C 152.217 25.958 151.977 25.442 151.977 24.796 L 151.977 20.156 L 150.68 20.156 C 150.514 20.156 150.394 20.124 150.321 20.062 C 150.258 19.989 150.227 19.9 150.227 19.796 C 150.227 19.702 150.258 19.624 150.321 19.562 C 150.394 19.489 150.514 19.452 150.68 19.452 L 151.977 19.452 L 151.977 17.39 C 151.977 17.223 152.008 17.104 152.071 17.031 C 152.133 16.958 152.217 16.921 152.321 16.921 C 152.425 16.921 152.508 16.958 152.571 17.031 C 152.644 17.104 152.68 17.223 152.68 17.39 L 152.68 19.452 Z M 168.085 23.218 L 160.976 23.218 C 161.101 24.114 161.481 24.838 162.116 25.39 C 162.752 25.942 163.533 26.218 164.46 26.218 C 164.981 26.218 165.528 26.135 166.101 25.968 C 166.674 25.791 167.137 25.562 167.491 25.281 C 167.595 25.197 167.689 25.156 167.772 25.156 C 167.856 25.156 167.929 25.192 167.991 25.265 C 168.064 25.327 168.101 25.406 168.101 25.499 C 168.101 25.593 168.054 25.687 167.96 25.781 C 167.7 26.051 167.231 26.312 166.554 26.562 C 165.877 26.801 165.179 26.921 164.46 26.921 C 163.272 26.921 162.278 26.531 161.476 25.749 C 160.674 24.958 160.272 24.005 160.272 22.89 C 160.272 21.88 160.647 21.015 161.397 20.296 C 162.147 19.567 163.075 19.202 164.179 19.202 C 165.325 19.202 166.262 19.577 166.991 20.327 C 167.731 21.067 168.095 22.031 168.085 23.218 Z M 167.382 22.499 C 167.236 21.739 166.866 21.119 166.272 20.64 C 165.689 20.15 164.991 19.906 164.179 19.906 C 163.366 19.906 162.668 20.145 162.085 20.624 C 161.502 21.104 161.137 21.729 160.991 22.499 L 167.382 22.499 Z M 176.818 19.906 C 176.818 19.749 176.849 19.635 176.912 19.562 C 176.985 19.489 177.068 19.452 177.162 19.452 C 177.266 19.452 177.349 19.489 177.412 19.562 C 177.485 19.635 177.521 19.755 177.521 19.921 L 177.521 21.124 C 177.521 21.291 177.485 21.411 177.412 21.484 C 177.349 21.546 177.266 21.577 177.162 21.577 C 177.068 21.577 176.99 21.551 176.927 21.499 C 176.865 21.437 176.828 21.333 176.818 21.187 C 176.787 20.864 176.615 20.593 176.302 20.374 C 175.844 20.062 175.245 19.906 174.505 19.906 C 173.724 19.906 173.115 20.062 172.677 20.374 C 172.354 20.614 172.193 20.88 172.193 21.171 C 172.193 21.505 172.386 21.786 172.771 22.015 C 173.042 22.161 173.547 22.275 174.287 22.359 C 175.255 22.463 175.927 22.583 176.302 22.718 C 176.833 22.916 177.229 23.187 177.49 23.531 C 177.761 23.874 177.896 24.244 177.896 24.64 C 177.896 25.234 177.61 25.765 177.037 26.234 C 176.474 26.692 175.641 26.921 174.537 26.921 C 173.432 26.921 172.531 26.64 171.833 26.077 C 171.833 26.265 171.818 26.39 171.787 26.452 C 171.766 26.505 171.724 26.551 171.662 26.593 C 171.61 26.624 171.547 26.64 171.474 26.64 C 171.38 26.64 171.297 26.604 171.224 26.531 C 171.162 26.458 171.13 26.338 171.13 26.171 L 171.13 24.734 C 171.13 24.567 171.162 24.452 171.224 24.39 C 171.287 24.317 171.37 24.281 171.474 24.281 C 171.578 24.281 171.662 24.317 171.724 24.39 C 171.797 24.452 171.833 24.541 171.833 24.656 C 171.833 24.906 171.896 25.119 172.021 25.296 C 172.219 25.557 172.526 25.775 172.943 25.952 C 173.37 26.13 173.891 26.218 174.505 26.218 C 175.412 26.218 176.083 26.051 176.521 25.718 C 176.969 25.374 177.193 25.015 177.193 24.64 C 177.193 24.213 176.969 23.869 176.521 23.609 C 176.073 23.348 175.412 23.176 174.537 23.093 C 173.672 22.999 173.052 22.88 172.677 22.734 C 172.302 22.588 172.011 22.374 171.802 22.093 C 171.594 21.801 171.49 21.489 171.49 21.156 C 171.49 20.551 171.781 20.077 172.365 19.734 C 172.948 19.38 173.651 19.202 174.474 19.202 C 175.432 19.202 176.214 19.437 176.818 19.906 Z " stroke-width="1"/>
  <path id="ID0.6978882541880012" fill="#000000" d="M 40.689 44.062 C 40.689 45.124 40.309 46.036 39.549 46.796 C 38.788 47.546 37.872 47.921 36.799 47.921 C 35.715 47.921 34.793 47.541 34.033 46.781 C 33.273 46.02 32.892 45.114 32.892 44.062 C 32.892 42.999 33.273 42.093 34.033 41.343 C 34.793 40.583 35.715 40.202 36.799 40.202 C 37.872 40.202 38.788 40.577 39.549 41.327 C 40.309 42.077 40.689 42.989 40.689 44.062 Z M 39.986 44.062 C 39.986 43.187 39.674 42.442 39.049 41.827 C 38.424 41.213 37.668 40.906 36.783 40.906 C 35.898 40.906 35.142 41.218 34.517 41.843 C 33.903 42.458 33.595 43.197 33.595 44.062 C 33.595 44.926 33.903 45.671 34.517 46.296 C 35.142 46.911 35.898 47.218 36.783 47.218 C 37.668 47.218 38.424 46.911 39.049 46.296 C 39.674 45.671 39.986 44.926 39.986 44.062 Z M 46.531 41.156 L 46.531 46.937 L 49.594 46.937 C 49.761 46.937 49.88 46.973 49.953 47.046 C 50.026 47.109 50.063 47.192 50.063 47.296 C 50.063 47.39 50.026 47.473 49.953 47.546 C 49.88 47.609 49.761 47.64 49.594 47.64 L 44.141 47.64 C 43.974 47.64 43.854 47.609 43.781 47.546 C 43.709 47.473 43.672 47.39 43.672 47.296 C 43.672 47.192 43.709 47.109 43.781 47.046 C 43.854 46.973 43.974 46.937 44.141 46.937 L 45.828 46.937 L 45.828 41.156 L 44.313 41.156 C 44.146 41.156 44.026 41.124 43.953 41.062 C 43.88 40.989 43.844 40.9 43.844 40.796 C 43.844 40.702 43.88 40.624 43.953 40.562 C 44.026 40.489 44.146 40.452 44.313 40.452 L 45.828 40.452 L 45.828 39.39 C 45.828 38.807 46.063 38.301 46.531 37.874 C 47.011 37.437 47.646 37.218 48.438 37.218 C 49.094 37.218 49.797 37.281 50.547 37.406 C 50.828 37.447 50.995 37.499 51.047 37.562 C 51.11 37.624 51.141 37.702 51.141 37.796 C 51.141 37.9 51.104 37.984 51.031 38.046 C 50.969 38.109 50.88 38.14 50.766 38.14 C 50.724 38.14 50.651 38.135 50.547 38.124 C 49.714 37.989 49.011 37.921 48.438 37.921 C 47.823 37.921 47.349 38.072 47.016 38.374 C 46.693 38.676 46.531 39.015 46.531 39.39 L 46.531 40.452 L 49.797 40.452 C 49.964 40.452 50.084 40.489 50.156 40.562 C 50.229 40.624 50.266 40.708 50.266 40.812 C 50.266 40.906 50.229 40.989 50.156 41.062 C 50.084 41.124 49.964 41.156 49.797 41.156 L 46.531 41.156 Z M 67.435 47.64 L 64.2 41.156 L 63.997 41.156 C 63.831 41.156 63.711 41.124 63.638 41.062 C 63.565 40.989 63.529 40.906 63.529 40.812 C 63.529 40.739 63.544 40.676 63.575 40.624 C 63.617 40.562 63.664 40.52 63.716 40.499 C 63.779 40.468 63.872 40.452 63.997 40.452 L 65.904 40.452 C 66.07 40.452 66.19 40.489 66.263 40.562 C 66.336 40.624 66.372 40.708 66.372 40.812 C 66.372 40.906 66.336 40.989 66.263 41.062 C 66.19 41.124 66.07 41.156 65.904 41.156 L 64.966 41.156 L 67.81 46.874 L 70.622 41.156 L 69.685 41.156 C 69.518 41.156 69.398 41.124 69.325 41.062 C 69.253 40.989 69.216 40.9 69.216 40.796 C 69.216 40.702 69.253 40.624 69.325 40.562 C 69.398 40.489 69.518 40.452 69.685 40.452 L 71.575 40.452 C 71.753 40.452 71.878 40.489 71.95 40.562 C 72.023 40.624 72.06 40.708 72.06 40.812 C 72.06 40.885 72.034 40.952 71.982 41.015 C 71.94 41.067 71.893 41.104 71.841 41.124 C 71.789 41.145 71.633 41.156 71.372 41.156 L 66.966 50.14 L 68.044 50.14 C 68.211 50.14 68.331 50.171 68.404 50.234 C 68.476 50.307 68.513 50.395 68.513 50.499 C 68.513 50.593 68.476 50.671 68.404 50.734 C 68.331 50.807 68.211 50.843 68.044 50.843 L 64.029 50.843 C 63.862 50.843 63.742 50.812 63.669 50.749 C 63.596 50.687 63.56 50.604 63.56 50.499 C 63.56 50.395 63.596 50.307 63.669 50.234 C 63.742 50.171 63.862 50.14 64.029 50.14 L 66.216 50.14 L 67.435 47.64 Z M 81.496 44.062 C 81.496 45.124 81.116 46.036 80.355 46.796 C 79.595 47.546 78.678 47.921 77.605 47.921 C 76.522 47.921 75.6 47.541 74.84 46.781 C 74.079 46.02 73.699 45.114 73.699 44.062 C 73.699 42.999 74.079 42.093 74.84 41.343 C 75.6 40.583 76.522 40.202 77.605 40.202 C 78.678 40.202 79.595 40.577 80.355 41.327 C 81.116 42.077 81.496 42.989 81.496 44.062 Z M 80.793 44.062 C 80.793 43.187 80.48 42.442 79.855 41.827 C 79.23 41.213 78.475 40.906 77.59 40.906 C 76.704 40.906 75.949 41.218 75.324 41.843 C 74.709 42.458 74.402 43.197 74.402 44.062 C 74.402 44.926 74.709 45.671 75.324 46.296 C 75.949 46.911 76.704 47.218 77.59 47.218 C 78.475 47.218 79.23 46.911 79.855 46.296 C 80.48 45.671 80.793 44.926 80.793 44.062 Z M 90.182 47.64 L 90.182 46.624 C 89.234 47.489 88.208 47.921 87.104 47.921 C 86.416 47.921 85.895 47.734 85.541 47.359 C 85.083 46.869 84.854 46.301 84.854 45.656 L 84.854 41.156 L 83.916 41.156 C 83.75 41.156 83.63 41.124 83.557 41.062 C 83.484 40.989 83.448 40.9 83.448 40.796 C 83.448 40.702 83.484 40.624 83.557 40.562 C 83.63 40.489 83.75 40.452 83.916 40.452 L 85.557 40.452 L 85.557 45.656 C 85.557 46.114 85.698 46.489 85.979 46.781 C 86.27 47.072 86.63 47.218 87.057 47.218 C 88.192 47.218 89.234 46.697 90.182 45.656 L 90.182 41.156 L 88.901 41.156 C 88.734 41.156 88.614 41.124 88.541 41.062 C 88.468 40.989 88.432 40.9 88.432 40.796 C 88.432 40.702 88.468 40.624 88.541 40.562 C 88.614 40.489 88.734 40.452 88.901 40.452 L 90.885 40.452 L 90.885 46.937 L 91.479 46.937 C 91.635 46.937 91.75 46.973 91.823 47.046 C 91.895 47.109 91.932 47.192 91.932 47.296 C 91.932 47.39 91.895 47.473 91.823 47.546 C 91.75 47.609 91.635 47.64 91.479 47.64 L 90.182 47.64 Z M 97.165 40.452 L 97.165 42.218 C 98.071 41.395 98.748 40.869 99.196 40.64 C 99.654 40.4 100.071 40.281 100.446 40.281 C 100.863 40.281 101.248 40.421 101.602 40.702 C 101.967 40.973 102.149 41.182 102.149 41.327 C 102.149 41.432 102.113 41.52 102.04 41.593 C 101.977 41.666 101.889 41.702 101.774 41.702 C 101.722 41.702 101.675 41.692 101.634 41.671 C 101.602 41.65 101.535 41.588 101.43 41.484 C 101.233 41.286 101.061 41.15 100.915 41.077 C 100.769 41.005 100.628 40.968 100.493 40.968 C 100.191 40.968 99.826 41.093 99.399 41.343 C 98.972 41.583 98.227 42.176 97.165 43.124 L 97.165 46.937 L 100.259 46.937 C 100.425 46.937 100.545 46.973 100.618 47.046 C 100.691 47.109 100.727 47.192 100.727 47.296 C 100.727 47.39 100.691 47.473 100.618 47.546 C 100.545 47.609 100.425 47.64 100.259 47.64 L 94.79 47.64 C 94.623 47.64 94.503 47.609 94.43 47.546 C 94.358 47.484 94.321 47.4 94.321 47.296 C 94.321 47.202 94.352 47.124 94.415 47.062 C 94.488 46.999 94.613 46.968 94.79 46.968 L 96.462 46.968 L 96.462 41.156 L 95.18 41.156 C 95.014 41.156 94.894 41.124 94.821 41.062 C 94.748 40.989 94.712 40.9 94.712 40.796 C 94.712 40.702 94.748 40.624 94.821 40.562 C 94.894 40.489 95.014 40.452 95.18 40.452 L 97.165 40.452 Z M 116.974 40.452 L 120.756 40.452 C 120.922 40.452 121.042 40.489 121.115 40.562 C 121.188 40.624 121.224 40.708 121.224 40.812 C 121.224 40.906 121.188 40.989 121.115 41.062 C 121.042 41.124 120.922 41.156 120.756 41.156 L 116.974 41.156 L 116.974 45.796 C 116.974 46.202 117.136 46.541 117.459 46.812 C 117.782 47.083 118.256 47.218 118.881 47.218 C 119.349 47.218 119.855 47.15 120.396 47.015 C 120.948 46.869 121.381 46.708 121.693 46.531 C 121.797 46.458 121.886 46.421 121.959 46.421 C 122.052 46.421 122.131 46.458 122.193 46.531 C 122.256 46.593 122.287 46.671 122.287 46.765 C 122.287 46.848 122.25 46.926 122.177 46.999 C 122 47.187 121.568 47.39 120.881 47.609 C 120.204 47.817 119.552 47.921 118.927 47.921 C 118.115 47.921 117.469 47.729 116.99 47.343 C 116.511 46.958 116.271 46.442 116.271 45.796 L 116.271 41.156 L 114.974 41.156 C 114.808 41.156 114.688 41.124 114.615 41.062 C 114.552 40.989 114.521 40.9 114.521 40.796 C 114.521 40.702 114.552 40.624 114.615 40.562 C 114.688 40.489 114.808 40.452 114.974 40.452 L 116.271 40.452 L 116.271 38.39 C 116.271 38.223 116.302 38.104 116.365 38.031 C 116.427 37.958 116.511 37.921 116.615 37.921 C 116.719 37.921 116.802 37.958 116.865 38.031 C 116.938 38.104 116.974 38.223 116.974 38.39 L 116.974 40.452 Z M 128.957 36.874 L 128.957 38.671 L 127.926 38.671 L 127.926 36.874 L 128.957 36.874 Z M 128.973 40.452 L 128.973 46.937 L 131.707 46.937 C 131.884 46.937 132.009 46.973 132.082 47.046 C 132.155 47.109 132.192 47.192 132.192 47.296 C 132.192 47.39 132.155 47.473 132.082 47.546 C 132.009 47.609 131.884 47.64 131.707 47.64 L 125.535 47.64 C 125.369 47.64 125.249 47.609 125.176 47.546 C 125.103 47.473 125.067 47.39 125.067 47.296 C 125.067 47.192 125.103 47.109 125.176 47.046 C 125.249 46.973 125.369 46.937 125.535 46.937 L 128.27 46.937 L 128.27 41.156 L 126.239 41.156 C 126.072 41.156 125.952 41.124 125.879 41.062 C 125.806 40.989 125.77 40.906 125.77 40.812 C 125.77 40.708 125.806 40.624 125.879 40.562 C 125.952 40.489 126.072 40.452 126.239 40.452 L 128.973 40.452 Z M 135.628 40.452 L 135.628 41.156 C 136.221 40.52 136.815 40.202 137.409 40.202 C 137.774 40.202 138.091 40.301 138.362 40.499 C 138.633 40.687 138.862 40.973 139.05 41.359 C 139.352 40.973 139.659 40.687 139.971 40.499 C 140.294 40.301 140.617 40.202 140.94 40.202 C 141.451 40.202 141.852 40.364 142.143 40.687 C 142.539 41.114 142.737 41.577 142.737 42.077 L 142.737 46.937 L 143.331 46.937 C 143.497 46.937 143.612 46.973 143.675 47.046 C 143.747 47.109 143.784 47.192 143.784 47.296 C 143.784 47.39 143.747 47.473 143.675 47.546 C 143.612 47.609 143.497 47.64 143.331 47.64 L 142.034 47.64 L 142.034 42.14 C 142.034 41.786 141.925 41.494 141.706 41.265 C 141.497 41.025 141.253 40.906 140.971 40.906 C 140.711 40.906 140.44 41.005 140.159 41.202 C 139.878 41.39 139.56 41.76 139.206 42.312 L 139.206 46.937 L 139.784 46.937 C 139.951 46.937 140.07 46.973 140.143 47.046 C 140.216 47.109 140.253 47.192 140.253 47.296 C 140.253 47.39 140.216 47.473 140.143 47.546 C 140.07 47.609 139.951 47.64 139.784 47.64 L 138.503 47.64 L 138.503 42.187 C 138.503 41.812 138.393 41.505 138.175 41.265 C 137.956 41.025 137.711 40.906 137.44 40.906 C 137.19 40.906 136.94 40.989 136.69 41.156 C 136.357 41.374 136.003 41.76 135.628 42.312 L 135.628 46.937 L 136.221 46.937 C 136.388 46.937 136.508 46.973 136.581 47.046 C 136.654 47.109 136.69 47.192 136.69 47.296 C 136.69 47.39 136.654 47.473 136.581 47.546 C 136.508 47.609 136.388 47.64 136.221 47.64 L 134.346 47.64 C 134.18 47.64 134.06 47.609 133.987 47.546 C 133.914 47.473 133.878 47.39 133.878 47.296 C 133.878 47.192 133.914 47.109 133.987 47.046 C 134.06 46.973 134.18 46.937 134.346 46.937 L 134.94 46.937 L 134.94 41.156 L 134.346 41.156 C 134.18 41.156 134.06 41.124 133.987 41.062 C 133.914 40.989 133.878 40.9 133.878 40.796 C 133.878 40.702 133.914 40.624 133.987 40.562 C 134.06 40.489 134.18 40.452 134.346 40.452 L 135.628 40.452 Z M 152.782 44.218 L 145.673 44.218 C 145.798 45.114 146.178 45.838 146.814 46.39 C 147.449 46.942 148.23 47.218 149.157 47.218 C 149.678 47.218 150.225 47.135 150.798 46.968 C 151.371 46.791 151.835 46.562 152.189 46.281 C 152.293 46.197 152.387 46.156 152.47 46.156 C 152.553 46.156 152.626 46.192 152.689 46.265 C 152.762 46.327 152.798 46.406 152.798 46.499 C 152.798 46.593 152.751 46.687 152.657 46.781 C 152.397 47.051 151.928 47.312 151.251 47.562 C 150.574 47.801 149.876 47.921 149.157 47.921 C 147.97 47.921 146.975 47.531 146.173 46.749 C 145.371 45.958 144.97 45.005 144.97 43.89 C 144.97 42.88 145.345 42.015 146.095 41.296 C 146.845 40.567 147.772 40.202 148.876 40.202 C 150.022 40.202 150.96 40.577 151.689 41.327 C 152.428 42.067 152.793 43.031 152.782 44.218 Z M 152.079 43.499 C 151.934 42.739 151.564 42.119 150.97 41.64 C 150.387 41.15 149.689 40.906 148.876 40.906 C 148.064 40.906 147.366 41.145 146.782 41.624 C 146.199 42.104 145.835 42.729 145.689 43.499 L 152.079 43.499 Z M 159.062 45.64 L 159.359 45.64 C 159.672 45.64 159.937 45.749 160.156 45.968 C 160.385 46.187 160.5 46.452 160.5 46.765 C 160.5 47.077 160.385 47.343 160.156 47.562 C 159.937 47.781 159.672 47.89 159.359 47.89 L 159.062 47.89 C 158.75 47.89 158.484 47.781 158.265 47.562 C 158.047 47.343 157.937 47.077 157.937 46.765 C 157.937 46.442 158.047 46.176 158.265 45.968 C 158.495 45.749 158.76 45.64 159.062 45.64 Z " stroke-width="1"/>
</svg>