<svg version="1.1" xmlns="http://www.w3.org/2000/svg" xmlns:xlink="http://www.w3.org/1999/xlink" width="139.76112" height="133.44576" viewBox="0,0,139.76112,133.44576"><g transform="translate(-170.88312,-94.97715)"><g data-paper-data="{&quot;isPaintingLayer&quot;:true}" fill-rule="nonzero" stroke="none" stroke-width="1" stroke-linecap="butt" stroke-linejoin="miter" stroke-miterlimit="10" stroke-dasharray="" stroke-dashoffset="0" style="mix-blend-mode: normal"><g><path d="M171.54256,138.48511c-2.03021,-5.4981 0.78439,-11.60223 6.2866,-13.63396c5.5022,-2.03173 11.60843,0.77832 13.63865,6.27642c2.03021,5.4981 -0.78439,11.60223 -6.2866,13.63396c-5.5022,2.03173 -11.60843,-0.77832 -13.63865,-6.27642z" fill="#b5c5c1"/><path d="M176.63424,136.1409c0.27,-0.2698 0.63,-0.1799 0.9,0c0.45,0.3597 0.81,0.7195 1.26,1.0792c0.27,0.2698 0.18,0.7195 0,0.8993c-0.27,0.2698 -0.63,0.1799 -0.9,0c-0.45,-0.3597 -0.81,-0.7194 -1.26,-1.0792c-0.27,-0.1798 -0.27,-0.6295 0,-0.8993z" fill="#cbd7d4"/><path d="M174.02424,138.7489c0.18,-0.2698 0.54,-0.3597 0.81,-0.1798c0.45,0.2698 0.99,0.4496 1.44,0.6295c0.36,0.0899 0.54,0.3597 0.45,0.7195c0,0.3597 -0.45,0.5396 -0.72,0.4496c-0.54,-0.1798 -1.17,-0.4496 -1.71,-0.7194c-0.36,-0.1799 -0.36,-0.6296 -0.27,-0.8994z" fill="#cbd7d4"/><path d="M180.50424,132.1838c0.18,0.8094 0.54,1.6188 0.99,2.2484c0.45,0.6295 -0.63,1.259 -1.08,0.6295c-0.45,-0.7195 -0.9,-1.7087 -1.08,-2.5181c-0.18,-0.8094 0.99,-1.1691 1.17,-0.3598z" fill="#cbd7d4"/><path d="M184.28424,131.914c0.18,0.7195 0.27,1.349 0.45,2.0685c0.18,0.8094 -0.99,1.1691 -1.17,0.3597c-0.18,-0.7194 -0.27,-1.349 -0.45,-2.0684c-0.09,-0.8094 1.08,-1.1691 1.17,-0.3598z" fill="#cbd7d4"/><path d="M188.24424,131.8241c0.27,0 0.54,0.4497 0.45,0.7195c-0.27,0.5396 -0.36,1.0792 -0.27,1.7087c0,0.3597 -0.36,0.6295 -0.63,0.6295c-0.36,0 -0.63,-0.2698 -0.63,-0.6295c-0.09,-0.7195 0,-1.4389 0.27,-2.0685c0.09,-0.2698 0.36,-0.5396 0.81,-0.3597z" fill="#cbd7d4"/><path d="M189.77424,135.4214c0.36,0 0.54,0.4497 0.45,0.7195c-0.18,0.4497 -0.36,0.9893 -0.45,1.5289c0,0.3597 -0.45,0.5395 -0.72,0.4496c-0.36,-0.0899 -0.54,-0.3597 -0.45,-0.7194c0.09,-0.5396 0.27,-0.9893 0.45,-1.5289c0.09,-0.2698 0.45,-0.5396 0.72,-0.4497z" fill="#cbd7d4"/><path d="M174.74424,129.7557c0.27,-0.1799 0.63,-0.09 0.81,0.1798c0.36,0.7195 0.9,1.349 1.26,2.0685c0.36,0.7194 -0.72,1.349 -1.08,0.6295c-0.36,-0.7195 -0.9,-1.349 -1.26,-2.0684c-0.18,-0.2698 -0.09,-0.6296 0.27,-0.8094z" fill="#cbd7d4"/><path d="M178.70424,127.0577c0.18,0.7194 0.36,1.4389 0.54,2.1584c0.18,0.8094 -0.99,1.1691 -1.17,0.3597c-0.09,-0.7195 -0.36,-1.4389 -0.54,-2.1584c-0.27,-0.7195 0.9,-1.0792 1.17,-0.3597z" fill="#cbd7d4"/><path d="M182.84424,126.8778c0.18,0.9893 0.18,1.9785 0.45,2.9678c0.27,0.8094 -0.99,1.1691 -1.17,0.3597c-0.27,-1.0792 -0.36,-2.2483 -0.45,-3.3275c-0.09,-0.8094 1.17,-0.8094 1.17,0z" fill="#cbd7d4"/><path d="M186.53424,126.6979c0.36,0 0.63,0.2698 0.63,0.6296c0,0.2698 0.09,0.4496 0.09,0.7194c0,0.3598 -0.36,0.6296 -0.63,0.6296c-0.36,0 -0.63,-0.2698 -0.63,-0.6296c0,-0.2698 -0.09,-0.4496 -0.09,-0.7194c0,-0.2698 0.36,-0.6296 0.63,-0.6296z" fill="#cbd7d4"/><path d="M171.32424,133.8026c0.27,-0.2698 0.63,-0.1798 0.9,0c0.54,0.4497 0.99,0.8094 1.53,1.2591c0.27,0.2698 0.18,0.7195 0,0.8993c-0.27,0.2698 -0.63,0.1799 -0.9,0c-0.54,-0.4496 -0.99,-0.8094 -1.53,-1.259c-0.27,-0.2698 -0.18,-0.7195 0,-0.8994z" fill="#cbd7d4"/><path d="M180.05424,138.4791c0.27,-0.2698 0.63,-0.1798 0.9,0c0.54,0.4497 0.99,0.9893 1.44,1.439c0.54,0.6295 -0.36,1.4389 -0.9,0.8993c-0.45,-0.5396 -0.9,-0.9893 -1.44,-1.4389c-0.27,-0.1799 -0.27,-0.6296 0,-0.8994z" fill="#cbd7d4"/><path d="M177.98424,141.4469c0.27,-0.2698 0.63,-0.1798 0.9,0c0.09,0.1799 0.27,0.1799 0.45,0.2698c0.36,0.09 0.54,0.3598 0.45,0.7195c0,0.3597 -0.36,0.5396 -0.72,0.4497c-0.36,-0.09 -0.63,-0.2698 -0.99,-0.5396c-0.27,-0.2698 -0.18,-0.7195 -0.09,-0.8994z" fill="#cbd7d4"/><path d="M184.01424,136.6805c-0.09,0.8094 0,1.5288 0.09,2.2483c0,0.3597 -0.36,0.6295 -0.63,0.6295c-0.36,0 -0.63,-0.2698 -0.63,-0.6295c-0.09,-0.8094 -0.18,-1.5288 -0.09,-2.2483c0.09,-0.8094 1.26,-0.8094 1.26,0z" fill="#cbd7d4"/><path d="M186.53424,136.8604c0.36,0.0899 0.54,0.3597 0.45,0.7194c-0.09,0.3598 -0.09,0.6295 -0.18,0.9893c0,0.3597 -0.45,0.5396 -0.72,0.4496c-0.36,-0.0899 -0.54,-0.3597 -0.45,-0.7194c0.09,-0.3597 0.09,-0.6295 0.18,-0.9893c0,-0.3597 0.45,-0.5396 0.72,-0.4496z" fill="#cbd7d4"/></g><path d="M198.50424,194.1476c-2.52,-6.2054 4.14,-4.3168 5.58,-8.6336c2.79,-8.0939 -9.36,-20.8644 -3.96,-30.4872c5.04,-8.9034 22.05,-4.4067 28.26,-1.349c8.46,4.1369 13.23,15.9181 17.64,24.7315c3.24,6.4752 1.53,13.49 -5.31,16.0081c-6.48,2.3383 -11.52,2.3383 -17.91,4.1369c2.7,3.3275 9.9,3.3275 13.95,5.1262c1.26,0.5396 3.87,0.8094 5.58,1.9785c1.98,1.349 2.88,3.6873 3.69,5.3061c1.89,4.2268 -4.14,1.8885 -6.39,1.259c10.71,8.9034 -18.81,-3.3275 -22.23,-5.7557c0,0 -17.91,-9.8027 -18.9,-12.3208z" fill="#b5c5c1"/><path d="M269.51424,175.5315c1.08,-3.5973 3.24,-6.8349 5.49,-9.9826c4.95,-6.8349 28.26,-4.5865 26.55,3.2376c-1.8,8.2739 -6.48,18.7061 -13.41,24.9114c-3.24,2.8779 -7.65,12.5007 -7.65,12.5007c0,0 -5.49,8.2738 -6.48,9.353c-5.04,5.2161 -7.83,0.4497 -5.49,-2.2483c-3.15,2.3383 -1.71,-1.6188 -0.27,-3.2376c0,0 4.77,-4.7664 4.59,-6.2953c-0.63,-4.2268 -5.76,-20.4147 -3.33,-28.2389z" fill="#b5c5c1"/><path d="M226.67424,203.8604c-8.82,1.5288 -30.33,-4.5866 -37.44,-9.5329c-11.52,-7.9141 -26.28,-28.8685 -10.17,-48.7437c13.32,-16.3677 48.24,4.3168 61.92,8.094c7.83,2.1584 19.17,6.2054 27,2.2483c2.43,-1.259 3.51,-3.8671 5.85,-4.9463c3.96,-1.8886 16.92,-7.9141 19.98,-4.9463c7.11,6.8349 19.08,10.5222 9.18,33.1852c-8.91,20.3249 -43.56,22.9329 -60.3,24.5517z" fill="#cbd7d4"/><g><path d="M279.77424,149.9906c-13.5,3.1476 -29.34,-4.9464 -39.69,-11.6014c-7.11,-4.4966 -15.03,-15.1087 -18.36,-21.9436c-2.88,-6.1154 25.29,2.8778 32.67,7.2846c12.51,7.4644 23.94,18.2563 34.92,27.6993z" fill="#c9d8d5"/><path d="M290.93424,147.4724c-9.9,-0.9892 -21.69,-17.5369 -26.37,-25.2711c-5.04,-8.3638 -7.92,-26.8899 -7.92,-26.8899c4.68,-3.1477 18.81,16.8174 23.58,22.9328c6.93,8.9933 15.93,18.796 19.8,29.6779z" fill="#b5c5c1"/><g><path d="M279.14424,176.9704c-12.51,-7.1946 -18.81,-27.5194 -1.89,-38.5812c8.1,-5.306 16.02,-2.8778 22.14,2.698c2.43,2.2483 4.23,5.306 6.39,7.9141c4.32,5.396 4.68,10.1624 4.86,14.749c0,0 0,4.8564 -1.8,9.1731c-1.08,2.6081 -2.88,5.0363 -5.76,6.2054c-8.64,3.3275 -14.31,3.4175 -23.94,-2.1584z" fill="#c9d8d5"/><path d="M277.16424,175.8013c-12.33,-6.0255 -17.82,-27.8792 -1.35,-36.9624c0.99,-0.5396 1.98,-0.8993 2.88,-1.2591c-0.54,0.2698 -0.99,0.5396 -1.53,0.8993c-16.02,10.4323 -11.16,29.2282 0,37.3222z" fill="#b5c5c1"/><g><g><g fill="#3c4f45"><path d="M306.14424,165.7288c0.45,0.0899 1.08,0.1799 1.53,0c0.45,-0.1799 0.27,-0.7194 0.27,-1.0792c0.09,-0.8094 1.35,-0.8094 1.26,0c-0.09,0.8094 0,1.5289 -0.81,2.0685c-0.81,0.5396 -1.89,0.4496 -2.7,0.2698c-0.81,-0.1799 -0.45,-1.439 0.45,-1.2591z"/><path d="M308.39424,165.9087c0.81,1.349 1.35,2.7879 1.62,4.3168c0.09,0.8094 -1.17,1.1691 -1.26,0.3597c-0.18,-1.4389 -0.72,-2.7879 -1.44,-4.047c-0.36,-0.7195 0.72,-1.349 1.08,-0.6295z"/><path d="M306.95424,170.4053c0.72,0.3598 1.62,0 2.07,-0.6295c0.45,-0.7195 1.53,0 1.08,0.6295c-0.9,1.2591 -2.43,1.7087 -3.78,1.0792c-0.72,-0.3597 -0.09,-1.4389 0.63,-1.0792z"/></g><g fill="#b5c5c1"><path d="M288.23424,168.6067c-1.62,0.1798 -3.15,0.7194 -4.5,1.5288c-0.72,0.3598 -1.35,-0.7194 -0.63,-1.0792c1.62,-0.8993 3.33,-1.4389 5.13,-1.7087c0.81,-0.0899 0.81,1.0792 0,1.2591z"/><path d="M290.75424,170.4053c-2.43,1.1692 -5.13,2.3383 -7.29,3.9571c-0.63,0.4496 -1.26,-0.6296 -0.63,-1.0792c2.25,-1.6188 4.86,-2.7879 7.29,-3.9571c0.72,-0.3597 1.35,0.7195 0.63,1.0792z"/><path d="M290.93424,172.8335c-0.99,1.0792 -1.98,2.1584 -2.88,3.2376c-0.54,0.6295 -1.44,-0.2698 -0.9,-0.8993c0.99,-1.0792 1.89,-2.1584 2.88,-3.2376c0.54,-0.6295 1.35,0.2698 0.9,0.8993z"/></g></g><path d="M286.12838,158.70684c-0.70305,-1.25717 -0.49927,-2.709 0.45515,-3.24275c0.95443,-0.53375 2.29808,0.0527 3.00114,1.30987c0.70305,1.25717 0.49927,2.709 -0.45515,3.24275c-0.95443,0.53375 -2.29808,-0.0527 -3.00114,-1.30987z" fill="#3c4f45"/><path d="M279.23424,152.5087c0.63,-1.6188 2.16,-3.2376 4.05,-3.1477c0.81,0.09 0.81,1.2591 0,1.2591c-1.35,-0.0899 -2.43,1.0792 -2.88,2.2483c-0.27,0.7195 -1.44,0.3597 -1.17,-0.3597z" fill="#b5c5c1"/></g></g></g><g><path d="M190.31424,170.5852c2.43,-0.2698 5.31,-0.1799 8.91,0c9.81,0.5396 22.41,8.9933 27.81,21.0443c-6.3,-7.5544 -15.75,-17.2671 -24.12,-19.4255c-2.97,-0.7195 -7.74,-1.7087 -12.6,-1.6188z" fill="#b5c5c1"/><path d="M183.11424,216.2711c-3.78,-5.5758 3.15,-5.0362 3.69,-9.6228c1.08,-8.4537 -13.5,-18.5262 -10.08,-29.0483c3.15,-9.8027 19.44,-7.1047 26.19,-5.396c9.18,2.3382 19.53,13.5798 25.65,21.3141c4.5,5.6657 4.23,12.9503 -1.98,16.7275c-5.85,3.5973 -12.87,2.2483 -18.81,5.2161c3.33,2.698 10.35,1.1691 14.67,2.1584c1.35,0.2698 3.96,0 5.85,0.8094c2.25,0.8993 3.6,2.9678 4.68,4.4966c2.7,3.7772 -3.69,2.698 -6.03,2.5181c12.33,6.4752 -19.08,0.6296 -22.86,-1.0791c0.09,0 -19.44,-5.8457 -20.97,-8.094z" fill="#cbd7d4"/><path d="M225.50424,224.0953c0.99,0.2698 1.89,0.4496 2.79,0.9892c0.9,0.5396 1.53,1.349 2.16,2.1584c0.45,0.6295 -0.63,1.2591 -1.08,0.6295c-1.17,-1.5288 -2.43,-2.0684 -4.23,-2.5181c-0.72,-0.1798 -0.45,-1.349 0.36,-1.259z" fill="#b5c5c1"/></g><g><path d="M256.28424,186.3234c1.98,-3.2375 4.77,-5.8456 7.74,-8.2738c6.48,-5.396 34.83,0.8094 31.23,8.004c-3.78,7.5544 -20.16,21.5839 -25.38,22.4833c-4.23,0.8094 -10.53,10.2523 -10.53,10.2523c0,0 -7.38,6.655 -8.64,7.4644c-6.21,3.8672 -7.65,-1.0792 -4.68,-3.0577c-3.69,1.5289 -1.26,-2.5181 0.45,-3.6872c0,0 5.85,-3.4175 6.03,-4.9463c0.45,-4.2269 -0.54,-21.2242 3.78,-28.239z" fill="#cbd7d4"/><path d="M244.85424,222.8362c1.62,-0.1799 3.24,-1.2591 4.05,-2.698c0.45,-0.7195 1.53,-0.0899 1.08,0.6295c-1.08,1.7987 -3.06,3.0578 -5.13,3.2376c-0.81,0.09 -0.81,-1.1691 0,-1.1691z" fill="#b5c5c1"/></g></g></g></svg>