<svg xmlns="http://www.w3.org/2000/svg" xmlns:xlink="http://www.w3.org/1999/xlink" version="1.1" width="146.1789581298828" height="153.6804229736328" viewBox="-0.028958892822265603 0.7000370264053345 146.1789581298828 153.6804229736328">
  <!-- Exported by Scratch - http://scratch.mit.edu/ -->
  <g id="ID0.17520211730152369">
    <g id="ID0.022685101721435785">
      <g id="ID0.08306767325848341">
        <path id="ID0.9066843260079622" fill="#ffab19" stroke="#001026" stroke-width="1.2" stroke-linecap="round" stroke-linejoin="round" d="M 49.596 109.596 C 50.83 110.213 53.452 111.601 49.75 116.846 C 46.047 122.091 35.403 123.171 34.169 123.171 C 29.387 123.326 23.524 123.326 17.045 121.166 C -1.775 114.995 -1.93 94.786 4.087 91.546 C 9.949 88.307 12.571 100.803 21.056 108.362 C 24.759 111.755 29.232 112.99 32.935 113.761 C 38.18 114.687 48.207 108.824 49.596 109.596 Z "/>
        <path id="ID0.6775829517282546" fill="#ffffff" stroke="none" stroke-width="1" stroke-linecap="butt" stroke-linejoin="miter" d="M 11.337 97.1 C 13.806 101.265 18.588 107.127 18.588 107.127 C 18.588 107.127 12.88 105.739 9.64 108.362 C 7.018 110.367 7.635 113.761 7.943 114.841 C 5.938 112.835 3.47 110.059 1.927 104.659 C 0.384 99.26 1.927 92.781 5.012 91.855 C 8.098 91.238 8.869 93.552 11.337 97.1 Z "/>
      </g>
      <path id="ID0.7558122044429183" fill="#ffab19" stroke="#001026" stroke-width="1.2" stroke-linecap="round" stroke-linejoin="round" d="M 57.309 125.64 C 54.532 127.491 44.968 134.279 32.78 138.135 L 32.163 138.289 C 31.546 138.444 31.238 139.215 31.546 139.832 C 34.169 143.535 38.951 150.939 30.466 153.562 C 22.29 156.185 7.018 134.433 13.497 128.725 C 16.428 126.565 19.051 127.645 20.439 128.262 C 21.21 128.571 21.982 128.571 22.753 128.416 C 24.604 127.799 27.998 126.565 30.621 125.177 C 37.254 121.783 38.797 120.394 41.882 118.08 C 44.968 115.766 52.064 110.059 57.772 114.995 C 62.708 119.16 59.932 123.788 57.309 125.64 Z "/>
      <path id="ID0.3726932913996279" fill="#ffab19" stroke="#001026" stroke-width="1.2" stroke-linecap="round" stroke-linejoin="round" d="M 81.838 93.552 C 82.609 94.169 92.019 105.276 95.105 102.499 C 98.807 99.26 103.898 92.935 109.451 98.026 C 115.005 103.117 104.515 111.755 100.041 114.07 C 89.397 118.852 80.758 109.75 78.906 107.282 C 77.055 104.813 73.816 100.648 73.816 96.637 C 73.97 92.318 79.215 91.238 81.838 93.552 Z "/>
      <g id="ID0.16492910590022802">
        <path id="ID0.7683891453780234" fill="#ffab19" stroke="#001026" stroke-width="1.2" stroke-linecap="round" stroke-linejoin="round" d="M 81.992 129.496 C 85.231 132.427 92.328 138.444 92.328 138.444 C 92.328 138.444 114.388 134.587 114.388 145.694 C 114.388 152.328 103.281 153.871 88.317 152.482 C 87.391 152.328 86.466 152.019 85.694 151.402 C 82.3 148.471 72.582 139.832 66.411 133.816 C 57.309 124.868 49.75 119.006 49.75 119.006 C 36.637 106.202 47.282 100.803 51.447 93.398 C 55.304 87.073 57 88.307 66.257 90.158 C 71.502 90.929 74.587 91.392 77.981 91.238 C 83.072 91.084 82.146 98.488 80.758 102.345 C 80.758 102.345 78.598 108.053 76.592 110.984 C 74.124 114.532 72.273 116.846 70.422 118.235 Z "/>
        <path id="ID0.09933654079213738" fill="#ffffff" stroke="none" stroke-width="1" stroke-linecap="butt" stroke-linejoin="miter" d="M 69.033 118.08 C 69.033 118.08 66.719 116.229 64.251 113.915 C 61.166 111.138 58.08 108.824 61.166 104.042 C 63.943 100.34 66.565 95.403 73.507 99.877 C 80.141 104.042 77.21 107.899 77.21 107.899 C 73.816 114.841 69.033 118.08 69.033 118.08 Z "/>
      </g>
      <path id="ID0.8781115435995162" fill="#ffab19" stroke="#001026" stroke-width="1.2" stroke-linecap="round" stroke-linejoin="round" d="M 45.739 105.431 C 49.133 109.75 54.378 115.149 47.744 119.623 C 38.643 124.714 31.084 109.287 29.541 103.888 C 28.152 99.106 32.163 96.02 35.557 93.398 C 42.191 88.615 47.744 84.296 53.915 86.61 C 61.629 89.387 56.075 95.557 52.218 98.334 C 49.904 100.031 47.59 101.882 45.893 102.962 C 45.43 103.734 45.276 104.659 45.739 105.431 Z "/>
      <g id="ID0.9110631486400962">
        <path id="ID0.42648616526275873" fill="#ffab19" stroke="#001026" stroke-width="1.2" stroke-linecap="butt" stroke-linejoin="miter" d="M 94.333 1.454 C 94.796 1.146 95.567 1.3 95.722 1.917 L 99.733 18.424 C 99.733 18.424 109.606 25.674 112.537 30.765 C 117.473 39.25 117.628 46.192 117.628 46.192 C 117.628 46.192 128.581 49.431 130.432 58.225 C 132.283 67.018 125.495 83.679 96.493 89.387 C 67.491 95.095 44.196 87.227 33.243 69.641 C 22.29 52.054 39.568 31.074 38.643 32.308 L 35.403 4.694 C 35.249 4.077 36.02 3.614 36.637 3.923 L 55.304 16.11 C 55.304 16.11 62.246 13.487 69.496 13.179 C 73.816 12.87 77.518 13.179 81.066 13.796 Z "/>
        <path id="ID0.45390517776831985" fill="#ffffff" stroke="none" stroke-width="1" stroke-linecap="butt" stroke-linejoin="miter" d="M 117.165 46.809 C 117.165 46.809 127.809 49.586 129.66 58.379 C 131.512 67.172 124.107 83.062 95.413 88.615 C 58.08 96.329 40.34 74.114 50.676 57.762 C 61.011 41.255 78.752 55.294 91.711 54.368 C 102.818 53.597 104.052 43.878 117.165 46.809 Z "/>
        <path id="ID0.7853487846441567" fill="#ffffff" stroke="#001026" stroke-width="1.2" stroke-linecap="round" stroke-linejoin="round" d="M 68.571 63.316 C 68.571 62.698 69.188 62.236 69.805 62.39 C 72.736 63.47 81.066 65.938 90.322 66.555 C 98.653 67.018 103.589 66.555 105.903 66.092 C 106.675 65.938 107.292 66.709 106.983 67.481 C 105.595 71.646 99.733 83.216 83.534 82.29 C 69.496 80.748 68.108 70.875 68.571 63.316 Z "/>
        <path id="ID0.25523004308342934" fill="none" stroke="#001026" stroke-width="1.2" stroke-linecap="round" stroke-linejoin="round" d="M 145.55 48.506 C 138.299 54.368 127.192 54.522 127.192 54.522 "/>
        <path id="ID0.5976078724488616" fill="none" stroke="#001026" stroke-width="1.2" stroke-linecap="round" stroke-linejoin="round" d="M 143.545 65.784 C 133.826 66.555 127.809 63.624 127.809 63.624 "/>
        <path id="ID0.21635495079681277" fill="#001026" stroke="#001026" stroke-width="1.2" stroke-linecap="round" stroke-linejoin="round" d="M 91.094 50.357 C 94.333 50.357 97.727 50.666 97.881 51.745 C 98.036 53.905 95.722 58.225 93.253 58.379 C 90.477 58.687 83.997 54.831 83.997 52.363 C 83.843 50.511 88.008 50.357 91.094 50.357 Z "/>
        <path id="ID0.42778444522991776" fill="none" stroke="#001026" stroke-width="1.2" stroke-linecap="round" stroke-linejoin="round" d="M 21.673 48.043 C 21.673 48.043 34.94 52.363 40.34 57.145 "/>
        <path id="ID0.7694068923592567" fill="none" stroke="#001026" stroke-width="1.2" stroke-linecap="round" stroke-linejoin="round" d="M 40.802 62.544 C 34.169 65.167 22.753 63.47 22.753 63.47 "/>
        <g id="ID0.7660351046361029">
          <path id="ID0.6415835176594555" fill="#ffffff" stroke="#001026" stroke-width="1.2" stroke-linecap="round" stroke-linejoin="round" d="M 109.297 32.308 C 113.771 39.25 113.925 47.117 109.606 49.894 C 105.286 52.671 98.19 49.431 93.562 42.489 C 89.088 35.547 88.934 27.68 93.253 24.903 C 97.573 21.972 104.823 25.366 109.297 32.308 Z "/>
          <path id="ID0.48859164165332913" fill="#001026" stroke="none" stroke-width="1" stroke-linecap="butt" stroke-linejoin="miter" d="M 108.68 41.101 C 108.68 42.798 107.446 44.186 105.903 44.186 C 104.361 44.186 103.126 42.798 103.126 41.101 C 103.126 39.404 104.361 38.016 105.903 38.016 C 107.446 38.016 108.68 39.404 108.68 41.101 "/>
        </g>
        <g id="ID0.06664933077991009">
          <path id="ID0.9984318781644106" fill="#ffffff" stroke="#001026" stroke-width="1.2" stroke-linecap="round" stroke-linejoin="round" d="M 71.039 36.627 C 75.667 43.415 75.358 51.745 71.193 54.677 C 66.102 57.608 59.315 55.448 54.686 48.66 C 49.904 41.872 49.596 33.079 54.378 29.685 C 59.16 26.137 66.411 29.839 71.039 36.627 Z "/>
          <path id="ID0.572127325925976" fill="#001026" stroke="none" stroke-width="1" stroke-linecap="butt" stroke-linejoin="miter" d="M 70.113 45.575 C 70.113 47.272 68.879 48.66 67.336 48.66 C 65.794 48.66 64.56 47.272 64.56 45.575 C 64.56 43.878 65.794 42.489 67.336 42.489 C 68.879 42.644 70.113 43.878 70.113 45.575 "/>
        </g>
      </g>
    </g>
  </g>
</svg>