<svg version="1.1" xmlns="http://www.w3.org/2000/svg" xmlns:xlink="http://www.w3.org/1999/xlink" width="850.126" height="481.71" viewBox="0,0,850.126,481.71"><defs><radialGradient cx="233.1342" cy="-0.2317" r="293.5435" gradientUnits="userSpaceOnUse" id="color-1"><stop offset="0" stop-color="#aeaeae"/><stop offset="1" stop-color="#8f8f8f"/></radialGradient><linearGradient x1="240.0036" y1="268.5371" x2="240.0036" y2="399.1677" gradientUnits="userSpaceOnUse" id="color-2"><stop offset="0" stop-color="#919191"/><stop offset="1" stop-color="#7b7b7b"/></linearGradient></defs><g transform="translate(185.059,60.042)"><g data-paper-data="{&quot;isPaintingLayer&quot;:true}" fill-rule="nonzero" stroke-linejoin="miter" stroke-miterlimit="10" stroke-dasharray="" stroke-dashoffset="0" style="mix-blend-mode: normal"><path d="M-44.141,327.096v-361.862h587.088v361.862h-367.868l-0.033,-233.758l-130.598,-0.233v233.991z" fill="url(#color-1)" stroke="#000000" stroke-width="4" stroke-linecap="butt"/><path d="M-183.059,399.168v-130.631h846.126v130.631z" fill="url(#color-2)" stroke="#000000" stroke-width="4" stroke-linecap="butt"/><path d="M-143.24,372.141v-408.409h150.151v303.304z" fill="#7d7d7d" stroke="#000000" stroke-width="4" stroke-linecap="butt"/><path d="M523.923,267.531v-303.303h111.111v408.408z" fill="#7d7d7d" stroke="#000000" stroke-width="4" stroke-linecap="butt"/><path d="M205.605,150.607l-10.695,-133.205l97.285,-7.811l10.695,133.205z" fill="#ffffff" stroke="#000000" stroke-width="4" stroke-linecap="butt"/><path d="M72.15,414.668v-75.5h31.011v75.5z" fill="#a95a00" stroke="#000000" stroke-width="4" stroke-linecap="butt"/><path d="M420.889,231.451v-66h76v66z" fill="#000000" stroke="#000000" stroke-width="4" stroke-linecap="butt"/><path d="M383.456,419.668v-75.5h32.512v75.5z" fill="#a95a00" stroke="#000000" stroke-width="4" stroke-linecap="butt"/><path d="M37.939,345.114v-36.036h418.919v36.036z" fill="#a95a00" stroke="#000000" stroke-width="4" stroke-linecap="butt"/><text transform="translate(204.8909,67.14311) rotate(-3.92586) scale(0.91977,0.72319) skewX(1.92321)" font-size="22" xml:space="preserve" fill="#000000" fill-rule="nonzero" stroke="none" stroke-width="1" stroke-linecap="butt" stroke-linejoin="miter" stroke-miterlimit="10" stroke-dasharray="" stroke-dashoffset="0" font-family="Sans Serif" font-weight="400" text-anchor="start" style="mix-blend-mode: normal"><tspan x="0" dy="0">WORK</tspan><tspan x="0" dy="24.86px">HARD!</tspan><tspan x="0" dy="24.86px">OR</tspan><tspan x="0" dy="24.86px">NO PAY</tspan><tspan x="0" dy="24.86px">CHECK</tspan></text><path d="M247.144,-6.042v-52" fill="none" stroke="#000000" stroke-width="4" stroke-linecap="round"/><path d="M37.939,309.078l84.084,-84.084h259.76l75.075,84.084z" fill="#a95a00" stroke="#000000" stroke-width="4" stroke-linecap="butt"/><path d="M426.889,226.951v-55.855h64.319v55.855z" fill="#ff0000" stroke="#000000" stroke-width="4" stroke-linecap="butt"/><path d="M149,203h63v58h-63z" fill="#212121" stroke="#000000" stroke-width="5" stroke-linecap="butt"/><text transform="translate(154.842,222.14973) scale(0.42114,0.59927)" font-size="22" xml:space="preserve" fill="#ffffff" fill-rule="nonzero" stroke="none" stroke-width="1" stroke-linecap="butt" stroke-linejoin="miter" stroke-miterlimit="10" stroke-dasharray="" stroke-dashoffset="0" font-family="Sans Serif" font-weight="400" text-anchor="start" style="mix-blend-mode: normal"><tspan x="0" dy="0">Space</tspan><tspan x="0" dy="24.86px">for</tspan><tspan x="0" dy="24.86px">Door Light</tspan></text><text transform="translate(208.5,40) scale(0.5,0.5)" font-size="40" xml:space="preserve" fill="#000000" fill-rule="nonzero" stroke="none" stroke-width="1" stroke-linecap="butt" stroke-linejoin="miter" stroke-miterlimit="10" stroke-dasharray="" stroke-dashoffset="0" font-family="Sans Serif" font-weight="normal" text-anchor="start" style="mix-blend-mode: normal"><tspan x="0" dy="0">shit</tspan></text><path d="M262.5,30c0,8.83656 -7.16344,16 -16,16c-8.83656,0 -16,-7.16344 -16,-16c0,-8.83656 7.16344,-16 16,-16c8.83656,0 16,7.16344 16,16z" fill="#fff700" stroke="#000000" stroke-width="2.5" stroke-linecap="butt"/><path d="M203.644,30.958c0,0 2.704,-36.33 43.236,-42c25.426,-3.556 42.627,37.628 42.627,37.628z" fill="#000000" stroke="#000000" stroke-width="4" stroke-linecap="round"/><path d="M241,210.25h115.25v50.75h-115.25z" fill="#212121" stroke="#000000" stroke-width="5" stroke-linecap="butt"/><text transform="translate(249.04297,230.61057) scale(0.46708,0.46708)" font-size="40" xml:space="preserve" fill="#ffffff" fill-rule="nonzero" stroke="none" stroke-width="1" stroke-linecap="butt" stroke-linejoin="miter" stroke-miterlimit="10" stroke-dasharray="" stroke-dashoffset="0" font-family="Sans Serif" font-weight="normal" text-anchor="start" style="mix-blend-mode: normal"><tspan x="0" dy="0">the power</tspan><tspan x="0" dy="46.15px">drains fast.</tspan></text></g></g></svg>