<svg xmlns="http://www.w3.org/2000/svg" xmlns:xlink="http://www.w3.org/1999/xlink" version="1.1" width="146.1789581298828" height="153.6804229736328" viewBox="0.35000004768371584 0.7000370264053345 146.1789581298828 153.6804229736328">
  <!-- Exported by Scratch - http://scratch.mit.edu/ -->
  <g id="ID0.17520211730152369">
    <g id="ID0.022685101721435785">
      <g id="ID0.08306767325848341">
        <path id="ID0.9066843260079622" fill="#ffab19" stroke="#001026" stroke-width="1.2" stroke-linecap="round" stroke-linejoin="round" d="M 96.904 109.596 C 95.67 110.213 93.048 111.601 96.75 116.846 C 100.453 122.091 111.097 123.171 112.331 123.171 C 117.113 123.326 122.976 123.326 129.455 121.166 C 148.275 114.995 148.43 94.786 142.413 91.546 C 136.551 88.307 133.929 100.803 125.444 108.362 C 121.741 111.755 117.268 112.99 113.565 113.761 C 108.32 114.687 98.293 108.824 96.904 109.596 Z "/>
        <path id="ID0.6775829517282546" fill="#ffffff" stroke="none" stroke-width="1" stroke-linecap="butt" stroke-linejoin="miter" d="M 135.163 97.1 C 132.694 101.265 127.912 107.127 127.912 107.127 C 127.912 107.127 133.62 105.739 136.86 108.362 C 139.482 110.367 138.865 113.761 138.557 114.841 C 140.562 112.835 143.03 110.059 144.573 104.659 C 146.116 99.26 144.573 92.781 141.488 91.855 C 138.402 91.238 137.631 93.552 135.163 97.1 Z "/>
      </g>
      <path id="ID0.7558122044429183" fill="#ffab19" stroke="#001026" stroke-width="1.2" stroke-linecap="round" stroke-linejoin="round" d="M 89.191 125.64 C 91.968 127.491 101.532 134.279 113.72 138.135 L 114.337 138.289 C 114.954 138.444 115.262 139.215 114.954 139.832 C 112.331 143.535 107.549 150.939 116.034 153.562 C 124.21 156.185 139.482 134.433 133.003 128.725 C 130.072 126.565 127.449 127.645 126.061 128.262 C 125.29 128.571 124.518 128.571 123.747 128.416 C 121.896 127.799 118.502 126.565 115.879 125.177 C 109.246 121.783 107.703 120.394 104.618 118.08 C 101.532 115.766 94.436 110.059 88.728 114.995 C 83.792 119.16 86.568 123.788 89.191 125.64 Z "/>
      <path id="ID0.3726932913996279" fill="#ffab19" stroke="#001026" stroke-width="1.2" stroke-linecap="round" stroke-linejoin="round" d="M 64.662 93.552 C 63.891 94.169 54.481 105.276 51.395 102.499 C 47.693 99.26 42.602 92.935 37.049 98.026 C 31.495 103.117 41.985 111.755 46.459 114.07 C 57.103 118.852 65.742 109.75 67.594 107.282 C 69.445 104.813 72.684 100.648 72.684 96.637 C 72.53 92.318 67.285 91.238 64.662 93.552 Z "/>
      <g id="ID0.16492910590022802">
        <path id="ID0.7683891453780234" fill="#ffab19" stroke="#001026" stroke-width="1.2" stroke-linecap="round" stroke-linejoin="round" d="M 64.508 129.496 C 61.269 132.427 54.172 138.444 54.172 138.444 C 54.172 138.444 32.112 134.587 32.112 145.694 C 32.112 152.328 43.219 153.871 58.183 152.482 C 59.109 152.328 60.034 152.019 60.806 151.402 C 64.2 148.471 73.918 139.832 80.089 133.816 C 89.191 124.868 96.75 119.006 96.75 119.006 C 109.863 106.202 99.218 100.803 95.053 93.398 C 91.196 87.073 89.5 88.307 80.243 90.158 C 74.998 90.929 71.913 91.392 68.519 91.238 C 63.428 91.084 64.354 98.488 65.742 102.345 C 65.742 102.345 67.902 108.053 69.908 110.984 C 72.376 114.532 74.227 116.846 76.078 118.235 Z "/>
        <path id="ID0.09933654079213738" fill="#ffffff" stroke="none" stroke-width="1" stroke-linecap="butt" stroke-linejoin="miter" d="M 77.467 118.08 C 77.467 118.08 79.781 116.229 82.249 113.915 C 85.334 111.138 88.42 108.824 85.334 104.042 C 82.557 100.34 79.935 95.403 72.993 99.877 C 66.359 104.042 69.29 107.899 69.29 107.899 C 72.684 114.841 77.467 118.08 77.467 118.08 Z "/>
      </g>
      <path id="ID0.8781115435995162" fill="#ffab19" stroke="#001026" stroke-width="1.2" stroke-linecap="round" stroke-linejoin="round" d="M 100.761 105.431 C 97.367 109.75 92.122 115.149 98.756 119.623 C 107.857 124.714 115.416 109.287 116.959 103.888 C 118.348 99.106 114.337 96.02 110.943 93.398 C 104.309 88.615 98.756 84.296 92.585 86.61 C 84.871 89.387 90.425 95.557 94.282 98.334 C 96.596 100.031 98.91 101.882 100.607 102.962 C 101.07 103.734 101.224 104.659 100.761 105.431 Z "/>
      <g id="ID0.9110631486400962">
        <path id="ID0.42648616526275873" fill="#ffab19" stroke="#001026" stroke-width="1.2" stroke-linecap="butt" stroke-linejoin="miter" d="M 52.167 1.454 C 51.704 1.146 50.933 1.3 50.778 1.917 L 46.767 18.424 C 46.767 18.424 36.894 25.674 33.963 30.765 C 29.027 39.25 28.872 46.192 28.872 46.192 C 28.872 46.192 17.919 49.431 16.068 58.225 C 14.217 67.018 21.005 83.679 50.007 89.387 C 79.009 95.095 102.304 87.227 113.257 69.641 C 124.21 52.054 106.932 31.074 107.857 32.308 L 111.097 4.694 C 111.251 4.077 110.48 3.614 109.863 3.923 L 91.196 16.11 C 91.196 16.11 84.254 13.487 77.004 13.179 C 72.684 12.87 68.982 13.179 65.434 13.796 Z "/>
        <path id="ID0.45390517776831985" fill="#ffffff" stroke="none" stroke-width="1" stroke-linecap="butt" stroke-linejoin="miter" d="M 29.335 46.809 C 29.335 46.809 18.691 49.586 16.84 58.379 C 14.988 67.172 22.393 83.062 51.087 88.615 C 88.42 96.329 106.16 74.114 95.824 57.762 C 85.489 41.255 67.748 55.294 54.789 54.368 C 43.682 53.597 42.448 43.878 29.335 46.809 Z "/>
        <path id="ID0.7853487846441567" fill="#ffffff" stroke="#001026" stroke-width="1.2" stroke-linecap="round" stroke-linejoin="round" d="M 77.929 63.316 C 77.929 62.698 77.312 62.236 76.695 62.39 C 73.764 63.47 65.434 65.938 56.178 66.555 C 47.847 67.018 42.911 66.555 40.597 66.092 C 39.825 65.938 39.208 66.709 39.517 67.481 C 40.905 71.646 46.767 83.216 62.966 82.29 C 77.004 80.748 78.392 70.875 77.929 63.316 Z "/>
        <path id="ID0.25523004308342934" fill="none" stroke="#001026" stroke-width="1.2" stroke-linecap="round" stroke-linejoin="round" d="M 0.95 48.506 C 8.201 54.368 19.308 54.522 19.308 54.522 "/>
        <path id="ID0.5976078724488616" fill="none" stroke="#001026" stroke-width="1.2" stroke-linecap="round" stroke-linejoin="round" d="M 2.955 65.784 C 12.674 66.555 18.691 63.624 18.691 63.624 "/>
        <path id="ID0.21635495079681277" fill="#001026" stroke="#001026" stroke-width="1.2" stroke-linecap="round" stroke-linejoin="round" d="M 55.406 50.357 C 52.167 50.357 48.773 50.666 48.619 51.745 C 48.464 53.905 50.778 58.225 53.247 58.379 C 56.023 58.687 62.503 54.831 62.503 52.363 C 62.657 50.511 58.492 50.357 55.406 50.357 Z "/>
        <path id="ID0.42778444522991776" fill="none" stroke="#001026" stroke-width="1.2" stroke-linecap="round" stroke-linejoin="round" d="M 124.827 48.043 C 124.827 48.043 111.56 52.363 106.16 57.145 "/>
        <path id="ID0.7694068923592567" fill="none" stroke="#001026" stroke-width="1.2" stroke-linecap="round" stroke-linejoin="round" d="M 105.698 62.544 C 112.331 65.167 123.747 63.47 123.747 63.47 "/>
        <g id="ID0.7660351046361029">
          <path id="ID0.6415835176594555" fill="#ffffff" stroke="#001026" stroke-width="1.2" stroke-linecap="round" stroke-linejoin="round" d="M 37.203 32.308 C 32.729 39.25 32.575 47.117 36.894 49.894 C 41.214 52.671 48.31 49.431 52.938 42.489 C 57.412 35.547 57.566 27.68 53.247 24.903 C 48.927 21.972 41.677 25.366 37.203 32.308 Z "/>
          <path id="ID0.48859164165332913" fill="#001026" stroke="none" stroke-width="1" stroke-linecap="butt" stroke-linejoin="miter" d="M 37.82 41.101 C 37.82 42.798 39.054 44.186 40.597 44.186 C 42.139 44.186 43.374 42.798 43.374 41.101 C 43.374 39.404 42.139 38.016 40.597 38.016 C 39.054 38.016 37.82 39.404 37.82 41.101 "/>
        </g>
        <g id="ID0.06664933077991009">
          <path id="ID0.9984318781644106" fill="#ffffff" stroke="#001026" stroke-width="1.2" stroke-linecap="round" stroke-linejoin="round" d="M 75.461 36.627 C 70.833 43.415 71.142 51.745 75.307 54.677 C 80.398 57.608 87.185 55.448 91.814 48.66 C 96.596 41.872 96.904 33.079 92.122 29.685 C 87.34 26.137 80.089 29.839 75.461 36.627 Z "/>
          <path id="ID0.572127325925976" fill="#001026" stroke="none" stroke-width="1" stroke-linecap="butt" stroke-linejoin="miter" d="M 76.387 45.575 C 76.387 47.272 77.621 48.66 79.164 48.66 C 80.706 48.66 81.94 47.272 81.94 45.575 C 81.94 43.878 80.706 42.489 79.164 42.489 C 77.621 42.644 76.387 43.878 76.387 45.575 "/>
        </g>
      </g>
    </g>
  </g>
</svg>