<svg xmlns="http://www.w3.org/2000/svg" xmlns:xlink="http://www.w3.org/1999/xlink" version="1.1" width="265.7021665849267" height="202.05078413863762" viewBox="0.9281592231006179 0.4788594107837234 265.7021665849267 202.05078413863762">
  <!-- Exported by Scratch - http://scratch.mit.edu/ -->
  <path id="ID0.07436205027624965" fill="#6e6e6e" stroke="#000000" stroke-width="4.297385513782501" d="M 95.4363 184.014 L 95.4363 167.684 L 128.0965 167.684 L 128.0965 184.014 Z "/>
  <path id="ID0.25962389120832086" fill="#6e6e6e" stroke="#000000" stroke-width="4.297385513782501" d="M 132.3938 159.0892 L 132.3938 118.6938 L 154.7402 118.6938 L 154.7402 159.0892 Z "/>
  <path id="ID0.9484259304590523" fill="#6e6e6e" stroke="#000000" stroke-width="4.371081379848569" d="M 77.7487 118.6938 L 77.7487 97.2069 L 212.8328 97.2069 L 212.8328 118.6938 Z "/>
  <path id="ID0.21030382672324777" fill="#6e6e6e" stroke="#000000" stroke-width="4.297385513782501" d="M 170.7618 97.2069 L 170.7618 49.9356 L 190.5297 49.9356 L 190.5297 97.2069 Z "/>
  <path id="ID0.514939506072551" fill="#6e6e6e" stroke="#000000" stroke-width="4.297385513782501" d="M 156.1506 51.6546 L 156.1506 2.6644 L 203.4219 2.6644 L 203.4219 51.6546 Z "/>
  <path id="ID0.47193887177854776" fill="#6e6e6e" stroke="#000000" stroke-width="4.297385513782501" d="M 34.9144 70.5631 L 34.9144 55.0925 L 52.1039 55.0925 L 52.1039 70.5631 Z "/>
  <path id="ID0.45158199220895767" fill="#6e6e6e" stroke="#000000" stroke-width="4.297385513782501" d="M 3.1137 78.2984 L 3.1137 45.6382 L 34.9144 45.6382 L 34.9144 78.2984 Z "/>
  <path id="ID0.6506293332204223" fill="#6e6e6e" stroke="#000000" stroke-width="4.297385513782501" d="M 81.3261 69.7036 L 81.3261 54.233 L 100.2346 54.233 L 100.2346 69.7036 Z "/>
  <path id="ID0.5857994602993131" fill="#6e6e6e" stroke="#000000" stroke-width="4.297385513782501" d="M 99.3752 79.1578 L 99.3752 46.4977 L 134.6137 46.4977 L 134.6137 79.1578 Z "/>
  <path id="ID0.8795382268726826" fill="#6e6e6e" stroke="#000000" stroke-width="4.297385513782501" d="M 212.0167 134.1644 L 212.0167 82.5957 L 264.4448 82.5957 L 264.4448 134.1644 Z "/>
  <path id="ID0.759608612395823" fill="#6e6e6e" stroke="#000000" stroke-width="4.297385513782501" d="M 53.0134 133.3049 L 53.0134 48.2167 L 81.3761 48.2167 L 81.3761 133.3049 Z "/>
  <path id="ID0.6831664983183146" fill="#6e6e6e" stroke="#000000" stroke-width="4.297385513782501" d="M 40.1212 200.3441 L 40.1212 143.6186 L 95.9872 143.6186 L 95.9872 200.3441 Z "/>
  <path id="ID0.09346788842231035" fill="#6e6e6e" stroke="#000000" stroke-width="4.297385513782501" d="M 127.237 190.0304 L 127.237 159.0892 L 159.8971 159.0892 L 159.8971 190.0304 Z "/>
  <path id="ID0.5543642966076732" fill="#000000" stroke="none" d="M 61.027 175.877 L 75.027 175.877 L 75.027 189.877 L 61.027 189.877 L 61.027 175.877 Z " stroke-width="0.7567567825317383"/>
  <text id="ID0.0065872254781425" fill="#000000" text-anchor="start" font-family="Serif" font-size="22" transform="matrix(0.63434 0 0 0.63434 50.7687 145.513)" stroke-width="1" alignment-baseline="text-before-edge" xml:space="preserve"><tspan x="0" style="white-space: pre" dy="1.25em">YOU</tspan></text>
</svg>